SplineFontDB: 3.0
FontName: Orav-Bold
FullName: Orav Bold
FamilyName: Orav
Weight: Bold
Copyright: Copyright (c) 2014 by TipTopTyp. All rights reserved under SIL openfont License 1.1
Version: 1.0.1
ItalicAngle: 0
UnderlinePosition: -204
UnderlineWidth: 102
Ascent: 1556
Descent: 492
UFOAscent: 1556.48
UFODescent: -471.04
LayerCount: 2
Layer: 0 1 "Back"  1
Layer: 1 1 "Fore"  0
FSType: 4
OS2Version: 3
OS2_WeightWidthSlopeOnly: 0
OS2_UseTypoMetrics: 0
CreationTime: 1417802818
ModificationTime: 1418025567
PfmFamily: 17
TTFWeight: 700
TTFWidth: 5
LineGap: 55
VLineGap: 0
Panose: 2 0 0 0 0 0 0 0 0 0
OS2TypoAscent: 1556
OS2TypoAOffset: 0
OS2TypoDescent: -471
OS2TypoDOffset: 0
OS2TypoLinegap: 110
OS2WinAscent: 1968
OS2WinAOffset: 0
OS2WinDescent: 506
OS2WinDOffset: 0
HheadAscent: 1968
HheadAOffset: 0
HheadDescent: -506
HheadDOffset: 0
OS2SubXSize: 1434
OS2SubYSize: 1331
OS2SubXOff: 0
OS2SubYOff: 287
OS2SupXSize: 1434
OS2SupYSize: 1331
OS2SupXOff: 0
OS2SupYOff: 977
OS2StrikeYSize: 102
OS2StrikeYPos: 512
OS2Vendor: 'KORK'
OS2CodePages: 00000001.00000000
OS2UnicodeRanges: 80008223.00002042.00000000.00000000
Lookup: 4 0 0 "halnHalantFormslookup29"  {"halnHalantFormslookup29 subtable"  } ['haln' ('deva' <'dflt' 'MAR ' 'NEP ' > 'DFLT' <'dflt' > ) ]
Lookup: 1 0 0 "LocalizedMrForms_lookup0"  {"LocalizedMrForms_lookup0 subtable"  } ['locl' ('deva' <'MAR ' > ) ]
Lookup: 4 0 0 "LocalizedMrHalfFormslookup1"  {"LocalizedMrHalfFormslookup1 subtable"  } ['locl' ('deva' <'MAR ' > ) ]
Lookup: 1 0 0 "LocalizedNpFormslookup2"  {"LocalizedNpFormslookup2 subtable"  } ['locl' ('deva' <'NEP ' > ) ]
Lookup: 4 0 0 "LocalizedNpFormslookup3"  {"LocalizedNpFormslookup3 subtable"  } ['locl' ('deva' <'NEP ' > ) ]
Lookup: 4 0 0 "NuktaFormslookup5"  {"NuktaFormslookup5 subtable"  } ['nukt' ('deva' <'dflt' 'MAR ' 'NEP ' > ) ]
Lookup: 4 0 0 "AkhandFormslookup6"  {"AkhandFormslookup6 subtable"  } ['akhn' ('deva' <'dflt' 'MAR ' 'NEP ' > ) ]

StartChar: .notdef
Encoding: 65536 -1 0
Width: 1140
VWidth: 0
Flags: W
LayerCount: 2
Back
SplineSet
204.799804688 1413.12011719 m 1,0,-1
 935.935546875 1413.12011719 l 1,1,-1
 935.935546875 102.400390625 l 1,2,-1
 204.799804688 102.400390625 l 1,3,-1
 204.799804688 1413.12011719 l 1,0,-1
102.400390625 0 m 1,4,-1
 1038.3359375 0 l 1,5,-1
 1038.3359375 1515.51953125 l 1,6,-1
 102.400390625 1515.51953125 l 1,7,-1
 102.400390625 0 l 1,4,-1
EndSplineSet
Fore
SplineSet
205 1413 m 1,0,-1
 205 102 l 1,1,-1
 936 102 l 1,2,-1
 936 1413 l 1,3,-1
 205 1413 l 1,0,-1
102 0 m 1,4,-1
 102 1516 l 1,5,-1
 1038 1516 l 1,6,-1
 1038 0 l 1,7,-1
 102 0 l 1,4,-1
EndSplineSet
EndChar

StartChar: A
Encoding: 65 65 2
Width: 1490
VWidth: 0
Flags: W
LayerCount: 2
Back
SplineSet
892.927734375 0 m 1,0,-1
 1468.41601562 0 l 1,1,-1
 1468.41601562 274.431640625 l 1,2,-1
 1358.85644531 274.431640625 l 1,3,-1
 954.368164062 1515.51953125 l 1,4,-1
 552.959960938 1515.51953125 l 1,5,-1
 140.579101562 274.431640625 l 1,6,-1
 26.6240234375 274.431640625 l 1,7,-1
 26.6240234375 0 l 1,8,-1
 602.112304688 0 l 1,9,-1
 602.112304688 274.431640625 l 1,10,-1
 442.591796875 274.431640625 l 1,11,-1
 509.69140625 491.51953125 l 1,12,-1
 976.088867188 491.51953125 l 1,13,-1
 1044.06640625 274.431640625 l 1,14,-1
 892.927734375 274.431640625 l 1,15,-1
 892.927734375 0 l 1,0,-1
588.818359375 747.51953125 m 1,16,-1
 741.375976562 1241.08789062 l 1,17,-1
 895.927734375 747.51953125 l 1,18,-1
 588.818359375 747.51953125 l 1,16,-1
EndSplineSet
Fore
SplineSet
893 0 m 1,0,-1
 893 274 l 1,1,-1
 1044 274 l 1,2,-1
 976 492 l 1,3,-1
 510 492 l 1,4,-1
 443 274 l 1,5,-1
 602 274 l 1,6,-1
 602 0 l 1,7,-1
 27 0 l 1,8,-1
 27 274 l 1,9,-1
 141 274 l 1,10,-1
 553 1516 l 1,11,-1
 954 1516 l 1,12,-1
 1359 274 l 1,13,-1
 1468 274 l 1,14,-1
 1468 0 l 1,15,-1
 893 0 l 1,0,-1
589 748 m 1,16,-1
 896 748 l 1,17,-1
 741 1241 l 1,18,-1
 589 748 l 1,16,-1
EndSplineSet
EndChar

StartChar: AE
Encoding: 198 198 3
Width: 2093
VWidth: 0
Flags: W
LayerCount: 2
Back
SplineSet
882.688476562 0 m 1,0,-1
 2031.61621094 0 l 1,1,-1
 2031.61621094 542.719726562 l 1,2,-1
 1705.984375 542.719726562 l 1,3,-1
 1705.984375 274.431640625 l 1,4,-1
 1335.29589844 274.431640625 l 1,5,-1
 1335.29589844 634.879882812 l 1,6,-1
 1626.11230469 634.879882812 l 1,7,-1
 1626.11230469 909.311523438 l 1,8,-1
 1335.29589844 909.311523438 l 1,9,-1
 1335.29589844 1214.46386719 l 1,10,-1
 1705.984375 1214.46386719 l 1,11,-1
 1705.984375 999.423828125 l 1,12,-1
 2031.61621094 999.423828125 l 1,13,-1
 2031.61621094 1515.51953125 l 1,14,-1
 882.688476562 1515.51953125 l 1,15,-1
 92.5712890625 274.431640625 l 1,16,-1
 -34.81640625 274.431640625 l 1,17,-1
 -34.81640625 0 l 1,18,-1
 260.095703125 0 l 1,19,-1
 540.671875 0 l 1,20,-1
 540.671875 274.431640625 l 1,21,-1
 424.66796875 274.431640625 l 1,22,-1
 506.953125 411.6484375 l 1,23,-1
 1003.51953125 411.6484375 l 1,24,-1
 1003.51953125 274.431640625 l 1,25,-1
 882.688476562 274.431640625 l 1,26,-1
 882.688476562 0 l 1,0,-1
1003.51953125 686.080078125 m 1,27,-1
 671.525390625 686.080078125 l 1,28,-1
 988.38671875 1214.46386719 l 1,29,-1
 1003.51953125 1214.46386719 l 1,30,-1
 1003.51953125 686.080078125 l 1,27,-1
EndSplineSet
Fore
SplineSet
883 0 m 1,0,-1
 883 274 l 1,1,-1
 1004 274 l 1,2,-1
 1004 412 l 1,3,-1
 507 412 l 1,4,-1
 425 274 l 1,5,-1
 541 274 l 1,6,-1
 541 0 l 1,7,-1
 -35 0 l 1,8,-1
 -35 274 l 1,9,-1
 93 274 l 1,10,-1
 883 1516 l 1,11,-1
 2032 1516 l 1,12,-1
 2032 999 l 1,13,-1
 1706 999 l 1,14,-1
 1706 1214 l 1,15,-1
 1335 1214 l 1,16,-1
 1335 909 l 1,17,-1
 1626 909 l 1,18,-1
 1626 635 l 1,19,-1
 1335 635 l 1,20,-1
 1335 274 l 1,21,-1
 1706 274 l 1,22,-1
 1706 543 l 1,23,-1
 2032 543 l 1,24,-1
 2032 0 l 1,25,-1
 883 0 l 1,0,-1
1004 686 m 1,26,-1
 1004 1214 l 1,27,-1
 988 1214 l 1,28,-1
 672 686 l 1,29,-1
 1004 686 l 1,26,-1
EndSplineSet
EndChar

StartChar: Aogonek
Encoding: 260 260 10
Width: 1490
VWidth: 0
Flags: W
LayerCount: 2
Back
SplineSet
26.6240234375 0 m 1,0,-1
 602.112304688 0 l 1,1,-1
 602.112304688 274.431640625 l 1,2,-1
 442.591796875 274.431640625 l 1,3,-1
 509.69140625 491.51953125 l 1,4,-1
 976.088867188 491.51953125 l 1,5,-1
 1044.06640625 274.431640625 l 1,6,-1
 927.744140625 274.431640625 l 1,7,-1
 927.744140625 -10.02734375 l 1,8,9
 888.754882812 -37.3212890625 888.754882812 -37.3212890625 862.168945312 -90.3173828125 c 128,-1,10
 835.583984375 -143.3125 835.583984375 -143.3125 835.583984375 -206.84765625 c 0,11,12
 835.583984375 -329.727539062 835.583984375 -329.727539062 934.912109375 -407.551757812 c 128,-1,13
 1034.24023438 -485.375976562 1034.24023438 -485.375976562 1218.55957031 -485.375976562 c 0,14,15
 1261.56835938 -485.375976562 1261.56835938 -485.375976562 1316.86425781 -472.064453125 c 128,-1,16
 1372.16015625 -458.751953125 1372.16015625 -458.751953125 1396.73632812 -444.416015625 c 1,17,-1
 1347.58398438 -258.047851562 l 1,18,19
 1298.43164062 -280.576171875 1298.43164062 -280.576171875 1245.18359375 -280.576171875 c 0,20,21
 1181.69628906 -280.576171875 1181.69628906 -280.576171875 1138.68847656 -249.856445312 c 128,-1,22
 1095.6796875 -219.135742188 1095.6796875 -219.135742188 1095.6796875 -163.83984375 c 0,23,24
 1095.6796875 -96.255859375 1095.6796875 -96.255859375 1148.92773438 -48.1279296875 c 128,-1,25
 1202.17578125 0 1202.17578125 0 1290.24023438 0 c 2,26,-1
 1468.41601562 0 l 1,27,-1
 1468.41601562 274.431640625 l 1,28,-1
 1358.85644531 274.431640625 l 1,29,-1
 954.368164062 1515.51953125 l 1,30,-1
 552.959960938 1515.51953125 l 1,31,-1
 140.579101562 274.431640625 l 1,32,-1
 26.6240234375 274.431640625 l 1,33,-1
 26.6240234375 0 l 1,0,-1
588.818359375 747.51953125 m 1,34,-1
 741.375976562 1241.08789062 l 1,35,-1
 895.927734375 747.51953125 l 1,36,-1
 588.818359375 747.51953125 l 1,34,-1
EndSplineSet
Fore
SplineSet
27 0 m 1,0,-1
 27 274 l 1,1,-1
 141 274 l 1,2,-1
 553 1516 l 1,3,-1
 954 1516 l 1,4,-1
 1359 274 l 1,5,-1
 1468 274 l 1,6,-1
 1468 0 l 1,7,-1
 1290 0 l 2,8,9
 1202 0 1202 0 1149 -48.5 c 128,-1,10
 1096 -97 1096 -97 1096 -158 c 128,-1,11
 1096 -219 1096 -219 1139 -250 c 128,-1,12
 1182 -281 1182 -281 1240 -281 c 0,13,14
 1299 -281 1299 -281 1348 -258 c 1,15,-1
 1397 -444 l 1,16,17
 1372 -459 1372 -459 1317 -472 c 128,-1,18
 1262 -485 1262 -485 1219 -485 c 0,19,20
 1034 -485 1034 -485 935 -407.5 c 128,-1,21
 836 -330 836 -330 836 -207 c 0,22,23
 836 -143 836 -143 862.5 -90 c 128,-1,24
 889 -37 889 -37 928 -10 c 1,25,-1
 928 274 l 1,26,-1
 1044 274 l 1,27,-1
 976 492 l 1,28,-1
 510 492 l 1,29,-1
 443 274 l 1,30,-1
 602 274 l 1,31,-1
 602 0 l 1,32,-1
 27 0 l 1,0,-1
589 748 m 1,33,-1
 896 748 l 1,34,-1
 741 1241 l 1,35,-1
 589 748 l 1,33,-1
EndSplineSet
EndChar

StartChar: Aring
Encoding: 197 197 11
Width: 1490
VWidth: 0
Flags: W
LayerCount: 2
Back
SplineSet
743.423828125 2025.47167969 m 128,-1,1
 612.3515625 2025.47167969 612.3515625 2025.47167969 519.16796875 1932.28808594 c 128,-1,2
 425.984375 1839.10351562 425.984375 1839.10351562 425.984375 1708.03222656 c 0,3,4
 425.984375 1563.32128906 425.984375 1563.32128906 537.05859375 1467.66308594 c 1,5,-1
 140.579101562 274.431640625 l 1,6,-1
 26.6240234375 274.431640625 l 1,7,-1
 26.6240234375 0 l 1,8,-1
 602.112304688 0 l 1,9,-1
 602.112304688 274.431640625 l 1,10,-1
 442.591796875 274.431640625 l 1,11,-1
 509.69140625 491.51953125 l 1,12,-1
 976.088867188 491.51953125 l 1,13,-1
 1044.06640625 274.431640625 l 1,14,-1
 892.927734375 274.431640625 l 1,15,-1
 892.927734375 0 l 1,16,-1
 1468.41601562 0 l 1,17,-1
 1468.41601562 274.431640625 l 1,18,-1
 1358.85644531 274.431640625 l 1,19,-1
 965.3125 1481.93945312 l 1,20,21
 1060.86425781 1575.75097656 1060.86425781 1575.75097656 1060.86425781 1708.03222656 c 0,22,23
 1060.86425781 1839.10351562 1060.86425781 1839.10351562 967.6796875 1932.28808594 c 128,-1,0
 874.49609375 2025.47167969 874.49609375 2025.47167969 743.423828125 2025.47167969 c 128,-1,1
618.49609375 1708.03222656 m 0,24,25
 618.49609375 1759.23242188 618.49609375 1759.23242188 654.3359375 1795.07226562 c 128,-1,26
 690.17578125 1830.91210938 690.17578125 1830.91210938 743.423828125 1830.91210938 c 0,27,28
 794.624023438 1830.91210938 794.624023438 1830.91210938 830.463867188 1796.09570312 c 128,-1,29
 866.303710938 1761.28027344 866.303710938 1761.28027344 866.303710938 1708.03222656 c 128,-1,30
 866.303710938 1654.78417969 866.303710938 1654.78417969 830.463867188 1618.94433594 c 128,-1,31
 794.624023438 1583.10351562 794.624023438 1583.10351562 743.423828125 1583.10351562 c 128,-1,32
 692.223632812 1583.10351562 692.223632812 1583.10351562 655.360351562 1618.94433594 c 128,-1,33
 618.49609375 1654.78417969 618.49609375 1654.78417969 618.49609375 1708.03222656 c 0,24,25
588.818359375 747.51953125 m 1,34,-1
 741.375976562 1241.08789062 l 1,35,-1
 895.927734375 747.51953125 l 1,36,-1
 588.818359375 747.51953125 l 1,34,-1
EndSplineSet
Fore
SplineSet
743 2025 m 128,-1,1
 874 2025 874 2025 967.5 1932 c 128,-1,2
 1061 1839 1061 1839 1061 1707.5 c 128,-1,3
 1061 1576 1061 1576 965 1482 c 1,4,-1
 1359 274 l 1,5,-1
 1468 274 l 1,6,-1
 1468 0 l 1,7,-1
 893 0 l 1,8,-1
 893 274 l 1,9,-1
 1044 274 l 1,10,-1
 976 492 l 1,11,-1
 510 492 l 1,12,-1
 443 274 l 1,13,-1
 602 274 l 1,14,-1
 602 0 l 1,15,-1
 27 0 l 1,16,-1
 27 274 l 1,17,-1
 141 274 l 1,18,-1
 537 1468 l 1,19,20
 426 1563 426 1563 426 1701 c 128,-1,21
 426 1839 426 1839 519 1932 c 128,-1,0
 612 2025 612 2025 743 2025 c 128,-1,1
655 1619 m 128,-1,23
 692 1583 692 1583 743.5 1583 c 128,-1,24
 795 1583 795 1583 830.5 1619 c 128,-1,25
 866 1655 866 1655 866 1708 c 128,-1,26
 866 1761 866 1761 830.5 1796 c 128,-1,27
 795 1831 795 1831 742.5 1831 c 128,-1,28
 690 1831 690 1831 654 1795 c 128,-1,29
 618 1759 618 1759 618 1707 c 128,-1,22
 618 1655 618 1655 655 1619 c 128,-1,23
589 748 m 1,30,-1
 896 748 l 1,31,-1
 741 1241 l 1,32,-1
 589 748 l 1,30,-1
EndSplineSet
EndChar

StartChar: B
Encoding: 66 66 13
Width: 1386
VWidth: 0
Flags: W
LayerCount: 2
Back
SplineSet
600.064453125 901.120117188 m 1,0,-1
 600.064453125 1241.08789062 l 1,1,-1
 837.631835938 1241.08789062 l 2,2,3
 892.927734375 1241.08789062 892.927734375 1241.08789062 933.887695312 1185.79199219 c 128,-1,4
 974.84765625 1130.49609375 974.84765625 1130.49609375 974.84765625 1067.0078125 c 128,-1,5
 974.84765625 1003.51953125 974.84765625 1003.51953125 933.887695312 952.3203125 c 128,-1,6
 892.927734375 901.120117188 892.927734375 901.120117188 837.631835938 901.120117188 c 2,7,-1
 600.064453125 901.120117188 l 1,0,-1
268.288085938 1241.08789062 m 1,8,-1
 268.288085938 274.431640625 l 1,9,-1
 112.639648438 274.431640625 l 1,10,-1
 112.639648438 0 l 1,11,-1
 874.49609375 0 l 2,12,13
 1069.05566406 0 1069.05566406 0 1201.15234375 132.095703125 c 128,-1,14
 1333.24804688 264.192382812 1333.24804688 264.192382812 1333.24804688 468.9921875 c 0,15,16
 1333.24804688 566.217773438 1333.24804688 566.217773438 1291.17285156 638.239257812 c 128,-1,17
 1249.09863281 710.259765625 1249.09863281 710.259765625 1170.92871094 758.93359375 c 1,18,19
 1318.91210938 850.075195312 1318.91210938 850.075195312 1318.91210938 1056.76757812 c 0,20,21
 1318.91210938 1247.23242188 1318.91210938 1247.23242188 1186.81640625 1381.37597656 c 128,-1,22
 1054.71972656 1515.51953125 1054.71972656 1515.51953125 851.967773438 1515.51953125 c 2,23,-1
 112.639648438 1517.56835938 l 1,24,-1
 112.639648438 1241.08789062 l 1,25,-1
 268.288085938 1241.08789062 l 1,8,-1
600.064453125 274.431640625 m 1,26,-1
 600.064453125 626.688476562 l 1,27,-1
 851.967773438 626.688476562 l 2,28,29
 909.311523438 626.688476562 909.311523438 626.688476562 950.272460938 576.51171875 c 128,-1,30
 991.232421875 526.3359375 991.232421875 526.3359375 991.232421875 452.608398438 c 0,31,32
 991.232421875 382.975585938 991.232421875 382.975585938 950.272460938 328.704101562 c 128,-1,33
 909.311523438 274.431640625 909.311523438 274.431640625 851.967773438 274.431640625 c 2,34,-1
 600.064453125 274.431640625 l 1,26,-1
EndSplineSet
Fore
SplineSet
600 901 m 1,0,-1
 838 901 l 2,1,2
 893 901 893 901 934 952.5 c 128,-1,3
 975 1004 975 1004 975 1067 c 128,-1,4
 975 1130 975 1130 934 1185.5 c 128,-1,5
 893 1241 893 1241 838 1241 c 2,6,-1
 600 1241 l 1,7,-1
 600 901 l 1,0,-1
1201 132 m 128,-1,9
 1069 0 1069 0 874 0 c 2,10,-1
 113 0 l 1,11,-1
 113 274 l 1,12,-1
 268 274 l 1,13,-1
 268 1241 l 1,14,-1
 113 1241 l 1,15,-1
 113 1518 l 1,16,-1
 852 1516 l 2,17,18
 1055 1516 1055 1516 1187 1381.5 c 128,-1,19
 1319 1247 1319 1247 1319 1048.5 c 128,-1,20
 1319 850 1319 850 1171 759 c 1,21,22
 1333 658 1333 658 1333 461 c 128,-1,8
 1333 264 1333 264 1201 132 c 128,-1,9
600 274 m 1,23,-1
 852 274 l 2,24,25
 909 274 909 274 950 328.5 c 128,-1,26
 991 383 991 383 991 454.5 c 128,-1,27
 991 526 991 526 950 576.5 c 128,-1,28
 909 627 909 627 852 627 c 2,29,-1
 600 627 l 1,30,-1
 600 274 l 1,23,-1
EndSplineSet
EndChar

StartChar: C
Encoding: 67 67 14
Width: 1554
VWidth: 0
Flags: W
LayerCount: 2
Back
SplineSet
1191.93554688 1392.63964844 m 1,0,1
 1185.79199219 1396.73632812 1185.79199219 1396.73632812 1165.31152344 1414.14355469 c 128,-1,2
 1144.83203125 1431.55175781 1144.83203125 1431.55175781 1136.63964844 1438.71972656 c 128,-1,3
 1128.44824219 1445.88769531 1128.44824219 1445.88769531 1106.94433594 1461.24804688 c 128,-1,4
 1085.44042969 1476.60839844 1085.44042969 1476.60839844 1071.10351562 1483.77636719 c 128,-1,5
 1056.76757812 1490.94433594 1056.76757812 1490.94433594 1033.21582031 1502.20800781 c 128,-1,6
 1009.6640625 1513.47167969 1009.6640625 1513.47167969 986.112304688 1519.61621094 c 128,-1,7
 962.559570312 1525.75976562 962.559570312 1525.75976562 933.887695312 1531.90429688 c 128,-1,8
 905.215820312 1538.04785156 905.215820312 1538.04785156 871.423828125 1541.12011719 c 128,-1,9
 837.631835938 1544.19238281 837.631835938 1544.19238281 798.719726562 1544.19238281 c 0,10,11
 491.51953125 1544.19238281 491.51953125 1544.19238281 278.528320312 1314.81640625 c 128,-1,12
 65.5361328125 1085.44042969 65.5361328125 1085.44042969 65.5361328125 759.807617188 c 0,13,14
 65.5361328125 432.127929688 65.5361328125 432.127929688 278.528320312 202.751953125 c 128,-1,15
 491.51953125 -26.6240234375 491.51953125 -26.6240234375 798.719726562 -26.6240234375 c 0,16,17
 1036.28808594 -26.6240234375 1036.28808594 -26.6240234375 1212.41601562 101.375976562 c 128,-1,18
 1388.54394531 229.375976562 1388.54394531 229.375976562 1452.03222656 430.080078125 c 1,19,-1
 1130.49609375 520.192382812 l 1,20,21
 1091.58398438 423.935546875 1091.58398438 423.935546875 1001.47167969 356.3515625 c 128,-1,22
 911.360351562 288.767578125 911.360351562 288.767578125 798.719726562 288.767578125 c 0,23,24
 630.784179688 288.767578125 630.784179688 288.767578125 518.143554688 425.984375 c 128,-1,25
 405.50390625 563.200195312 405.50390625 563.200195312 405.50390625 759.807617188 c 0,26,27
 405.50390625 954.368164062 405.50390625 954.368164062 519.16796875 1092.60839844 c 128,-1,28
 632.83203125 1230.84765625 632.83203125 1230.84765625 798.719726562 1230.84765625 c 0,29,30
 897.024414062 1230.84765625 897.024414062 1230.84765625 978.944335938 1180.671875 c 128,-1,31
 1060.86425781 1130.49609375 1060.86425781 1130.49609375 1105.91992188 1054.71972656 c 1,32,-1
 1415.16796875 1054.71972656 l 1,33,-1
 1415.16796875 1392.63964844 l 1,34,-1
 1191.93554688 1392.63964844 l 1,0,1
EndSplineSet
Fore
SplineSet
1192 1393 m 1,0,1
 1415 1393 l 1,2,-1
 1415 1055 l 1,3,-1
 1106 1055 l 1,4,5
 1061 1130 1061 1130 979 1180.5 c 128,-1,6
 897 1231 897 1231 799 1231 c 0,7,8
 633 1231 633 1231 519.5 1092.5 c 128,-1,9
 406 954 406 954 406 758.5 c 128,-1,10
 406 563 406 563 518.5 426 c 128,-1,11
 631 289 631 289 799 289 c 0,12,13
 911 289 911 289 1001 356.5 c 128,-1,14
 1091 424 1091 424 1130 520 c 1,15,-1
 1452 430 l 1,16,17
 1389 229 1389 229 1213 101 c 128,-1,18
 1037 -27 1037 -27 799 -27 c 0,19,20
 492 -27 492 -27 279 202.5 c 128,-1,21
 66 432 66 432 66 758.5 c 128,-1,22
 66 1085 66 1085 279 1314.5 c 128,-1,23
 492 1544 492 1544 799 1544 c 0,24,25
 877 1544 877 1544 934 1532 c 0,26,27
 963 1526 963 1526 986.5 1519.5 c 128,-1,28
 1010 1513 1010 1513 1033.5 1502 c 128,-1,29
 1057 1491 1057 1491 1071 1484 c 128,-1,30
 1085 1477 1085 1477 1106.5 1461.5 c 128,-1,31
 1128 1446 1128 1446 1154.5 1423 c 128,-1,32
 1181 1400 1181 1400 1192 1393 c 1,0,1
EndSplineSet
EndChar

StartChar: D
Encoding: 68 68 19
Width: 1468
VWidth: 0
Flags: W
LayerCount: 2
Back
SplineSet
202.751953125 1241.08789062 m 1,0,-1
 202.751953125 274.431640625 l 1,1,-1
 81.919921875 274.431640625 l 1,2,-1
 81.919921875 0 l 1,3,-1
 663.551757812 0 l 2,4,5
 974.84765625 0 974.84765625 0 1190.91210938 222.208007812 c 128,-1,6
 1406.97558594 444.416015625 1406.97558594 444.416015625 1406.97558594 759.807617188 c 128,-1,7
 1406.97558594 1075.20019531 1406.97558594 1075.20019531 1190.91210938 1295.36035156 c 128,-1,8
 974.84765625 1515.51953125 974.84765625 1515.51953125 663.551757812 1515.51953125 c 2,9,-1
 81.919921875 1515.51953125 l 1,10,-1
 81.919921875 1241.08789062 l 1,11,-1
 202.751953125 1241.08789062 l 1,0,-1
534.528320312 1241.08789062 m 1,12,-1
 661.50390625 1241.08789062 l 2,13,14
 825.34375 1241.08789062 825.34375 1241.08789062 940.032226562 1101.82421875 c 128,-1,15
 1054.71972656 962.559570312 1054.71972656 962.559570312 1054.71972656 759.807617188 c 128,-1,16
 1054.71972656 557.055664062 1054.71972656 557.055664062 940.032226562 415.744140625 c 128,-1,17
 825.34375 274.431640625 825.34375 274.431640625 661.50390625 274.431640625 c 2,18,-1
 534.528320312 274.431640625 l 1,19,-1
 534.528320312 1241.08789062 l 1,12,-1
EndSplineSet
Fore
SplineSet
203 1241 m 1,0,-1
 82 1241 l 1,1,-1
 82 1516 l 1,2,-1
 664 1516 l 2,3,4
 975 1516 975 1516 1191 1295.5 c 128,-1,5
 1407 1075 1407 1075 1407 759.5 c 128,-1,6
 1407 444 1407 444 1191 222 c 128,-1,7
 975 0 975 0 664 0 c 2,8,-1
 82 0 l 1,9,-1
 82 274 l 1,10,-1
 203 274 l 1,11,-1
 203 1241 l 1,0,-1
535 1241 m 1,12,-1
 535 274 l 1,13,-1
 662 274 l 2,14,15
 825 274 825 274 940 415.5 c 128,-1,16
 1055 557 1055 557 1055 760 c 128,-1,17
 1055 963 1055 963 940.5 1102 c 128,-1,18
 826 1241 826 1241 662 1241 c 2,19,-1
 535 1241 l 1,12,-1
EndSplineSet
EndChar

StartChar: D_E
Encoding: 65538 -1 20
Width: 2848
VWidth: 0
Flags: W
LayerCount: 2
Back
SplineSet
825.34375 0 m 2,0,-1
 2000.89648438 0 l 1,1,-1
 2000.89648438 542.719726562 l 1,2,-1
 1675.26367188 542.719726562 l 1,3,-1
 1675.26367188 274.431640625 l 1,4,-1
 1286.14355469 274.431640625 l 1,5,-1
 1286.14355469 624.639648438 l 1,6,-1
 1587.20019531 624.639648438 l 1,7,-1
 1587.20019531 915.456054688 l 1,8,-1
 1286.14355469 915.456054688 l 1,9,-1
 1286.14355469 1239.97949219 l 1,10,-1
 1675.26367188 1239.04003906 l 1,11,-1
 1675.26367188 999.423828125 l 1,12,-1
 2000.89648438 999.423828125 l 1,13,-1
 2000.89648438 1515.51953125 l 1,14,-1
 825.34375 1515.51953125 l 2,15,16
 514.047851562 1515.51953125 514.047851562 1515.51953125 297.984375 1295.36035156 c 128,-1,17
 81.919921875 1075.20019531 81.919921875 1075.20019531 81.919921875 759.807617188 c 128,-1,18
 81.919921875 444.416015625 81.919921875 444.416015625 297.984375 222.208007812 c 128,-1,19
 514.047851562 0 514.047851562 0 825.34375 0 c 2,0,-1
954.368164062 1240.78125 m 1,20,-1
 954.368164062 274.431640625 l 1,21,-1
 827.391601562 274.431640625 l 2,22,23
 663.551757812 274.431640625 663.551757812 274.431640625 548.864257812 415.744140625 c 128,-1,24
 434.17578125 557.055664062 434.17578125 557.055664062 434.17578125 759.807617188 c 128,-1,25
 434.17578125 962.559570312 434.17578125 962.559570312 548.864257812 1102.84765625 c 128,-1,26
 663.551757812 1243.13574219 663.551757812 1243.13574219 827.391601562 1241.08789062 c 2,27,-1
 954.368164062 1240.78125 l 1,20,-1
EndSplineSet
Fore
SplineSet
825 0 m 2,0,1
 514 0 514 0 298 222 c 128,-1,2
 82 444 82 444 82 759.5 c 128,-1,3
 82 1075 82 1075 298 1295.5 c 128,-1,4
 514 1516 514 1516 825 1516 c 2,5,-1
 2001 1516 l 1,6,-1
 2001 999 l 1,7,-1
 1675 999 l 1,8,-1
 1675 1239 l 1,9,-1
 1286 1240 l 1,10,-1
 1286 915 l 1,11,-1
 1587 915 l 1,12,-1
 1587 625 l 1,13,-1
 1286 625 l 1,14,-1
 1286 274 l 1,15,-1
 1675 274 l 1,16,-1
 1675 543 l 1,17,-1
 2001 543 l 1,18,-1
 2001 0 l 1,19,-1
 825 0 l 2,0,1
954 1241 m 1,20,-1
 827 1241 l 2,21,22
 664 1243 664 1243 549 1103 c 128,-1,23
 434 963 434 963 434 760 c 128,-1,24
 434 557 434 557 548.5 415.5 c 128,-1,25
 663 274 663 274 827 274 c 2,26,-1
 954 274 l 1,27,-1
 954 1241 l 1,20,-1
EndSplineSet
EndChar

StartChar: E
Encoding: 69 69 23
Width: 1380
VWidth: 0
Flags: W
LayerCount: 2
Back
SplineSet
112.639648438 0 m 1,0,-1
 1318.91210938 0 l 1,1,-1
 1318.91210938 542.719726562 l 1,2,-1
 993.280273438 542.719726562 l 1,3,-1
 993.280273438 274.431640625 l 1,4,-1
 604.16015625 274.431640625 l 1,5,-1
 604.16015625 624.639648438 l 1,6,-1
 905.215820312 624.639648438 l 1,7,-1
 905.215820312 915.456054688 l 1,8,-1
 604.16015625 915.456054688 l 1,9,-1
 604.16015625 1214.46386719 l 1,10,-1
 993.280273438 1214.46386719 l 1,11,-1
 993.280273438 999.423828125 l 1,12,-1
 1318.91210938 999.423828125 l 1,13,-1
 1318.91210938 1515.51953125 l 1,14,-1
 112.639648438 1515.51953125 l 1,15,-1
 112.639648438 1214.46386719 l 1,16,-1
 272.383789062 1214.46386719 l 1,17,-1
 272.383789062 274.431640625 l 1,18,-1
 112.639648438 274.431640625 l 1,19,-1
 112.639648438 0 l 1,0,-1
EndSplineSet
Fore
SplineSet
113 0 m 1,0,-1
 113 274 l 1,1,-1
 272 274 l 1,2,-1
 272 1214 l 1,3,-1
 113 1214 l 1,4,-1
 113 1516 l 1,5,-1
 1319 1516 l 1,6,-1
 1319 999 l 1,7,-1
 993 999 l 1,8,-1
 993 1214 l 1,9,-1
 604 1214 l 1,10,-1
 604 915 l 1,11,-1
 905 915 l 1,12,-1
 905 625 l 1,13,-1
 604 625 l 1,14,-1
 604 274 l 1,15,-1
 993 274 l 1,16,-1
 993 543 l 1,17,-1
 1319 543 l 1,18,-1
 1319 0 l 1,19,-1
 113 0 l 1,0,-1
EndSplineSet
EndChar

StartChar: Eogonek
Encoding: 280 280 31
Width: 1380
VWidth: 0
Flags: W
LayerCount: 2
Back
SplineSet
997.875 0 m 1,0,1
 849.919921875 -107.581054688 849.919921875 -107.581054688 849.919921875 -260.095703125 c 0,2,3
 849.919921875 -358.400390625 849.919921875 -358.400390625 932.864257812 -414.719726562 c 128,-1,4
 1015.80761719 -471.040039062 1015.80761719 -471.040039062 1140.73632812 -471.040039062 c 0,5,6
 1247.23242188 -471.040039062 1247.23242188 -471.040039062 1318.91210938 -430.080078125 c 1,7,-1
 1269.75976562 -260.095703125 l 1,8,9
 1220.60839844 -282.624023438 1220.60839844 -282.624023438 1157.12011719 -282.624023438 c 0,10,11
 1130.49609375 -282.624023438 1130.49609375 -282.624023438 1107.96777344 -266.240234375 c 128,-1,12
 1085.44042969 -249.856445312 1085.44042969 -249.856445312 1085.44042969 -215.040039062 c 0,13,14
 1085.44042969 -152.26171875 1085.44042969 -152.26171875 1135.45019531 -105.268554688 c 128,-1,15
 1185.45898438 -58.2744140625 1185.45898438 -58.2744140625 1296.56738281 0 c 1,16,-1
 1318.91210938 0 l 1,17,-1
 1318.91210938 542.719726562 l 1,18,-1
 993.280273438 542.719726562 l 1,19,-1
 993.280273438 274.431640625 l 1,20,-1
 604.16015625 274.431640625 l 1,21,-1
 604.16015625 624.639648438 l 1,22,-1
 905.215820312 624.639648438 l 1,23,-1
 905.215820312 915.456054688 l 1,24,-1
 604.16015625 915.456054688 l 1,25,-1
 604.16015625 1214.46386719 l 1,26,-1
 993.280273438 1214.46386719 l 1,27,-1
 993.280273438 999.423828125 l 1,28,-1
 1318.91210938 999.423828125 l 1,29,-1
 1318.91210938 1515.51953125 l 1,30,-1
 112.639648438 1515.51953125 l 1,31,-1
 112.639648438 1214.46386719 l 1,32,-1
 272.383789062 1214.46386719 l 1,33,-1
 272.383789062 274.431640625 l 1,34,-1
 112.639648438 274.431640625 l 1,35,-1
 112.639648438 0 l 1,36,-1
 997.875 0 l 1,0,1
EndSplineSet
Fore
SplineSet
998 0 m 1,0,1
 113 0 l 1,2,-1
 113 274 l 1,3,-1
 272 274 l 1,4,-1
 272 1214 l 1,5,-1
 113 1214 l 1,6,-1
 113 1516 l 1,7,-1
 1319 1516 l 1,8,-1
 1319 999 l 1,9,-1
 993 999 l 1,10,-1
 993 1214 l 1,11,-1
 604 1214 l 1,12,-1
 604 915 l 1,13,-1
 905 915 l 1,14,-1
 905 625 l 1,15,-1
 604 625 l 1,16,-1
 604 274 l 1,17,-1
 993 274 l 1,18,-1
 993 543 l 1,19,-1
 1319 543 l 1,20,-1
 1319 0 l 1,21,-1
 1297 0 l 1,22,23
 1185 -58 1185 -58 1135 -105 c 128,-1,24
 1085 -152 1085 -152 1085.5 -217.5 c 128,-1,25
 1086 -283 1086 -283 1176 -283 c 0,26,27
 1221 -283 1221 -283 1270 -260 c 1,28,-1
 1319 -430 l 1,29,30
 1247 -471 1247 -471 1131.5 -471 c 128,-1,31
 1016 -471 1016 -471 933 -414.5 c 128,-1,32
 850 -358 850 -358 850 -260 c 0,33,34
 850 -108 850 -108 998 0 c 1,0,1
EndSplineSet
EndChar

StartChar: Eth
Encoding: 208 208 32
Width: 1468
VWidth: 0
Flags: W
LayerCount: 2
Back
SplineSet
692.223632812 620.543945312 m 1,0,-1
 692.223632812 894.975585938 l 1,1,-1
 534.528320312 894.975585938 l 1,2,-1
 534.528320312 1241.08789062 l 1,3,-1
 661.50390625 1241.08789062 l 2,4,5
 825.34375 1241.08789062 825.34375 1241.08789062 940.032226562 1101.82421875 c 128,-1,6
 1054.71972656 962.559570312 1054.71972656 962.559570312 1054.71972656 759.807617188 c 128,-1,7
 1054.71972656 557.055664062 1054.71972656 557.055664062 940.032226562 415.744140625 c 128,-1,8
 825.34375 274.431640625 825.34375 274.431640625 661.50390625 274.431640625 c 2,9,-1
 534.528320312 274.431640625 l 1,10,-1
 534.528320312 620.543945312 l 1,11,-1
 692.223632812 620.543945312 l 1,0,-1
202.751953125 1241.08789062 m 1,12,-1
 202.751953125 894.975585938 l 1,13,-1
 65.5361328125 894.975585938 l 1,14,-1
 65.5361328125 620.543945312 l 1,15,-1
 202.751953125 620.543945312 l 1,16,-1
 202.751953125 274.431640625 l 1,17,-1
 81.919921875 274.431640625 l 1,18,-1
 81.919921875 0 l 1,19,-1
 663.551757812 0 l 2,20,21
 974.84765625 0 974.84765625 0 1190.91210938 222.208007812 c 128,-1,22
 1406.97558594 444.416015625 1406.97558594 444.416015625 1406.97558594 759.807617188 c 128,-1,23
 1406.97558594 1075.20019531 1406.97558594 1075.20019531 1190.91210938 1295.36035156 c 128,-1,24
 974.84765625 1515.51953125 974.84765625 1515.51953125 663.551757812 1515.51953125 c 2,25,-1
 81.919921875 1515.51953125 l 1,26,-1
 81.919921875 1241.08789062 l 1,27,-1
 202.751953125 1241.08789062 l 1,12,-1
EndSplineSet
Fore
SplineSet
692 621 m 1,0,-1
 535 621 l 1,1,-1
 535 274 l 1,2,-1
 662 274 l 2,3,4
 825 274 825 274 940 415.5 c 128,-1,5
 1055 557 1055 557 1055 760 c 128,-1,6
 1055 963 1055 963 940.5 1102 c 128,-1,7
 826 1241 826 1241 662 1241 c 2,8,-1
 535 1241 l 1,9,-1
 535 895 l 1,10,-1
 692 895 l 1,11,-1
 692 621 l 1,0,-1
203 1241 m 1,12,-1
 82 1241 l 1,13,-1
 82 1516 l 1,14,-1
 664 1516 l 2,15,16
 975 1516 975 1516 1191 1295.5 c 128,-1,17
 1407 1075 1407 1075 1407 759.5 c 128,-1,18
 1407 444 1407 444 1191 222 c 128,-1,19
 975 0 975 0 664 0 c 2,20,21
 82 0 l 1,22,-1
 82 274 l 1,23,-1
 203 274 l 1,24,-1
 203 621 l 1,25,-1
 66 621 l 1,26,-1
 66 895 l 1,27,-1
 203 895 l 1,28,-1
 203 1241 l 1,12,-1
EndSplineSet
EndChar

StartChar: Euro
Encoding: 8364 8364 33
Width: 1554
VWidth: 0
Flags: W
LayerCount: 2
Back
SplineSet
484.708007812 1044.48046875 m 1,0,1
 539.09375 1131.01269531 539.09375 1131.01269531 620.930664062 1180.93066406 c 128,-1,2
 702.766601562 1230.84765625 702.766601562 1230.84765625 798.719726562 1230.84765625 c 0,3,4
 897.024414062 1230.84765625 897.024414062 1230.84765625 978.944335938 1180.671875 c 128,-1,5
 1060.86425781 1130.49609375 1060.86425781 1130.49609375 1105.91992188 1054.71972656 c 1,6,-1
 1415.16796875 1054.71972656 l 1,7,-1
 1415.16796875 1392.63964844 l 1,8,-1
 1239.04003906 1392.63964844 l 1,9,10
 1155.07226562 1460.22363281 1155.07226562 1460.22363281 1035.26367188 1502.20800781 c 128,-1,11
 915.456054688 1544.19238281 915.456054688 1544.19238281 798.719726562 1544.19238281 c 0,12,13
 491.51953125 1544.19238281 491.51953125 1544.19238281 278.528320312 1314.81640625 c 128,-1,14
 65.5361328125 1085.44042969 65.5361328125 1085.44042969 65.5361328125 759.807617188 c 0,15,16
 65.5361328125 432.127929688 65.5361328125 432.127929688 278.528320312 202.751953125 c 128,-1,17
 491.51953125 -26.6240234375 491.51953125 -26.6240234375 798.719726562 -26.6240234375 c 0,18,19
 1036.28808594 -26.6240234375 1036.28808594 -26.6240234375 1212.41601562 101.375976562 c 128,-1,20
 1388.54394531 229.375976562 1388.54394531 229.375976562 1452.03222656 430.080078125 c 1,21,-1
 1130.49609375 520.192382812 l 1,22,23
 1091.58398438 423.935546875 1091.58398438 423.935546875 1001.47167969 356.3515625 c 128,-1,24
 911.360351562 288.767578125 911.360351562 288.767578125 798.719726562 288.767578125 c 0,25,26
 639.994140625 288.767578125 639.994140625 288.767578125 528.662109375 413.696289062 c 1,27,-1
 753.6640625 413.696289062 l 1,28,-1
 901.120117188 698.368164062 l 1,29,-1
 408.68359375 698.368164062 l 1,30,31
 405.50390625 728.823242188 405.50390625 728.823242188 405.50390625 759.807617188 c 1,32,-1
 806.912109375 759.807617188 l 1,33,-1
 954.368164062 1044.48046875 l 1,34,-1
 484.708007812 1044.48046875 l 1,0,1
EndSplineSet
Fore
SplineSet
485 1044 m 1,0,1
 954 1044 l 1,2,-1
 807 760 l 1,3,-1
 406 760 l 1,4,5
 406 728 406 728 409 698 c 1,6,-1
 901 698 l 1,7,-1
 754 414 l 1,8,-1
 529 414 l 1,9,10
 640 289 640 289 799 289 c 0,11,12
 911 289 911 289 1001 356.5 c 128,-1,13
 1091 424 1091 424 1130 520 c 1,14,-1
 1452 430 l 1,15,16
 1389 229 1389 229 1213 101 c 128,-1,17
 1037 -27 1037 -27 799 -27 c 0,18,19
 492 -27 492 -27 279 202.5 c 128,-1,20
 66 432 66 432 66 759 c 0,21,22
 66 1085 66 1085 279 1314.5 c 128,-1,23
 492 1544 492 1544 799 1544 c 0,24,25
 915 1544 915 1544 1035 1502.5 c 128,-1,26
 1155 1461 1155 1461 1239 1393 c 1,27,-1
 1415 1393 l 1,28,-1
 1415 1055 l 1,29,-1
 1106 1055 l 1,30,31
 1061 1130 1061 1130 979 1180.5 c 128,-1,32
 897 1231 897 1231 800 1231 c 128,-1,33
 703 1231 703 1231 621 1181 c 128,-1,34
 539 1131 539 1131 485 1044 c 1,0,1
EndSplineSet
EndChar

StartChar: F
Encoding: 70 70 34
Width: 1286
VWidth: 0
Flags: W
LayerCount: 2
Back
SplineSet
112.639648438 0 m 1,0,-1
 761.856445312 0 l 1,1,-1
 761.856445312 274.431640625 l 1,2,-1
 602.112304688 274.431640625 l 1,3,-1
 602.112304688 602.112304688 l 1,4,-1
 913.408203125 602.112304688 l 1,5,-1
 913.408203125 892.927734375 l 1,6,-1
 602.112304688 892.927734375 l 1,7,-1
 602.112304688 1212.41601562 l 1,8,-1
 960.51171875 1212.41601562 l 1,9,-1
 960.51171875 999.423828125 l 1,10,-1
 1286.14355469 999.423828125 l 1,11,-1
 1286.14355469 1515.51953125 l 1,12,-1
 112.639648438 1515.51953125 l 1,13,-1
 112.639648438 1212.41601562 l 1,14,-1
 270.3359375 1212.41601562 l 1,15,-1
 270.3359375 274.431640625 l 1,16,-1
 112.639648438 274.431640625 l 1,17,-1
 112.639648438 0 l 1,0,-1
EndSplineSet
Fore
SplineSet
113 0 m 1,0,-1
 113 274 l 1,1,-1
 270 274 l 1,2,-1
 270 1212 l 1,3,-1
 113 1212 l 1,4,-1
 113 1516 l 1,5,-1
 1286 1516 l 1,6,-1
 1286 999 l 1,7,-1
 961 999 l 1,8,-1
 961 1212 l 1,9,-1
 602 1212 l 1,10,-1
 602 893 l 1,11,-1
 913 893 l 1,12,-1
 913 602 l 1,13,-1
 602 602 l 1,14,-1
 602 274 l 1,15,-1
 762 274 l 1,16,-1
 762 0 l 1,17,-1
 113 0 l 1,0,-1
EndSplineSet
EndChar

StartChar: G
Encoding: 71 71 35
Width: 1636
VWidth: 0
Flags: W
LayerCount: 2
Back
SplineSet
1511.42382812 618.49609375 m 1,0,-1
 1511.42382812 808.959960938 l 1,1,-1
 808.959960938 808.959960938 l 1,2,-1
 808.959960938 534.528320312 l 1,3,-1
 1098.26074219 534.528320312 l 1,4,5
 1063.53417969 425.774414062 1063.53417969 425.774414062 984.184570312 364.439453125 c 128,-1,6
 904.834960938 303.103515625 904.834960938 303.103515625 798.719726562 303.103515625 c 0,7,8
 632.83203125 303.103515625 632.83203125 303.103515625 518.143554688 436.223632812 c 128,-1,9
 403.456054688 569.34375 403.456054688 569.34375 403.456054688 759.807617188 c 0,10,11
 403.456054688 948.223632812 403.456054688 948.223632812 519.16796875 1091.58398438 c 128,-1,12
 634.879882812 1234.94433594 634.879882812 1234.94433594 798.719726562 1234.94433594 c 0,13,14
 999.423828125 1234.94433594 999.423828125 1234.94433594 1105.91992188 1054.71972656 c 1,15,-1
 1415.16796875 1054.71972656 l 1,16,-1
 1415.16796875 1392.63964844 l 1,17,-1
 1191.890625 1392.63964844 l 1,18,19
 1138.94042969 1438.66992188 1138.94042969 1438.66992188 1097.82617188 1465.82519531 c 128,-1,20
 1056.71191406 1492.98046875 1056.71191406 1492.98046875 976.6796875 1517.5625 c 128,-1,21
 896.647460938 1542.14355469 896.647460938 1542.14355469 798.719726562 1542.14355469 c 0,22,23
 493.568359375 1542.14355469 493.568359375 1542.14355469 279.551757812 1312.76757812 c 128,-1,24
 65.5361328125 1083.39160156 65.5361328125 1083.39160156 65.5361328125 759.807617188 c 0,25,26
 65.5361328125 589.82421875 65.5361328125 589.82421875 125.952148438 437.248046875 c 128,-1,27
 186.368164062 284.671875 186.368164062 284.671875 299.0078125 176.127929688 c 0,28,29
 487.423828125 -6.1435546875 487.423828125 -6.1435546875 757.759765625 -12.2880859375 c 0,30,31
 903.154296875 -15.75 903.154296875 -15.75 1024.11523438 52.2705078125 c 128,-1,32
 1145.07617188 120.290039062 1145.07617188 120.290039062 1212.41601562 261.454101562 c 1,33,-1
 1212.41601562 0 l 1,34,-1
 1511.42382812 0 l 1,35,-1
 1511.42382812 534.528320312 l 1,36,-1
 1511.42382812 618.49609375 l 1,0,-1
EndSplineSet
Fore
SplineSet
1511 0 m 1,0,-1
 1212 0 l 1,1,-1
 1212 261 l 1,2,3
 1145 120 1145 120 1024 52.5 c 128,-1,4
 903 -15 903 -15 758 -12 c 0,5,6
 487 -6 487 -6 299 176 c 0,7,8
 186 285 186 285 126 437.5 c 128,-1,9
 66 590 66 590 66 760 c 0,10,11
 66 1083 66 1083 280 1312.5 c 128,-1,12
 494 1542 494 1542 799 1542 c 0,13,14
 897 1542 897 1542 977 1517.5 c 128,-1,15
 1057 1493 1057 1493 1098 1466 c 128,-1,16
 1139 1439 1139 1439 1192 1393 c 1,17,18
 1415 1393 l 1,19,-1
 1415 1055 l 1,20,-1
 1106 1055 l 1,21,22
 1000 1235 1000 1235 799 1235 c 0,23,24
 635 1235 635 1235 519 1091.5 c 128,-1,25
 403 948 403 948 403 758.5 c 128,-1,26
 403 569 403 569 518 436 c 128,-1,27
 633 303 633 303 799 303 c 0,28,29
 905 303 905 303 984 364.5 c 128,-1,30
 1063 426 1063 426 1098 535 c 1,31,-1
 809 535 l 1,32,-1
 809 809 l 1,33,-1
 1511 809 l 1,34,-1
 1511 0 l 1,0,-1
EndSplineSet
EndChar

StartChar: Gamma
Encoding: 915 915 36
Width: 1304
VWidth: 0
Flags: W
LayerCount: 2
Back
SplineSet
112.639648438 0 m 1,0,-1
 761.856445312 0 l 1,1,-1
 761.856445312 274.431640625 l 1,2,-1
 602.112304688 274.431640625 l 1,3,-1
 602.112304688 1251.328125 l 1,4,-1
 970.751953125 1251.328125 l 1,5,-1
 970.751953125 1054.71972656 l 1,6,-1
 1298.43164062 1054.71972656 l 1,7,-1
 1298.43164062 1515.51953125 l 1,8,-1
 112.639648438 1515.51953125 l 1,9,-1
 112.639648438 1251.328125 l 1,10,-1
 270.3359375 1251.328125 l 1,11,-1
 270.3359375 274.431640625 l 1,12,-1
 112.639648438 274.431640625 l 1,13,-1
 112.639648438 0 l 1,0,-1
EndSplineSet
Fore
SplineSet
113 0 m 1,0,-1
 113 274 l 1,1,-1
 270 274 l 1,2,-1
 270 1251 l 1,3,-1
 113 1251 l 1,4,-1
 113 1516 l 1,5,-1
 1298 1516 l 1,6,-1
 1298 1055 l 1,7,-1
 971 1055 l 1,8,-1
 971 1251 l 1,9,-1
 602 1251 l 1,10,-1
 602 274 l 1,11,-1
 762 274 l 1,12,-1
 762 0 l 1,13,-1
 113 0 l 1,0,-1
EndSplineSet
EndChar

StartChar: H
Encoding: 72 72 39
Width: 1890
VWidth: 0
Flags: W
LayerCount: 2
Back
SplineSet
112.639648438 0 m 1,0,-1
 761.856445312 0 l 1,1,-1
 761.856445312 274.431640625 l 1,2,-1
 602.112304688 274.431640625 l 1,3,-1
 602.112304688 661.50390625 l 1,4,-1
 1286.14355469 661.50390625 l 1,5,-1
 1286.14355469 274.431640625 l 1,6,-1
 1128.44824219 274.431640625 l 1,7,-1
 1128.44824219 0 l 1,8,-1
 1777.6640625 0 l 1,9,-1
 1777.6640625 274.431640625 l 1,10,-1
 1617.91992188 274.431640625 l 1,11,-1
 1617.91992188 1241.08789062 l 1,12,-1
 1777.6640625 1241.08789062 l 1,13,-1
 1777.6640625 1515.51953125 l 1,14,-1
 1128.44824219 1515.51953125 l 1,15,-1
 1128.44824219 1241.08789062 l 1,16,-1
 1286.14355469 1241.08789062 l 1,17,-1
 1286.14355469 925.696289062 l 1,18,-1
 602.112304688 925.696289062 l 1,19,-1
 602.112304688 1241.08789062 l 1,20,-1
 761.856445312 1241.08789062 l 1,21,-1
 761.856445312 1515.51953125 l 1,22,-1
 112.639648438 1515.51953125 l 1,23,-1
 112.639648438 1241.08789062 l 1,24,-1
 270.3359375 1241.08789062 l 1,25,-1
 270.3359375 274.431640625 l 1,26,-1
 112.639648438 274.431640625 l 1,27,-1
 112.639648438 0 l 1,0,-1
EndSplineSet
Fore
SplineSet
113 0 m 1,0,-1
 113 274 l 1,1,-1
 270 274 l 1,2,-1
 270 1241 l 1,3,-1
 113 1241 l 1,4,-1
 113 1516 l 1,5,-1
 762 1516 l 1,6,-1
 762 1241 l 1,7,-1
 602 1241 l 1,8,-1
 602 926 l 1,9,-1
 1286 926 l 1,10,-1
 1286 1241 l 1,11,-1
 1128 1241 l 1,12,-1
 1128 1516 l 1,13,-1
 1778 1516 l 1,14,-1
 1778 1241 l 1,15,-1
 1618 1241 l 1,16,-1
 1618 274 l 1,17,-1
 1778 274 l 1,18,-1
 1778 0 l 1,19,-1
 1128 0 l 1,20,-1
 1128 274 l 1,21,-1
 1286 274 l 1,22,-1
 1286 662 l 1,23,-1
 602 662 l 1,24,-1
 602 274 l 1,25,-1
 762 274 l 1,26,-1
 762 0 l 1,27,-1
 113 0 l 1,0,-1
EndSplineSet
EndChar

StartChar: I
Encoding: 73 73 40
Width: 874
VWidth: 0
Flags: W
LayerCount: 2
Back
SplineSet
112.639648438 0 m 1,0,-1
 761.856445312 0 l 1,1,-1
 761.856445312 274.431640625 l 1,2,-1
 602.112304688 274.431640625 l 1,3,-1
 602.112304688 1241.08789062 l 1,4,-1
 761.856445312 1241.08789062 l 1,5,-1
 761.856445312 1515.51953125 l 1,6,-1
 112.639648438 1515.51953125 l 1,7,-1
 112.639648438 1241.08789062 l 1,8,-1
 270.3359375 1241.08789062 l 1,9,-1
 270.3359375 274.431640625 l 1,10,-1
 112.639648438 274.431640625 l 1,11,-1
 112.639648438 0 l 1,0,-1
EndSplineSet
Fore
SplineSet
113 0 m 1,0,-1
 113 274 l 1,1,-1
 270 274 l 1,2,-1
 270 1241 l 1,3,-1
 113 1241 l 1,4,-1
 113 1516 l 1,5,-1
 762 1516 l 1,6,-1
 762 1241 l 1,7,-1
 602 1241 l 1,8,-1
 602 274 l 1,9,-1
 762 274 l 1,10,-1
 762 0 l 1,11,-1
 113 0 l 1,0,-1
EndSplineSet
EndChar

StartChar: Iogonek
Encoding: 302 302 47
Width: 874
VWidth: 0
Flags: W
LayerCount: 2
Back
SplineSet
440.819335938 0 m 1,0,1
 294.225585938 -109.2421875 294.225585938 -109.2421875 292.864257812 -260.095703125 c 0,2,3
 292.864257812 -360.448242188 292.864257812 -360.448242188 371.711914062 -415.744140625 c 128,-1,4
 450.559570312 -471.040039062 450.559570312 -471.040039062 583.6796875 -471.040039062 c 0,5,6
 690.17578125 -471.040039062 690.17578125 -471.040039062 761.856445312 -430.080078125 c 1,7,-1
 712.704101562 -260.095703125 l 1,8,9
 663.551757812 -282.624023438 663.551757812 -282.624023438 610.303710938 -282.624023438 c 0,10,11
 575.48828125 -282.624023438 575.48828125 -282.624023438 548.864257812 -262.143554688 c 128,-1,12
 522.240234375 -241.6640625 522.240234375 -241.6640625 522.240234375 -198.65625 c 0,13,14
 522.240234375 -114.688476562 522.240234375 -114.688476562 604.16015625 -57.34375 c 128,-1,15
 686.080078125 0 686.080078125 0 770.047851562 0 c 2,16,-1
 788.48046875 0 l 1,17,-1
 794.624023438 0 l 1,18,-1
 794.624023438 274.431640625 l 1,19,-1
 602.112304688 274.431640625 l 1,20,-1
 602.112304688 1241.08789062 l 1,21,-1
 794.624023438 1241.08789062 l 1,22,-1
 794.624023438 1515.51953125 l 1,23,-1
 118.784179688 1515.51953125 l 1,24,-1
 118.784179688 1241.08789062 l 1,25,-1
 270.3359375 1241.08789062 l 1,26,-1
 270.3359375 274.431640625 l 1,27,-1
 118.784179688 274.431640625 l 1,28,-1
 118.784179688 0 l 1,29,-1
 440.819335938 0 l 1,0,1
EndSplineSet
Fore
SplineSet
770 0 m 2,0,1
 686 0 686 0 604 -57.5 c 128,-1,2
 522 -115 522 -115 522.5 -199 c 128,-1,3
 523 -283 523 -283 620 -283 c 0,4,5
 664 -283 664 -283 713 -260 c 1,6,-1
 762 -430 l 1,7,8
 690 -471 690 -471 570.5 -471 c 128,-1,9
 451 -471 451 -471 372 -415.5 c 128,-1,10
 293 -360 293 -360 293 -260 c 0,11,12
 294 -109 294 -109 441 0 c 1,13,14
 119 0 l 1,15,-1
 119 274 l 1,16,-1
 270 274 l 1,17,-1
 270 1241 l 1,18,-1
 119 1241 l 1,19,-1
 119 1516 l 1,20,-1
 795 1516 l 1,21,-1
 795 1241 l 1,22,-1
 602 1241 l 1,23,-1
 602 274 l 1,24,-1
 795 274 l 1,25,-1
 795 0 l 1,26,-1
 770 0 l 2,0,1
EndSplineSet
EndChar

StartChar: J
Encoding: 74 74 48
Width: 686
VWidth: 0
Flags: W
LayerCount: 2
Back
SplineSet
288.767578125 -237.568359375 m 1,0,1
 317.440429688 -204.799804688 317.440429688 -204.799804688 360.448242188 -152.576171875 c 128,-1,2
 403.456054688 -100.3515625 403.456054688 -100.3515625 476.16015625 10.240234375 c 128,-1,3
 548.864257812 120.83203125 548.864257812 120.83203125 548.864257812 172.032226562 c 2,4,-1
 548.864257812 1212.41601562 l 1,5,-1
 655.360351562 1212.41601562 l 1,6,-1
 655.360351562 1515.51953125 l 1,7,-1
 81.919921875 1515.51953125 l 1,8,-1
 81.919921875 1212.41601562 l 1,9,-1
 223.232421875 1212.41601562 l 1,10,-1
 223.232421875 204.799804688 l 2,11,12
 223.232421875 155.6484375 223.232421875 155.6484375 169.984375 49.15234375 c 128,-1,13
 116.736328125 -57.34375 116.736328125 -57.34375 63.48828125 -140.288085938 c 2,14,-1
 10.240234375 -223.232421875 l 1,15,-1
 288.767578125 -237.568359375 l 1,0,1
EndSplineSet
Fore
SplineSet
289 -238 m 1,0,1
 10 -223 l 1,2,-1
 63 -140 l 2,3,4
 117 -57 117 -57 170 49.5 c 128,-1,5
 223 156 223 156 223 205 c 2,6,-1
 223 1212 l 1,7,-1
 82 1212 l 1,8,-1
 82 1516 l 1,9,-1
 655 1516 l 1,10,-1
 655 1212 l 1,11,-1
 549 1212 l 1,12,-1
 549 172 l 2,13,14
 549 121 549 121 468 -2 c 128,-1,15
 387 -125 387 -125 289 -238 c 1,0,1
EndSplineSet
EndChar

StartChar: K
Encoding: 75 75 49
Width: 1654
VWidth: 0
Flags: W
LayerCount: 2
Back
SplineSet
112.639648438 0 m 1,0,-1
 761.856445312 0 l 1,1,-1
 761.856445312 274.431640625 l 1,2,-1
 602.112304688 274.431640625 l 1,3,-1
 602.112304688 784.383789062 l 1,4,-1
 1089.53613281 296.959960938 l 1,5,-1
 1089.53613281 0 l 1,6,-1
 1593.34375 0 l 1,7,-1
 1593.34375 296.959960938 l 1,8,-1
 1470.46386719 296.959960938 l 1,9,-1
 985.965820312 786.985351562 l 1,10,-1
 1490.94433594 1220.60839844 l 1,11,-1
 1603.58398438 1220.60839844 l 1,12,-1
 1603.58398438 1515.51953125 l 1,13,-1
 1087.48828125 1515.51953125 l 1,14,-1
 1087.48828125 1222.65625 l 1,15,-1
 602.112304688 799.713867188 l 1,16,-1
 602.112304688 1241.08789062 l 1,17,-1
 761.856445312 1241.08789062 l 1,18,-1
 761.856445312 1515.51953125 l 1,19,-1
 112.639648438 1515.51953125 l 1,20,-1
 112.639648438 1241.08789062 l 1,21,-1
 270.3359375 1241.08789062 l 1,22,-1
 270.3359375 274.431640625 l 1,23,-1
 112.639648438 274.431640625 l 1,24,-1
 112.639648438 0 l 1,0,-1
EndSplineSet
Fore
SplineSet
113 0 m 1,0,-1
 113 274 l 1,1,-1
 270 274 l 1,2,-1
 270 1241 l 1,3,-1
 113 1241 l 1,4,-1
 113 1516 l 1,5,-1
 762 1516 l 1,6,-1
 762 1241 l 1,7,-1
 602 1241 l 1,8,-1
 602 800 l 1,9,-1
 1087 1223 l 1,10,-1
 1087 1516 l 1,11,-1
 1604 1516 l 1,12,-1
 1604 1221 l 1,13,-1
 1491 1221 l 1,14,-1
 986 787 l 1,15,-1
 1470 297 l 1,16,-1
 1593 297 l 1,17,-1
 1593 0 l 1,18,-1
 1090 0 l 1,19,-1
 1090 297 l 1,20,-1
 602 784 l 1,21,-1
 602 274 l 1,22,-1
 762 274 l 1,23,-1
 762 0 l 1,24,-1
 113 0 l 1,0,-1
EndSplineSet
EndChar

StartChar: L
Encoding: 76 76 51
Width: 1345
VWidth: 0
Flags: W
LayerCount: 2
Back
SplineSet
1001.47167969 557.055664062 m 1,0,-1
 1001.47167969 354.303710938 l 2,1,2
 1001.47167969 327.6796875 1001.47167969 327.6796875 978.944335938 301.055664062 c 128,-1,3
 956.416015625 274.431640625 956.416015625 274.431640625 931.83984375 274.431640625 c 2,4,-1
 602.112304688 274.431640625 l 1,5,-1
 602.112304688 1241.08789062 l 1,6,-1
 761.856445312 1241.08789062 l 1,7,-1
 761.856445312 1515.51953125 l 1,8,-1
 112.639648438 1515.51953125 l 1,9,-1
 112.639648438 1241.08789062 l 1,10,-1
 270.3359375 1241.08789062 l 1,11,-1
 270.3359375 274.431640625 l 1,12,-1
 112.639648438 274.431640625 l 1,13,-1
 112.639648438 0 l 1,14,-1
 1325.05566406 0 l 1,15,-1
 1325.05566406 557.055664062 l 1,16,-1
 1001.47167969 557.055664062 l 1,0,-1
EndSplineSet
Fore
SplineSet
1001 557 m 1,0,-1
 1325 557 l 1,1,-1
 1325 0 l 1,2,-1
 113 0 l 1,3,-1
 113 274 l 1,4,-1
 270 274 l 1,5,-1
 270 1241 l 1,6,-1
 113 1241 l 1,7,-1
 113 1516 l 1,8,-1
 762 1516 l 1,9,-1
 762 1241 l 1,10,-1
 602 1241 l 1,11,-1
 602 274 l 1,12,-1
 932 274 l 2,13,14
 956 274 956 274 978.5 300.5 c 128,-1,15
 1001 327 1001 327 1001 354 c 2,16,-1
 1001 557 l 1,0,-1
EndSplineSet
EndChar

StartChar: Lslash
Encoding: 321 321 55
Width: 1345
VWidth: 0
Flags: W
LayerCount: 2
Back
SplineSet
1001.47167969 557.055664062 m 1,0,-1
 1001.47167969 354.303710938 l 2,1,2
 1001.47167969 327.6796875 1001.47167969 327.6796875 978.944335938 301.055664062 c 128,-1,3
 956.416015625 274.431640625 956.416015625 274.431640625 931.83984375 274.431640625 c 2,4,-1
 602.112304688 274.431640625 l 1,5,-1
 602.112304688 651.747070312 l 1,6,-1
 1091.58398438 882.688476562 l 1,7,-1
 1091.58398438 1198.08007812 l 1,8,-1
 602.112304688 967.138671875 l 1,9,-1
 602.112304688 1241.08789062 l 1,10,-1
 761.856445312 1241.08789062 l 1,11,-1
 761.856445312 1515.51953125 l 1,12,-1
 112.639648438 1515.51953125 l 1,13,-1
 112.639648438 1241.08789062 l 1,14,-1
 270.3359375 1241.08789062 l 1,15,-1
 270.3359375 810.6015625 l 1,16,-1
 110.591796875 735.232421875 l 1,17,-1
 110.591796875 419.83984375 l 1,18,-1
 270.3359375 495.209960938 l 1,19,-1
 270.3359375 274.431640625 l 1,20,-1
 112.639648438 274.431640625 l 1,21,-1
 112.639648438 0 l 1,22,-1
 1325.05566406 0 l 1,23,-1
 1325.05566406 557.055664062 l 1,24,-1
 1001.47167969 557.055664062 l 1,0,-1
EndSplineSet
Fore
SplineSet
1001 557 m 1,0,-1
 1325 557 l 1,1,-1
 1325 0 l 1,2,-1
 113 0 l 1,3,-1
 113 274 l 1,4,-1
 270 274 l 1,5,-1
 270 495 l 1,6,-1
 111 420 l 1,7,-1
 111 735 l 1,8,-1
 270 811 l 1,9,-1
 270 1241 l 1,10,-1
 113 1241 l 1,11,-1
 113 1516 l 1,12,-1
 762 1516 l 1,13,-1
 762 1241 l 1,14,-1
 602 1241 l 1,15,-1
 602 967 l 1,16,-1
 1092 1198 l 1,17,-1
 1092 883 l 1,18,-1
 602 652 l 1,19,-1
 602 274 l 1,20,-1
 932 274 l 2,21,22
 956 274 956 274 978.5 300.5 c 128,-1,23
 1001 327 1001 327 1001 354 c 2,24,-1
 1001 557 l 1,0,-1
EndSplineSet
EndChar

StartChar: M
Encoding: 77 77 56
Width: 2344
VWidth: 0
Flags: W
LayerCount: 2
Back
SplineSet
1662.97558594 0 m 1,0,-1
 2230.27246094 0 l 1,1,-1
 2230.27246094 274.431640625 l 1,2,-1
 2091.0078125 274.431640625 l 1,3,-1
 2091.0078125 1241.08789062 l 1,4,-1
 2232.3203125 1241.08789062 l 1,5,-1
 2232.3203125 1515.51953125 l 1,6,-1
 1599.48828125 1515.51953125 l 1,7,-1
 1184.66796875 421.904296875 l 1,8,-1
 737.280273438 1515.51953125 l 1,9,-1
 112.639648438 1515.51953125 l 1,10,-1
 112.639648438 1241.08789062 l 1,11,-1
 253.952148438 1241.08789062 l 1,12,-1
 253.952148438 274.431640625 l 1,13,-1
 112.639648438 274.431640625 l 1,14,-1
 112.639648438 0 l 1,15,-1
 679.935546875 0 l 1,16,-1
 679.935546875 274.431640625 l 1,17,-1
 567.8984375 274.431640625 l 1,18,-1
 575.413085938 1117.61230469 l 1,19,-1
 1032.19238281 18.431640625 l 1,20,-1
 1312.76757812 18.431640625 l 1,21,-1
 1767.42382812 1147.73925781 l 1,22,-1
 1767.42382812 274.431640625 l 1,23,-1
 1662.97558594 274.431640625 l 1,24,-1
 1662.97558594 0 l 1,0,-1
EndSplineSet
Fore
SplineSet
1663 0 m 1,0,-1
 1663 274 l 1,1,-1
 1767 274 l 1,2,-1
 1767 1148 l 1,3,-1
 1313 18 l 1,4,-1
 1032 18 l 1,5,-1
 575 1118 l 1,6,-1
 568 274 l 1,7,-1
 680 274 l 1,8,-1
 680 0 l 1,9,-1
 113 0 l 1,10,-1
 113 274 l 1,11,-1
 254 274 l 1,12,-1
 254 1241 l 1,13,-1
 113 1241 l 1,14,-1
 113 1516 l 1,15,-1
 737 1516 l 1,16,-1
 1185 422 l 1,17,-1
 1599 1516 l 1,18,-1
 2232 1516 l 1,19,-1
 2232 1241 l 1,20,-1
 2091 1241 l 1,21,-1
 2091 274 l 1,22,-1
 2230 274 l 1,23,-1
 2230 0 l 1,24,-1
 1663 0 l 1,0,-1
EndSplineSet
EndChar

StartChar: N
Encoding: 78 78 57
Width: 1697
VWidth: 0
Flags: W
LayerCount: 2
Back
SplineSet
112.639648438 0 m 1,0,-1
 688.127929688 0 l 1,1,-1
 688.127929688 274.431640625 l 1,2,-1
 561.15234375 274.431640625 l 1,3,-1
 561.15234375 979.728515625 l 1,4,-1
 1191.93554688 0 l 1,5,-1
 1523.71191406 0 l 1,6,-1
 1523.71191406 1241.08789062 l 1,7,-1
 1646.59179688 1241.08789062 l 1,8,-1
 1646.59179688 1515.51953125 l 1,9,-1
 1071.10351562 1515.51953125 l 1,10,-1
 1071.10351562 1241.08789062 l 1,11,-1
 1200.12792969 1241.08789062 l 1,12,-1
 1200.12792969 523.169921875 l 1,13,-1
 573.440429688 1517.56835938 l 1,14,-1
 114.688476562 1517.56835938 l 1,15,-1
 114.688476562 1241.08789062 l 1,16,-1
 237.568359375 1241.08789062 l 1,17,-1
 237.568359375 274.431640625 l 1,18,-1
 112.639648438 274.431640625 l 1,19,-1
 112.639648438 0 l 1,0,-1
EndSplineSet
Fore
SplineSet
113 0 m 1,0,-1
 113 274 l 1,1,-1
 238 274 l 1,2,-1
 238 1241 l 1,3,-1
 115 1241 l 1,4,-1
 115 1518 l 1,5,-1
 573 1518 l 1,6,-1
 1200 523 l 1,7,-1
 1200 1241 l 1,8,-1
 1071 1241 l 1,9,-1
 1071 1516 l 1,10,-1
 1647 1516 l 1,11,-1
 1647 1241 l 1,12,-1
 1524 1241 l 1,13,-1
 1524 0 l 1,14,-1
 1192 0 l 1,15,-1
 561 980 l 1,16,-1
 561 274 l 1,17,-1
 688 274 l 1,18,-1
 688 0 l 1,19,-1
 113 0 l 1,0,-1
EndSplineSet
EndChar

StartChar: O
Encoding: 79 79 63
Width: 1599
VWidth: 0
Flags: W
LayerCount: 2
Back
SplineSet
798.719726562 286.719726562 m 0,0,1
 630.784179688 286.719726562 630.784179688 286.719726562 518.143554688 424.959960938 c 128,-1,2
 405.50390625 563.200195312 405.50390625 563.200195312 405.50390625 757.759765625 c 0,3,4
 405.50390625 954.368164062 405.50390625 954.368164062 518.143554688 1092.60839844 c 128,-1,5
 630.784179688 1230.84765625 630.784179688 1230.84765625 798.719726562 1230.84765625 c 0,6,7
 968.704101562 1230.84765625 968.704101562 1230.84765625 1080.3203125 1092.60839844 c 128,-1,8
 1191.93554688 954.368164062 1191.93554688 954.368164062 1191.93554688 757.759765625 c 128,-1,9
 1191.93554688 561.15234375 1191.93554688 561.15234375 1081.34375 423.935546875 c 128,-1,10
 970.751953125 286.719726562 970.751953125 286.719726562 798.719726562 286.719726562 c 0,0,1
798.719726562 -26.6240234375 m 128,-1,12
 1105.91992188 -26.6240234375 1105.91992188 -26.6240234375 1319.93554688 202.751953125 c 128,-1,13
 1533.95214844 432.127929688 1533.95214844 432.127929688 1533.95214844 757.759765625 c 0,14,15
 1533.95214844 1085.44042969 1533.95214844 1085.44042969 1319.93554688 1314.81640625 c 128,-1,16
 1105.91992188 1544.19238281 1105.91992188 1544.19238281 798.719726562 1544.19238281 c 128,-1,17
 491.51953125 1544.19238281 491.51953125 1544.19238281 278.528320312 1314.81640625 c 128,-1,18
 65.5361328125 1085.44042969 65.5361328125 1085.44042969 65.5361328125 757.759765625 c 0,19,20
 65.5361328125 432.127929688 65.5361328125 432.127929688 278.528320312 202.751953125 c 128,-1,11
 491.51953125 -26.6240234375 491.51953125 -26.6240234375 798.719726562 -26.6240234375 c 128,-1,12
EndSplineSet
Fore
SplineSet
1081.5 424 m 128,-1,1
 1192 561 1192 561 1192 757.5 c 128,-1,2
 1192 954 1192 954 1080.5 1092.5 c 128,-1,3
 969 1231 969 1231 800 1231 c 128,-1,4
 631 1231 631 1231 518.5 1092.5 c 128,-1,5
 406 954 406 954 406 758.5 c 128,-1,6
 406 563 406 563 518.5 425 c 128,-1,7
 631 287 631 287 801 287 c 128,-1,0
 971 287 971 287 1081.5 424 c 128,-1,1
799 -27 m 128,-1,9
 492 -27 492 -27 279 202.5 c 128,-1,10
 66 432 66 432 66 758.5 c 128,-1,11
 66 1085 66 1085 279 1314.5 c 128,-1,12
 492 1544 492 1544 799 1544 c 128,-1,13
 1106 1544 1106 1544 1320 1314.5 c 128,-1,14
 1534 1085 1534 1085 1534 758.5 c 128,-1,15
 1534 432 1534 432 1320 202.5 c 128,-1,8
 1106 -27 1106 -27 799 -27 c 128,-1,9
EndSplineSet
EndChar

StartChar: OE
Encoding: 338 338 64
Width: 2314
VWidth: 0
Flags: W
LayerCount: 2
Back
SplineSet
798.719726562 286.719726562 m 0,0,1
 630.784179688 286.719726562 630.784179688 286.719726562 518.143554688 424.959960938 c 128,-1,2
 405.50390625 563.200195312 405.50390625 563.200195312 405.50390625 757.759765625 c 0,3,4
 405.50390625 954.368164062 405.50390625 954.368164062 518.143554688 1092.60839844 c 128,-1,5
 630.784179688 1230.84765625 630.784179688 1230.84765625 798.719726562 1230.84765625 c 0,6,7
 968.704101562 1230.84765625 968.704101562 1230.84765625 1080.3203125 1092.60839844 c 128,-1,8
 1191.93554688 954.368164062 1191.93554688 954.368164062 1191.93554688 757.759765625 c 128,-1,9
 1191.93554688 561.15234375 1191.93554688 561.15234375 1081.34375 423.935546875 c 128,-1,10
 970.751953125 286.719726562 970.751953125 286.719726562 798.719726562 286.719726562 c 0,0,1
1204.22363281 0 m 1,11,-1
 2252.79980469 0 l 1,12,-1
 2252.79980469 542.719726562 l 1,13,-1
 1927.16796875 542.719726562 l 1,14,-1
 1927.16796875 274.431640625 l 1,15,-1
 1538.04785156 274.431640625 l 1,16,-1
 1538.04785156 624.639648438 l 1,17,-1
 1839.10351562 624.639648438 l 1,18,-1
 1839.10351562 915.456054688 l 1,19,-1
 1538.04785156 915.456054688 l 1,20,-1
 1538.04785156 1214.46386719 l 1,21,-1
 1927.16796875 1214.46386719 l 1,22,-1
 1927.16796875 999.423828125 l 1,23,-1
 2252.79980469 999.423828125 l 1,24,-1
 2252.79980469 1515.51953125 l 1,25,-1
 1204.22363281 1515.51953125 l 1,26,-1
 1204.22363281 1416.09082031 l 1,27,28
 1021.53320312 1544.19238281 1021.53320312 1544.19238281 798.719726562 1544.19238281 c 0,29,30
 491.51953125 1544.19238281 491.51953125 1544.19238281 278.528320312 1314.81640625 c 128,-1,31
 65.5361328125 1085.44042969 65.5361328125 1085.44042969 65.5361328125 757.759765625 c 0,32,33
 65.5361328125 432.127929688 65.5361328125 432.127929688 278.528320312 202.751953125 c 128,-1,34
 491.51953125 -26.6240234375 491.51953125 -26.6240234375 798.719726562 -26.6240234375 c 0,35,36
 1021.44921875 -26.6240234375 1021.44921875 -26.6240234375 1204.22363281 101.375976562 c 1,37,-1
 1204.22363281 0 l 1,11,-1
EndSplineSet
Fore
SplineSet
1081.5 424 m 128,-1,1
 1192 561 1192 561 1192 757.5 c 128,-1,2
 1192 954 1192 954 1080.5 1092.5 c 128,-1,3
 969 1231 969 1231 800 1231 c 128,-1,4
 631 1231 631 1231 518.5 1092.5 c 128,-1,5
 406 954 406 954 406 758.5 c 128,-1,6
 406 563 406 563 518.5 425 c 128,-1,7
 631 287 631 287 801 287 c 128,-1,0
 971 287 971 287 1081.5 424 c 128,-1,1
1204 0 m 1,8,-1
 1204 101 l 1,9,10
 1022 -27 1022 -27 799 -27 c 0,11,12
 492 -27 492 -27 279 202.5 c 128,-1,13
 66 432 66 432 66 758.5 c 128,-1,14
 66 1085 66 1085 279 1314.5 c 128,-1,15
 492 1544 492 1544 799 1544 c 0,16,17
 1021 1544 1021 1544 1204 1416 c 1,18,-1
 1204 1516 l 1,19,-1
 2253 1516 l 1,20,-1
 2253 999 l 1,21,-1
 1927 999 l 1,22,-1
 1927 1214 l 1,23,-1
 1538 1214 l 1,24,-1
 1538 915 l 1,25,-1
 1839 915 l 1,26,-1
 1839 625 l 1,27,-1
 1538 625 l 1,28,-1
 1538 274 l 1,29,-1
 1927 274 l 1,30,-1
 1927 543 l 1,31,-1
 2253 543 l 1,32,-1
 2253 0 l 1,33,-1
 1204 0 l 1,8,-1
EndSplineSet
EndChar

StartChar: P
Encoding: 80 80 74
Width: 1400
VWidth: 0
Flags: W
LayerCount: 2
Back
SplineSet
112.639648438 0 m 1,0,-1
 741.375976562 0 l 1,1,-1
 741.375976562 274.431640625 l 1,2,-1
 602.112304688 274.431640625 l 1,3,-1
 602.112304688 563.200195312 l 1,4,-1
 813.055664062 563.200195312 l 2,5,6
 1077.24804688 563.200195312 1077.24804688 563.200195312 1212.41601562 703.48828125 c 128,-1,7
 1347.58398438 843.776367188 1347.58398438 843.776367188 1347.58398438 1069.05566406 c 0,8,9
 1347.58398438 1249.28027344 1347.58398438 1249.28027344 1195.0078125 1382.40039062 c 128,-1,10
 1042.43164062 1515.51953125 1042.43164062 1515.51953125 813.055664062 1515.51953125 c 2,11,-1
 112.639648438 1515.51953125 l 1,12,-1
 112.639648438 1241.08789062 l 1,13,-1
 270.3359375 1241.08789062 l 1,14,-1
 270.3359375 274.431640625 l 1,15,-1
 112.639648438 274.431640625 l 1,16,-1
 112.639648438 0 l 1,0,-1
602.112304688 833.536132812 m 1,17,-1
 602.112304688 1241.08789062 l 1,18,-1
 739.328125 1241.08789062 l 2,19,20
 860.16015625 1241.08789062 860.16015625 1241.08789062 923.6484375 1186.81640625 c 128,-1,21
 987.135742188 1132.54394531 987.135742188 1132.54394531 987.135742188 1034.24023438 c 0,22,23
 987.135742188 833.536132812 987.135742188 833.536132812 739.328125 833.536132812 c 2,24,-1
 602.112304688 833.536132812 l 1,17,-1
EndSplineSet
Fore
SplineSet
113 0 m 1,0,-1
 113 274 l 1,1,-1
 270 274 l 1,2,-1
 270 1241 l 1,3,-1
 113 1241 l 1,4,-1
 113 1516 l 1,5,-1
 813 1516 l 2,6,7
 1042 1516 1042 1516 1195 1382.5 c 128,-1,8
 1348 1249 1348 1249 1348 1069 c 0,9,10
 1348 844 1348 844 1212.5 703.5 c 128,-1,11
 1077 563 1077 563 813 563 c 2,12,-1
 602 563 l 1,13,-1
 602 274 l 1,14,-1
 741 274 l 1,15,-1
 741 0 l 1,16,-1
 113 0 l 1,0,-1
602 834 m 1,17,-1
 739 834 l 2,18,19
 987 833 987 833 987 1034 c 0,20,21
 987 1133 987 1133 923.5 1187 c 128,-1,22
 860 1241 860 1241 739 1241 c 2,23,-1
 602 1241 l 1,24,-1
 602 834 l 1,17,-1
EndSplineSet
EndChar

StartChar: Pi
Encoding: 928 928 75
Width: 1828
VWidth: 0
Flags: W
LayerCount: 2
Back
SplineSet
112.639648438 0 m 1,0,-1
 761.856445312 0 l 1,1,-1
 761.856445312 274.431640625 l 1,2,-1
 602.112304688 274.431640625 l 1,3,-1
 602.112304688 1243.13574219 l 1,4,-1
 1224.70410156 1243.13574219 l 1,5,-1
 1224.70410156 274.431640625 l 1,6,-1
 1067.0078125 274.431640625 l 1,7,-1
 1067.0078125 0 l 1,8,-1
 1716.22363281 0 l 1,9,-1
 1716.22363281 274.431640625 l 1,10,-1
 1556.48046875 274.431640625 l 1,11,-1
 1556.48046875 1243.13574219 l 1,12,-1
 1716.22363281 1243.13574219 l 1,13,-1
 1716.22363281 1515.51953125 l 1,14,-1
 112.639648438 1515.51953125 l 1,15,-1
 112.639648438 1243.13574219 l 1,16,-1
 270.3359375 1243.13574219 l 1,17,-1
 270.3359375 274.431640625 l 1,18,-1
 112.639648438 274.431640625 l 1,19,-1
 112.639648438 0 l 1,0,-1
EndSplineSet
Fore
SplineSet
113 0 m 1,0,-1
 113 274 l 1,1,-1
 270 274 l 1,2,-1
 270 1243 l 1,3,-1
 113 1243 l 1,4,-1
 113 1516 l 1,5,-1
 1716 1516 l 1,6,-1
 1716 1243 l 1,7,-1
 1556 1243 l 1,8,-1
 1556 274 l 1,9,-1
 1716 274 l 1,10,-1
 1716 0 l 1,11,-1
 1067 0 l 1,12,-1
 1067 274 l 1,13,-1
 1225 274 l 1,14,-1
 1225 1243 l 1,15,-1
 602 1243 l 1,16,-1
 602 274 l 1,17,-1
 762 274 l 1,18,-1
 762 0 l 1,19,-1
 113 0 l 1,0,-1
EndSplineSet
EndChar

StartChar: Q
Encoding: 81 81 76
Width: 1634
VWidth: 0
Flags: W
LayerCount: 2
Back
SplineSet
798.719726562 286.719726562 m 0,0,1
 630.784179688 286.719726562 630.784179688 286.719726562 518.143554688 424.959960938 c 128,-1,2
 405.50390625 563.200195312 405.50390625 563.200195312 405.50390625 757.759765625 c 0,3,4
 405.50390625 954.368164062 405.50390625 954.368164062 518.143554688 1092.60839844 c 128,-1,5
 630.784179688 1230.84765625 630.784179688 1230.84765625 798.719726562 1230.84765625 c 0,6,7
 968.704101562 1230.84765625 968.704101562 1230.84765625 1080.3203125 1092.60839844 c 128,-1,8
 1191.93554688 954.368164062 1191.93554688 954.368164062 1191.93554688 757.759765625 c 128,-1,9
 1191.93554688 561.15234375 1191.93554688 561.15234375 1081.34375 423.935546875 c 128,-1,10
 970.751953125 286.719726562 970.751953125 286.719726562 798.719726562 286.719726562 c 0,0,1
657.408203125 -264.192382812 m 1,11,12
 692.223632812 -251.904296875 692.223632812 -251.904296875 770.047851562 -251.904296875 c 0,13,14
 813.055664062 -251.904296875 813.055664062 -251.904296875 960.51171875 -323.583984375 c 128,-1,15
 1107.96777344 -395.263671875 1107.96777344 -395.263671875 1193.984375 -395.263671875 c 0,16,17
 1341.44042969 -395.263671875 1341.44042969 -395.263671875 1448.95996094 -306.17578125 c 128,-1,18
 1556.48046875 -217.087890625 1556.48046875 -217.087890625 1572.86425781 -73.7275390625 c 1,19,-1
 1349.63183594 36.8642578125 l 1,20,21
 1337.34375 -34.81640625 1337.34375 -34.81640625 1288.19238281 -70.65625 c 128,-1,22
 1239.04003906 -106.49609375 1239.04003906 -106.49609375 1171.45605469 -106.49609375 c 0,23,24
 1142.06347656 -106.013671875 1142.06347656 -106.013671875 1107.81347656 -96.015625 c 128,-1,25
 1073.5625 -86.017578125 1073.5625 -86.017578125 1048.4921875 -74.3544921875 c 128,-1,26
 1023.42089844 -62.6904296875 1023.42089844 -62.6904296875 984.900390625 -43.7548828125 c 128,-1,27
 946.37890625 -24.8193359375 946.37890625 -24.8193359375 924.57421875 -15.462890625 c 1,28,29
 1188.2421875 31.95703125 1188.2421875 31.95703125 1361.09667969 249.735351562 c 128,-1,30
 1533.95214844 467.512695312 1533.95214844 467.512695312 1533.95214844 757.759765625 c 0,31,32
 1533.95214844 1085.44042969 1533.95214844 1085.44042969 1319.93554688 1314.81640625 c 128,-1,33
 1105.91992188 1544.19238281 1105.91992188 1544.19238281 798.719726562 1544.19238281 c 128,-1,34
 491.51953125 1544.19238281 491.51953125 1544.19238281 278.528320312 1314.81640625 c 128,-1,35
 65.5361328125 1085.44042969 65.5361328125 1085.44042969 65.5361328125 757.759765625 c 0,36,37
 65.5361328125 471.768554688 65.5361328125 471.768554688 233.69921875 255.497070312 c 128,-1,38
 401.862304688 39.224609375 401.862304688 39.224609375 659.403320312 -12.77734375 c 1,39,-1
 657.408203125 -264.192382812 l 1,11,12
EndSplineSet
Fore
SplineSet
1081.5 424 m 128,-1,1
 1192 561 1192 561 1192 757.5 c 128,-1,2
 1192 954 1192 954 1080.5 1092.5 c 128,-1,3
 969 1231 969 1231 800 1231 c 128,-1,4
 631 1231 631 1231 518.5 1092.5 c 128,-1,5
 406 954 406 954 406 758.5 c 128,-1,6
 406 563 406 563 518.5 425 c 128,-1,7
 631 287 631 287 801 287 c 128,-1,0
 971 287 971 287 1081.5 424 c 128,-1,1
657 -264 m 1,8,9
 659 -13 l 1,10,11
 402 39 402 39 234 255.5 c 128,-1,12
 66 472 66 472 66 758 c 0,13,14
 66 1085 66 1085 279 1314.5 c 128,-1,15
 492 1544 492 1544 799 1544 c 128,-1,16
 1106 1544 1106 1544 1320 1315 c 128,-1,17
 1534 1086 1534 1086 1534 758 c 0,18,19
 1534 468 1534 468 1361.5 250 c 128,-1,20
 1189 32 1189 32 925 -15 c 1,21,22
 946 -25 946 -25 984.5 -44 c 128,-1,23
 1023 -63 1023 -63 1048.5 -74.5 c 128,-1,24
 1074 -86 1074 -86 1108 -96 c 128,-1,25
 1142 -106 1142 -106 1190.5 -106 c 128,-1,26
 1239 -106 1239 -106 1288.5 -70.5 c 128,-1,27
 1338 -35 1338 -35 1350 37 c 1,28,-1
 1573 -74 l 1,29,30
 1556 -217 1556 -217 1448.5 -306 c 128,-1,31
 1341 -395 1341 -395 1194 -395 c 0,32,33
 1108 -395 1108 -395 960.5 -323.5 c 128,-1,34
 813 -252 813 -252 770 -252 c 0,35,36
 692 -252 692 -252 657 -264 c 1,8,9
EndSplineSet
EndChar

StartChar: R
Encoding: 82 82 77
Width: 1529
VWidth: 0
Flags: W
LayerCount: 2
Back
SplineSet
112.639648438 0 m 1,0,-1
 741.375976562 0 l 1,1,-1
 741.375976562 274.431640625 l 1,2,-1
 602.112304688 274.431640625 l 1,3,-1
 602.112304688 604.16015625 l 1,4,-1
 731.135742188 604.16015625 l 2,5,6
 851.967773438 604.16015625 851.967773438 604.16015625 911.360351562 546.81640625 c 128,-1,7
 970.751953125 489.471679688 970.751953125 489.471679688 989.18359375 360.448242188 c 1,8,-1
 1048.57617188 0 l 1,9,-1
 1488.89648438 0 l 1,10,-1
 1486.84765625 274.431640625 l 1,11,-1
 1361.91992188 274.431640625 l 1,12,-1
 1310.71972656 491.51953125 l 2,13,14
 1273.57324219 652.48828125 1273.57324219 652.48828125 1161.73828125 710.499023438 c 1,15,16
 1287.44726562 771.409179688 1287.44726562 771.409179688 1348.23535156 857.877929688 c 128,-1,17
 1409.02441406 944.34765625 1409.02441406 944.34765625 1409.02441406 1089.53613281 c 0,18,19
 1409.02441406 1265.6640625 1409.02441406 1265.6640625 1274.87988281 1390.59179688 c 128,-1,20
 1140.73632812 1515.51953125 1140.73632812 1515.51953125 915.456054688 1515.51953125 c 2,21,-1
 112.639648438 1515.51953125 l 1,22,-1
 112.639648438 1241.08789062 l 1,23,-1
 270.3359375 1241.08789062 l 1,24,-1
 270.3359375 274.431640625 l 1,25,-1
 112.639648438 274.431640625 l 1,26,-1
 112.639648438 0 l 1,0,-1
602.112304688 874.49609375 m 1,27,-1
 602.112304688 1241.08789062 l 1,28,-1
 800.767578125 1241.08789062 l 2,29,30
 921.599609375 1241.08789062 921.599609375 1241.08789062 985.087890625 1191.93554688 c 128,-1,31
 1048.57617188 1142.78417969 1048.57617188 1142.78417969 1048.57617188 1054.71972656 c 0,32,33
 1048.57617188 874.49609375 1048.57617188 874.49609375 800.767578125 874.49609375 c 2,34,-1
 602.112304688 874.49609375 l 1,27,-1
EndSplineSet
Fore
SplineSet
113 0 m 1,0,-1
 113 274 l 1,1,-1
 270 274 l 1,2,-1
 270 1241 l 1,3,-1
 113 1241 l 1,4,-1
 113 1516 l 1,5,-1
 915 1516 l 2,6,7
 1141 1516 1141 1516 1275 1391 c 128,-1,8
 1409 1266 1409 1266 1409 1105 c 128,-1,9
 1409 944 1409 944 1348.5 857.5 c 128,-1,10
 1288 771 1288 771 1162 710 c 1,11,12
 1274 653 1274 653 1311 492 c 2,13,14
 1362 274 l 1,15,-1
 1487 274 l 1,16,-1
 1489 0 l 1,17,-1
 1049 0 l 1,18,-1
 989 360 l 1,19,20
 971 489 971 489 911.5 546.5 c 128,-1,21
 852 604 852 604 731 604 c 2,22,-1
 602 604 l 1,23,-1
 602 274 l 1,24,-1
 741 274 l 1,25,-1
 741 0 l 1,26,-1
 113 0 l 1,0,-1
602 874 m 1,27,-1
 801 874 l 2,28,29
 1049 875 1049 875 1049 1055 c 0,30,31
 1049 1143 1049 1143 985.5 1192 c 128,-1,32
 922 1241 922 1241 801 1241 c 2,33,-1
 602 1241 l 1,34,-1
 602 874 l 1,27,-1
EndSplineSet
EndChar

StartChar: Rastick
Encoding: 65540 -1 79
Width: 618
VWidth: 0
Flags: W
LayerCount: 2
Back
SplineSet
167.935546875 30.7197265625 m 1,0,-1
 534.528320312 399.360351562 l 1,1,-1
 421.887695312 512 l 1,2,-1
 55.2958984375 141.311523438 l 1,3,-1
 167.935546875 30.7197265625 l 1,0,-1
EndSplineSet
Fore
SplineSet
168 31 m 1,0,-1
 55 141 l 1,1,-1
 422 512 l 1,2,-1
 535 399 l 1,3,-1
 168 31 l 1,0,-1
EndSplineSet
EndChar

StartChar: S
Encoding: 83 83 82
Width: 1245
VWidth: 0
Flags: W
LayerCount: 2
Back
SplineSet
841.727539062 1001.47167969 m 1,0,-1
 1204.22363281 1001.47167969 l 1,1,-1
 1204.22363281 1302.52832031 l 1,2,-1
 1104.0390625 1302.52832031 l 1,3,4
 1072.85351562 1371.6953125 1072.85351562 1371.6953125 1007.78417969 1428.90625 c 128,-1,5
 942.713867188 1486.1171875 942.713867188 1486.1171875 840.149414062 1523.34667969 c 128,-1,6
 737.584960938 1560.57617188 737.584960938 1560.57617188 618.49609375 1560.57617188 c 0,7,8
 376.83203125 1560.57617188 376.83203125 1560.57617188 227.328125 1440.76757812 c 128,-1,9
 77.82421875 1320.95996094 77.82421875 1320.95996094 77.82421875 1107.96777344 c 0,10,11
 77.82421875 933.887695312 77.82421875 933.887695312 172.032226562 824.3203125 c 128,-1,12
 266.240234375 714.751953125 266.240234375 714.751953125 411.6484375 669.696289062 c 2,13,-1
 641.024414062 595.967773438 l 2,14,15
 698.368164062 577.536132812 698.368164062 577.536132812 728.064453125 565.248046875 c 128,-1,16
 757.759765625 552.959960938 757.759765625 552.959960938 789.50390625 519.16796875 c 128,-1,17
 821.248046875 485.375976562 821.248046875 485.375976562 821.248046875 438.272460938 c 0,18,19
 821.248046875 364.543945312 821.248046875 364.543945312 773.120117188 322.559570312 c 128,-1,20
 724.9921875 280.576171875 724.9921875 280.576171875 636.927734375 280.576171875 c 0,21,22
 522.240234375 280.576171875 522.240234375 280.576171875 462.84765625 337.919921875 c 128,-1,23
 403.456054688 395.263671875 403.456054688 395.263671875 403.456054688 489.471679688 c 2,24,-1
 403.456054688 550.912109375 l 1,25,-1
 40.9599609375 550.912109375 l 1,26,-1
 40.9599609375 249.856445312 l 1,27,-1
 143.798828125 249.856445312 l 1,28,29
 198.32421875 120.408203125 198.32421875 120.408203125 330.844726562 44.84375 c 128,-1,30
 463.366210938 -30.7197265625 463.366210938 -30.7197265625 636.927734375 -30.7197265625 c 0,31,32
 884.736328125 -30.7197265625 884.736328125 -30.7197265625 1038.3359375 106.49609375 c 128,-1,33
 1191.93554688 243.711914062 1191.93554688 243.711914062 1191.93554688 462.84765625 c 0,34,35
 1191.93554688 616.448242188 1191.93554688 616.448242188 1117.18359375 718.84765625 c 128,-1,36
 1042.43164062 821.248046875 1042.43164062 821.248046875 919.551757812 864.255859375 c 2,37,-1
 645.120117188 956.416015625 l 2,38,39
 632.83203125 960.51171875 632.83203125 960.51171875 598.015625 970.751953125 c 128,-1,40
 563.200195312 980.9921875 563.200195312 980.9921875 547.83984375 986.112304688 c 128,-1,41
 532.48046875 991.232421875 532.48046875 991.232421875 505.856445312 1004.54394531 c 128,-1,42
 479.232421875 1017.85644531 479.232421875 1017.85644531 467.967773438 1032.19238281 c 128,-1,43
 456.704101562 1046.52832031 456.704101562 1046.52832031 446.463867188 1069.05566406 c 128,-1,44
 436.223632812 1091.58398438 436.223632812 1091.58398438 436.223632812 1120.25585938 c 0,45,46
 436.223632812 1189.88769531 436.223632812 1189.88769531 487.423828125 1223.6796875 c 128,-1,47
 538.624023438 1257.47167969 538.624023438 1257.47167969 618.49609375 1257.47167969 c 0,48,49
 701.645507812 1257.47167969 701.645507812 1257.47167969 767.135742188 1208.91015625 c 128,-1,50
 832.625976562 1160.34863281 832.625976562 1160.34863281 841.727539062 1090.70117188 c 1,51,-1
 841.727539062 1052.671875 l 1,52,-1
 841.727539062 1001.47167969 l 1,0,-1
EndSplineSet
Fore
SplineSet
842 1001 m 1,0,-1
 842 1091 l 1,1,2
 833 1160 833 1160 767.5 1208.5 c 128,-1,3
 702 1257 702 1257 620.5 1257 c 128,-1,4
 539 1257 539 1257 487.5 1223.5 c 128,-1,5
 436 1190 436 1190 436 1131 c 128,-1,6
 436 1072 436 1072 468 1032 c 0,7,8
 479 1018 479 1018 505.5 1004.5 c 128,-1,9
 532 991 532 991 547.5 986 c 128,-1,10
 563 981 563 981 598 970.5 c 128,-1,11
 633 960 633 960 645 956 c 2,12,-1
 920 864 l 2,13,14
 1042 821 1042 821 1117 719 c 128,-1,15
 1192 617 1192 617 1192 463 c 0,16,17
 1192 244 1192 244 1038.5 106.5 c 128,-1,18
 885 -31 885 -31 637 -31 c 0,19,20
 463 -31 463 -31 331 45 c 128,-1,21
 199 121 199 121 144 250 c 1,22,-1
 41 250 l 1,23,-1
 41 551 l 1,24,-1
 403 551 l 1,25,-1
 403 489 l 2,26,27
 403 395 403 395 462.5 338 c 128,-1,28
 522 281 522 281 623.5 281 c 128,-1,29
 725 281 725 281 773 323 c 128,-1,30
 821 365 821 365 821 425 c 128,-1,31
 821 485 821 485 789.5 519 c 128,-1,32
 758 553 758 553 728 565.5 c 128,-1,33
 698 578 698 578 641 596 c 2,34,-1
 412 670 l 2,35,36
 266 715 266 715 172 824.5 c 128,-1,37
 78 934 78 934 78 1108 c 0,38,39
 78 1321 78 1321 227 1441 c 128,-1,40
 376 1561 376 1561 618 1561 c 0,41,42
 737 1560 737 1560 840 1523 c 0,43,44
 1037 1452 1037 1452 1104 1303 c 1,45,-1
 1204 1303 l 1,46,-1
 1204 1001 l 1,47,-1
 842 1001 l 1,0,-1
EndSplineSet
EndChar

StartChar: T
Encoding: 84 84 88
Width: 1419
VWidth: 0
Flags: W
LayerCount: 2
Back
SplineSet
372.736328125 0 m 1,0,-1
 1021.95214844 0 l 1,1,-1
 1021.95214844 274.431640625 l 1,2,-1
 862.208007812 274.431640625 l 1,3,-1
 862.208007812 1251.328125 l 1,4,-1
 1071.10351562 1251.328125 l 1,5,-1
 1071.10351562 1054.71972656 l 1,6,-1
 1398.78417969 1054.71972656 l 1,7,-1
 1398.78417969 1515.51953125 l 1,8,-1
 20.48046875 1515.51953125 l 1,9,-1
 20.48046875 1054.71972656 l 1,10,-1
 346.112304688 1054.71972656 l 1,11,-1
 346.112304688 1251.328125 l 1,12,-1
 530.431640625 1251.328125 l 1,13,-1
 530.431640625 274.431640625 l 1,14,-1
 372.736328125 274.431640625 l 1,15,-1
 372.736328125 0 l 1,0,-1
EndSplineSet
Fore
SplineSet
373 0 m 1,0,-1
 373 274 l 1,1,-1
 530 274 l 1,2,-1
 530 1251 l 1,3,-1
 346 1251 l 1,4,-1
 346 1055 l 1,5,-1
 20 1055 l 1,6,-1
 20 1516 l 1,7,-1
 1399 1516 l 1,8,-1
 1399 1055 l 1,9,-1
 1071 1055 l 1,10,-1
 1071 1251 l 1,11,-1
 862 1251 l 1,12,-1
 862 274 l 1,13,-1
 1022 274 l 1,14,-1
 1022 0 l 1,15,-1
 373 0 l 1,0,-1
EndSplineSet
EndChar

StartChar: Thorn
Encoding: 222 222 91
Width: 1449
VWidth: 0
Flags: W
LayerCount: 2
Back
SplineSet
112.639648438 0 m 1,0,-1
 761.856445312 0 l 1,1,-1
 761.856445312 274.431640625 l 1,2,-1
 602.112304688 274.431640625 l 1,3,-1
 602.112304688 323.583984375 l 1,4,-1
 813.055664062 323.583984375 l 2,5,6
 1075.20019531 323.583984375 1075.20019531 323.583984375 1211.39160156 448.51171875 c 128,-1,7
 1347.58398438 573.440429688 1347.58398438 573.440429688 1347.58398438 755.711914062 c 0,8,9
 1347.58398438 942.080078125 1347.58398438 942.080078125 1196.03222656 1068.03222656 c 128,-1,10
 1044.48046875 1193.984375 1044.48046875 1193.984375 813.055664062 1193.984375 c 2,11,-1
 602.112304688 1193.984375 l 1,12,-1
 602.112304688 1241.08789062 l 1,13,-1
 761.856445312 1241.08789062 l 1,14,-1
 761.856445312 1515.51953125 l 1,15,-1
 112.639648438 1515.51953125 l 1,16,-1
 112.639648438 1241.08789062 l 1,17,-1
 270.3359375 1241.08789062 l 1,18,-1
 270.3359375 274.431640625 l 1,19,-1
 112.639648438 274.431640625 l 1,20,-1
 112.639648438 0 l 1,0,-1
602.112304688 593.919921875 m 1,21,-1
 602.112304688 919.551757812 l 1,22,-1
 739.328125 919.551757812 l 2,23,24
 860.16015625 919.551757812 860.16015625 919.551757812 923.6484375 876.543945312 c 128,-1,25
 987.135742188 833.536132812 987.135742188 833.536132812 987.135742188 753.6640625 c 0,26,27
 987.135742188 593.919921875 987.135742188 593.919921875 739.328125 593.919921875 c 2,28,-1
 602.112304688 593.919921875 l 1,21,-1
EndSplineSet
Fore
SplineSet
113 0 m 1,0,-1
 113 274 l 1,1,-1
 270 274 l 1,2,-1
 270 1241 l 1,3,-1
 113 1241 l 1,4,-1
 113 1516 l 1,5,-1
 762 1516 l 1,6,-1
 762 1241 l 1,7,-1
 602 1241 l 1,8,-1
 602 1194 l 1,9,-1
 813 1194 l 2,10,11
 1044 1194 1044 1194 1196 1068 c 128,-1,12
 1348 942 1348 942 1348 758 c 0,13,14
 1348 573 1348 573 1211.5 448.5 c 128,-1,15
 1075 324 1075 324 813 324 c 2,16,-1
 602 324 l 1,17,-1
 602 274 l 1,18,-1
 762 274 l 1,19,-1
 762 0 l 1,20,-1
 113 0 l 1,0,-1
602 594 m 1,21,-1
 739 594 l 2,22,23
 987 594 987 594 987 754 c 0,24,25
 987 834 987 834 923.5 877 c 128,-1,26
 860 920 860 920 739 920 c 2,27,-1
 602 920 l 1,28,-1
 602 594 l 1,21,-1
EndSplineSet
EndChar

StartChar: U
Encoding: 85 85 92
Width: 1560
VWidth: 0
Flags: W
LayerCount: 2
Back
SplineSet
1044.48046875 1241.08789062 m 1,0,-1
 1044.48046875 612.3515625 l 2,1,2
 1044.48046875 438.272460938 1044.48046875 438.272460938 976.896484375 366.591796875 c 128,-1,3
 909.311523438 294.912109375 909.311523438 294.912109375 782.3359375 294.912109375 c 0,4,5
 661.50390625 294.912109375 661.50390625 294.912109375 590.84765625 371.711914062 c 128,-1,6
 520.192382812 448.51171875 520.192382812 448.51171875 520.192382812 612.3515625 c 2,7,-1
 520.192382812 1241.08789062 l 1,8,-1
 659.456054688 1241.08789062 l 1,9,-1
 659.456054688 1515.51953125 l 1,10,-1
 51.2001953125 1515.51953125 l 1,11,-1
 51.2001953125 1241.08789062 l 1,12,-1
 188.416015625 1241.08789062 l 1,13,-1
 188.416015625 632.83203125 l 2,14,15
 188.416015625 333.82421875 188.416015625 333.82421875 356.3515625 156.671875 c 128,-1,16
 524.288085938 -20.48046875 524.288085938 -20.48046875 776.192382812 -20.48046875 c 0,17,18
 1034.24023438 -20.48046875 1034.24023438 -20.48046875 1202.17578125 159.744140625 c 128,-1,19
 1370.11230469 339.967773438 1370.11230469 339.967773438 1370.11230469 651.263671875 c 2,20,-1
 1370.11230469 1241.08789062 l 1,21,-1
 1490.94433594 1241.08789062 l 1,22,-1
 1490.94433594 1515.51953125 l 1,23,-1
 882.688476562 1515.51953125 l 1,24,-1
 882.688476562 1241.08789062 l 1,25,-1
 1044.48046875 1241.08789062 l 1,0,-1
EndSplineSet
Fore
SplineSet
1044 1241 m 1,0,-1
 883 1241 l 1,1,-1
 883 1516 l 1,2,-1
 1491 1516 l 1,3,-1
 1491 1241 l 1,4,-1
 1370 1241 l 1,5,-1
 1370 651 l 2,6,7
 1370 340 1370 340 1202 160 c 128,-1,8
 1034 -20 1034 -20 779 -20 c 128,-1,9
 524 -20 524 -20 356 157 c 128,-1,10
 188 334 188 334 188 633 c 2,11,-1
 188 1241 l 1,12,-1
 51 1241 l 1,13,-1
 51 1516 l 1,14,-1
 659 1516 l 1,15,-1
 659 1241 l 1,16,-1
 520 1241 l 1,17,-1
 520 612 l 2,18,19
 520 449 520 449 590.5 372 c 128,-1,20
 661 295 661 295 785 295 c 128,-1,21
 909 295 909 295 976.5 366.5 c 128,-1,22
 1044 438 1044 438 1044 612 c 2,23,-1
 1044 1241 l 1,0,-1
EndSplineSet
EndChar

StartChar: Uogonek
Encoding: 370 370 99
Width: 1560
VWidth: 0
Flags: W
LayerCount: 2
Back
SplineSet
1370.11230469 1241.08789062 m 1,0,-1
 1490.94433594 1241.08789062 l 1,1,-1
 1490.94433594 1515.51953125 l 1,2,-1
 882.688476562 1515.51953125 l 1,3,-1
 882.688476562 1241.08789062 l 1,4,-1
 1044.48046875 1241.08789062 l 1,5,-1
 1044.48046875 612.3515625 l 2,6,7
 1044.48046875 438.272460938 1044.48046875 438.272460938 976.896484375 366.591796875 c 128,-1,8
 909.311523438 294.912109375 909.311523438 294.912109375 782.3359375 294.912109375 c 0,9,10
 661.50390625 294.912109375 661.50390625 294.912109375 590.84765625 371.711914062 c 128,-1,11
 520.192382812 448.51171875 520.192382812 448.51171875 520.192382812 612.3515625 c 2,12,-1
 520.192382812 1241.08789062 l 1,13,-1
 659.456054688 1241.08789062 l 1,14,-1
 659.456054688 1515.51953125 l 1,15,-1
 51.2001953125 1515.51953125 l 1,16,-1
 51.2001953125 1241.08789062 l 1,17,-1
 188.416015625 1241.08789062 l 1,18,-1
 188.416015625 632.83203125 l 2,19,20
 188.416015625 333.82421875 188.416015625 333.82421875 356.3515625 156.671875 c 128,-1,21
 524.288085938 -20.48046875 524.288085938 -20.48046875 776.192382812 -20.48046875 c 0,22,23
 800.412109375 -20.48046875 800.412109375 -20.48046875 824.194335938 -18.7353515625 c 1,24,25
 741.375976562 -129.44921875 741.375976562 -129.44921875 741.375976562 -237.568359375 c 0,26,27
 741.375976562 -360.448242188 741.375976562 -360.448242188 828.416015625 -415.744140625 c 128,-1,28
 915.456054688 -471.040039062 915.456054688 -471.040039062 1038.3359375 -471.040039062 c 0,29,30
 1167.36035156 -471.040039062 1167.36035156 -471.040039062 1245.18359375 -415.744140625 c 1,31,-1
 1196.03222656 -249.856445312 l 1,32,33
 1124.3515625 -282.624023438 1124.3515625 -282.624023438 1075.20019531 -282.624023438 c 0,34,35
 1034.24023438 -282.624023438 1034.24023438 -282.624023438 1005.56835938 -260.095703125 c 128,-1,36
 976.896484375 -237.568359375 976.896484375 -237.568359375 976.896484375 -194.559570312 c 0,37,38
 976.896484375 -107.086914062 976.896484375 -107.086914062 1018.30566406 -41.4189453125 c 128,-1,39
 1059.71582031 24.2490234375 1059.71582031 24.2490234375 1147.68945312 108.485351562 c 1,40,41
 1252.82128906 196.0234375 1252.82128906 196.0234375 1311.46679688 334.303710938 c 128,-1,42
 1370.11230469 472.584960938 1370.11230469 472.584960938 1370.11230469 651.263671875 c 2,43,-1
 1370.11230469 1241.08789062 l 1,0,-1
EndSplineSet
Fore
SplineSet
1370 1241 m 1,0,-1
 1370 651 l 2,1,2
 1370 473 1370 473 1311.5 334.5 c 128,-1,3
 1253 196 1253 196 1148 108 c 1,4,5
 1060 24 1060 24 1018.5 -42 c 128,-1,6
 977 -108 977 -108 977 -195 c 0,7,8
 977 -238 977 -238 1005.5 -260.5 c 128,-1,9
 1034 -283 1034 -283 1079 -283 c 128,-1,10
 1124 -283 1124 -283 1196 -250 c 1,11,-1
 1245 -416 l 1,12,13
 1167 -471 1167 -471 1041 -471 c 128,-1,14
 915 -471 915 -471 828 -416 c 128,-1,15
 741 -361 741 -361 741 -245 c 0,16,17
 741 -130 741 -130 824 -19 c 1,18,19
 800 -20 800 -20 776 -20 c 0,20,21
 524 -20 524 -20 356 157 c 128,-1,22
 188 334 188 334 188 633 c 2,23,-1
 188 1241 l 1,24,-1
 51 1241 l 1,25,-1
 51 1516 l 1,26,-1
 659 1516 l 1,27,-1
 659 1241 l 1,28,-1
 520 1241 l 1,29,-1
 520 612 l 2,30,31
 520 449 520 449 590.5 372 c 128,-1,32
 661 295 661 295 785 295 c 128,-1,33
 909 295 909 295 976.5 366.5 c 128,-1,34
 1044 438 1044 438 1044 612 c 2,35,-1
 1044 1241 l 1,36,-1
 883 1241 l 1,37,-1
 883 1516 l 1,38,-1
 1491 1516 l 1,39,-1
 1491 1241 l 1,40,-1
 1370 1241 l 1,0,-1
EndSplineSet
EndChar

StartChar: V
Encoding: 86 86 101
Width: 1529
VWidth: 0
Flags: W
LayerCount: 2
Back
SplineSet
559.103515625 0 m 1,0,-1
 968.704101562 0 l 1,1,-1
 1374.54882812 1241.08789062 l 1,2,-1
 1509.37597656 1241.08789062 l 1,3,-1
 1509.37597656 1515.51953125 l 1,4,-1
 860.16015625 1515.51953125 l 1,5,-1
 860.16015625 1241.08789062 l 1,6,-1
 1035.83203125 1241.08789062 l 1,7,-1
 772.095703125 380.927734375 l 1,8,-1
 508.359375 1241.08789062 l 1,9,-1
 669.696289062 1241.08789062 l 1,10,-1
 669.696289062 1515.51953125 l 1,11,-1
 20.48046875 1515.51953125 l 1,12,-1
 20.48046875 1241.08789062 l 1,13,-1
 165.94140625 1241.08789062 l 1,14,-1
 559.103515625 0 l 1,0,-1
EndSplineSet
Fore
SplineSet
559 0 m 1,0,-1
 166 1241 l 1,1,-1
 20 1241 l 1,2,-1
 20 1516 l 1,3,-1
 670 1516 l 1,4,-1
 670 1241 l 1,5,-1
 508 1241 l 1,6,-1
 772 381 l 1,7,-1
 1036 1241 l 1,8,-1
 860 1241 l 1,9,-1
 860 1516 l 1,10,-1
 1509 1516 l 1,11,-1
 1509 1241 l 1,12,-1
 1375 1241 l 1,13,-1
 969 0 l 1,14,-1
 559 0 l 1,0,-1
EndSplineSet
EndChar

StartChar: W
Encoding: 87 87 102
Width: 2357
VWidth: 0
Flags: W
LayerCount: 2
Back
SplineSet
528.383789062 0 m 1,0,-1
 956.416015625 0 l 1,1,-1
 1189.88769531 946.17578125 l 1,2,-1
 1419.26367188 0 l 1,3,-1
 1851.39160156 0 l 1,4,-1
 2200.07910156 1241.08789062 l 1,5,-1
 2336.76757812 1241.08789062 l 1,6,-1
 2336.76757812 1515.51953125 l 1,7,-1
 1687.55175781 1515.51953125 l 1,8,-1
 1687.55175781 1241.08789062 l 1,9,-1
 1864.53710938 1241.08789062 l 1,10,-1
 1640.44824219 423.935546875 l 1,11,-1
 1376.25585938 1513.47167969 l 1,12,-1
 1003.51953125 1513.47167969 l 1,13,-1
 735.232421875 423.935546875 l 1,14,-1
 512.01953125 1241.08789062 l 1,15,-1
 669.696289062 1241.08789062 l 1,16,-1
 669.696289062 1515.51953125 l 1,17,-1
 20.48046875 1515.51953125 l 1,18,-1
 20.48046875 1241.08789062 l 1,19,-1
 172.658203125 1241.08789062 l 1,20,-1
 528.383789062 0 l 1,0,-1
EndSplineSet
Fore
SplineSet
528 0 m 1,0,-1
 173 1241 l 1,1,-1
 20 1241 l 1,2,-1
 20 1516 l 1,3,-1
 670 1516 l 1,4,-1
 670 1241 l 1,5,-1
 512 1241 l 1,6,-1
 735 424 l 1,7,-1
 1004 1513 l 1,8,-1
 1376 1513 l 1,9,-1
 1640 424 l 1,10,-1
 1865 1241 l 1,11,-1
 1688 1241 l 1,12,-1
 1688 1516 l 1,13,-1
 2337 1516 l 1,14,-1
 2337 1241 l 1,15,-1
 2200 1241 l 1,16,-1
 1851 0 l 1,17,-1
 1419 0 l 1,18,-1
 1190 946 l 1,19,-1
 956 0 l 1,20,-1
 528 0 l 1,0,-1
EndSplineSet
EndChar

StartChar: X
Encoding: 88 88 103
Width: 1576
VWidth: 0
Flags: W
LayerCount: 2
Back
SplineSet
32.767578125 0 m 1,0,-1
 675.83984375 0 l 1,1,-1
 675.83984375 274.431640625 l 1,2,-1
 539.359375 274.431640625 l 1,3,-1
 771.43359375 521.693359375 l 1,4,-1
 1002.68164062 274.431640625 l 1,5,-1
 854.015625 274.431640625 l 1,6,-1
 854.015625 0 l 1,7,-1
 1497.08789062 0 l 1,8,-1
 1497.08789062 274.431640625 l 1,9,-1
 1444.40820312 274.431640625 l 1,10,-1
 990.448242188 755.041015625 l 1,11,-1
 1446.64257812 1241.08789062 l 1,12,-1
 1501.18359375 1241.08789062 l 1,13,-1
 1501.18359375 1515.51953125 l 1,14,-1
 858.112304688 1515.51953125 l 1,15,-1
 858.112304688 1241.08789062 l 1,16,-1
 1007.45019531 1241.08789062 l 1,17,-1
 770.415039062 987.991210938 l 1,18,-1
 531.352539062 1241.08789062 l 1,19,-1
 679.935546875 1241.08789062 l 1,20,-1
 679.935546875 1515.51953125 l 1,21,-1
 36.8642578125 1515.51953125 l 1,22,-1
 36.8642578125 1241.08789062 l 1,23,-1
 98.6279296875 1241.08789062 l 1,24,-1
 552.723632812 755.547851562 l 1,25,-1
 102.139648438 274.431640625 l 1,26,-1
 32.767578125 274.431640625 l 1,27,-1
 32.767578125 0 l 1,0,-1
EndSplineSet
Fore
SplineSet
33 0 m 1,0,-1
 33 274 l 1,1,-1
 102 274 l 1,2,-1
 553 756 l 1,3,-1
 99 1241 l 1,4,-1
 37 1241 l 1,5,-1
 37 1516 l 1,6,-1
 680 1516 l 1,7,-1
 680 1241 l 1,8,-1
 531 1241 l 1,9,-1
 770 988 l 1,10,-1
 1007 1241 l 1,11,-1
 858 1241 l 1,12,-1
 858 1516 l 1,13,-1
 1501 1516 l 1,14,-1
 1501 1241 l 1,15,-1
 1447 1241 l 1,16,-1
 990 755 l 1,17,-1
 1444 274 l 1,18,-1
 1497 274 l 1,19,-1
 1497 0 l 1,20,-1
 854 0 l 1,21,-1
 854 274 l 1,22,-1
 1003 274 l 1,23,-1
 771 522 l 1,24,-1
 539 274 l 1,25,-1
 676 274 l 1,26,-1
 676 0 l 1,27,-1
 33 0 l 1,0,-1
EndSplineSet
EndChar

StartChar: Y
Encoding: 89 89 104
Width: 1536
VWidth: 0
Flags: W
LayerCount: 2
Back
SplineSet
436.223632812 0 m 1,0,-1
 1112.06445312 0 l 1,1,-1
 1112.06445312 274.431640625 l 1,2,-1
 927.744140625 274.431640625 l 1,3,-1
 927.744140625 628.913085938 l 1,4,-1
 1378.52734375 1241.08789062 l 1,5,-1
 1490.94433594 1241.08789062 l 1,6,-1
 1490.94433594 1515.51953125 l 1,7,-1
 841.727539062 1515.51953125 l 1,8,-1
 841.727539062 1241.08789062 l 1,9,-1
 987.250976562 1241.08789062 l 1,10,-1
 772.095703125 892.927734375 l 1,11,-1
 569.002929688 1241.08789062 l 1,12,-1
 696.3203125 1241.08789062 l 1,13,-1
 696.3203125 1515.51953125 l 1,14,-1
 47.103515625 1515.51953125 l 1,15,-1
 47.103515625 1241.08789062 l 1,16,-1
 180.162109375 1241.08789062 l 1,17,-1
 604.16015625 632.743164062 l 1,18,-1
 604.16015625 274.431640625 l 1,19,-1
 436.223632812 274.431640625 l 1,20,-1
 436.223632812 0 l 1,0,-1
EndSplineSet
Fore
SplineSet
436 0 m 1,0,-1
 436 274 l 1,1,-1
 604 274 l 1,2,-1
 604 633 l 1,3,-1
 180 1241 l 1,4,-1
 47 1241 l 1,5,-1
 47 1516 l 1,6,-1
 696 1516 l 1,7,-1
 696 1241 l 1,8,-1
 569 1241 l 1,9,-1
 772 893 l 1,10,-1
 987 1241 l 1,11,-1
 842 1241 l 1,12,-1
 842 1516 l 1,13,-1
 1491 1516 l 1,14,-1
 1491 1241 l 1,15,-1
 1379 1241 l 1,16,-1
 928 629 l 1,17,-1
 928 274 l 1,18,-1
 1112 274 l 1,19,-1
 1112 0 l 1,20,-1
 436 0 l 1,0,-1
EndSplineSet
EndChar

StartChar: Z
Encoding: 90 90 107
Width: 1290
VWidth: 0
Flags: W
LayerCount: 2
Back
SplineSet
1214.46386719 1515.51953125 m 1,0,-1
 63.48828125 1515.51953125 l 1,1,-1
 63.48828125 978.944335938 l 1,2,-1
 389.120117188 978.944335938 l 1,3,-1
 389.120117188 1218.55957031 l 1,4,-1
 798.244140625 1218.55957031 l 1,5,-1
 61.4404296875 313.34375 l 1,6,-1
 61.4404296875 0 l 1,7,-1
 1212.41601562 0 l 1,8,-1
 1212.41601562 532.48046875 l 1,9,-1
 886.784179688 532.48046875 l 1,10,-1
 886.784179688 296.959960938 l 1,11,-1
 459.807617188 296.959960938 l 1,12,-1
 1214.46386719 1202.17578125 l 1,13,-1
 1214.46386719 1515.51953125 l 1,0,-1
EndSplineSet
Fore
SplineSet
1214 1516 m 1,0,-1
 1214 1202 l 1,1,-1
 460 297 l 1,2,-1
 887 297 l 1,3,-1
 887 532 l 1,4,-1
 1212 532 l 1,5,-1
 1212 0 l 1,6,-1
 61 0 l 1,7,-1
 61 313 l 1,8,-1
 798 1219 l 1,9,-1
 389 1219 l 1,10,-1
 389 979 l 1,11,-1
 63 979 l 1,12,-1
 63 1516 l 1,13,-1
 1214 1516 l 1,0,-1
EndSplineSet
EndChar

StartChar: a
Encoding: 97 97 113
Width: 1280
VWidth: 0
Flags: W
LayerCount: 2
Back
SplineSet
1009.6640625 274.431640625 m 1,0,-1
 1009.6640625 651.263671875 l 2,1,2
 1009.6640625 1058.81640625 1009.6640625 1058.81640625 563.200195312 1058.81640625 c 0,3,4
 323.583984375 1058.81640625 323.583984375 1058.81640625 112.639648438 915.456054688 c 1,5,-1
 208.896484375 720.896484375 l 1,6,7
 342.015625 792.576171875 342.015625 792.576171875 512 792.576171875 c 0,8,9
 716.799804688 792.576171875 716.799804688 792.576171875 716.799804688 643.072265625 c 2,10,-1
 716.799804688 611.530273438 l 1,11,12
 602.077148438 636.927734375 602.077148438 636.927734375 479.232421875 636.927734375 c 0,13,14
 288.767578125 636.927734375 288.767578125 636.927734375 180.223632812 545.791992188 c 128,-1,15
 71.6796875 454.65625 71.6796875 454.65625 71.6796875 307.200195312 c 0,16,17
 71.6796875 161.791992188 71.6796875 161.791992188 178.17578125 68.6083984375 c 128,-1,18
 284.671875 -24.576171875 284.671875 -24.576171875 466.944335938 -24.576171875 c 0,19,20
 540.165039062 -24.576171875 540.165039062 -24.576171875 593.456054688 -6.986328125 c 128,-1,21
 646.747070312 10.6044921875 646.747070312 10.6044921875 716.799804688 56.0791015625 c 1,22,-1
 716.799804688 0 l 1,23,-1
 743.423828125 0 l 1,24,-1
 1009.6640625 0 l 1,25,-1
 1148.92773438 0 l 1,26,-1
 1148.92773438 274.431640625 l 1,27,-1
 1009.6640625 274.431640625 l 1,0,-1
716.799804688 421.887695312 m 1,28,-1
 716.799804688 289.979492188 l 1,29,30
 620.559570312 210.944335938 620.559570312 210.944335938 489.471679688 210.944335938 c 0,31,32
 423.935546875 210.944335938 423.935546875 210.944335938 389.120117188 240.639648438 c 128,-1,33
 354.303710938 270.3359375 354.303710938 270.3359375 354.303710938 319.48828125 c 0,34,35
 354.303710938 366.591796875 354.303710938 366.591796875 391.16796875 394.240234375 c 128,-1,36
 428.032226562 421.887695312 428.032226562 421.887695312 477.18359375 421.887695312 c 2,37,-1
 716.799804688 421.887695312 l 1,28,-1
EndSplineSet
Fore
SplineSet
1010 274 m 1,0,-1
 1149 274 l 1,1,-1
 1149 0 l 1,2,-1
 717 0 l 1,3,-1
 717 56 l 1,4,5
 647 11 647 11 593.5 -7 c 128,-1,6
 540 -25 540 -25 467 -25 c 0,7,8
 285 -25 285 -25 178.5 68.5 c 128,-1,9
 72 162 72 162 72 308.5 c 128,-1,10
 72 455 72 455 180.5 546 c 128,-1,11
 289 637 289 637 479 637 c 0,12,13
 602 637 602 637 717 612 c 1,14,-1
 717 643 l 2,15,16
 717 793 717 793 512 793 c 0,17,18
 342 793 342 793 209 721 c 1,19,-1
 113 915 l 1,20,21
 323 1059 323 1059 563 1059 c 0,22,23
 1010 1059 1010 1059 1010 651 c 2,24,-1
 1010 274 l 1,0,-1
717 422 m 1,25,-1
 477 422 l 2,26,27
 428 422 428 422 391 394.5 c 128,-1,28
 354 367 354 367 354 318.5 c 128,-1,29
 354 270 354 270 388.5 240.5 c 128,-1,30
 423 211 423 211 489 211 c 0,31,32
 621 211 621 211 717 290 c 1,33,-1
 717 422 l 1,25,-1
EndSplineSet
EndChar

StartChar: aasigndeva
Encoding: 2366 2366 116
Width: 856
VWidth: 0
Flags: W
LayerCount: 2
Back
SplineSet
876.543945312 1419.26367188 m 1,0,-1
 -20.48046875 1419.26367188 l 1,1,-1
 -20.48046875 1161.21582031 l 1,2,-1
 270.3359375 1161.21582031 l 1,3,-1
 270.3359375 233.471679688 l 1,4,-1
 112.639648438 233.471679688 l 1,5,-1
 112.639648438 0 l 1,6,-1
 270.3359375 0 l 1,7,-1
 585.727539062 0 l 1,8,-1
 743.423828125 0 l 1,9,-1
 743.423828125 233.471679688 l 1,10,-1
 585.727539062 233.471679688 l 1,11,-1
 585.727539062 1161.21582031 l 1,12,-1
 876.543945312 1161.21582031 l 1,13,-1
 876.543945312 1419.26367188 l 1,0,-1
EndSplineSet
Fore
SplineSet
877 1419 m 1,0,-1
 877 1161 l 1,1,-1
 586 1161 l 1,2,-1
 586 233 l 1,3,-1
 743 233 l 1,4,-1
 743 0 l 1,5,-1
 113 0 l 1,6,-1
 113 233 l 1,7,-1
 270 233 l 1,8,-1
 270 1161 l 1,9,-1
 -20 1161 l 1,10,-1
 -20 1419 l 1,11,-1
 877 1419 l 1,0,-1
EndSplineSet
EndChar

StartChar: abbreviationsigndeva
Encoding: 2416 2416 117
Width: 1116
VWidth: 0
Flags: W
LayerCount: 2
Back
SplineSet
528.383789062 843.776367188 m 128,-1,1
 440.3203125 843.776367188 440.3203125 843.776367188 377.856445312 906.240234375 c 128,-1,2
 315.391601562 968.704101562 315.391601562 968.704101562 315.391601562 1056.76757812 c 128,-1,3
 315.391601562 1144.83203125 315.391601562 1144.83203125 377.856445312 1208.3203125 c 128,-1,4
 440.3203125 1271.80761719 440.3203125 1271.80761719 528.383789062 1271.80761719 c 128,-1,5
 616.448242188 1271.80761719 616.448242188 1271.80761719 679.935546875 1208.3203125 c 128,-1,6
 743.423828125 1144.83203125 743.423828125 1144.83203125 743.423828125 1056.76757812 c 128,-1,7
 743.423828125 968.704101562 743.423828125 968.704101562 679.935546875 906.240234375 c 128,-1,0
 616.448242188 843.776367188 616.448242188 843.776367188 528.383789062 843.776367188 c 128,-1,1
884.736328125 1060.86425781 m 128,-1,9
 884.736328125 1206.27246094 884.736328125 1206.27246094 781.311523438 1307.6484375 c 128,-1,10
 677.887695312 1409.02441406 677.887695312 1409.02441406 530.431640625 1409.02441406 c 128,-1,11
 382.975585938 1409.02441406 382.975585938 1409.02441406 279.551757812 1307.6484375 c 128,-1,12
 176.127929688 1206.27246094 176.127929688 1206.27246094 176.127929688 1060.86425781 c 128,-1,13
 176.127929688 915.456054688 176.127929688 915.456054688 279.551757812 813.055664062 c 128,-1,14
 382.975585938 710.65625 382.975585938 710.65625 530.431640625 710.65625 c 128,-1,15
 677.887695312 710.65625 677.887695312 710.65625 781.311523438 813.055664062 c 128,-1,8
 884.736328125 915.456054688 884.736328125 915.456054688 884.736328125 1060.86425781 c 128,-1,9
EndSplineSet
Fore
SplineSet
528 844 m 128,-1,1
 616 844 616 844 679.5 906.5 c 128,-1,2
 743 969 743 969 743 1057 c 128,-1,3
 743 1145 743 1145 679.5 1208.5 c 128,-1,4
 616 1272 616 1272 528 1272 c 128,-1,5
 440 1272 440 1272 377.5 1208.5 c 128,-1,6
 315 1145 315 1145 315 1057 c 128,-1,7
 315 969 315 969 377.5 906.5 c 128,-1,0
 440 844 440 844 528 844 c 128,-1,1
885 1060.5 m 128,-1,9
 885 915 885 915 781.5 813 c 128,-1,10
 678 711 678 711 530.5 711 c 128,-1,11
 383 711 383 711 279.5 813 c 128,-1,12
 176 915 176 915 176 1060.5 c 128,-1,13
 176 1206 176 1206 279.5 1307.5 c 128,-1,14
 383 1409 383 1409 530.5 1409 c 128,-1,15
 678 1409 678 1409 781.5 1307.5 c 128,-1,8
 885 1206 885 1206 885 1060.5 c 128,-1,9
EndSplineSet
EndChar

StartChar: acombiningletterdeva
Encoding: 43242 43242 121
Width: 0
VWidth: 0
Flags: W
AnchorPoint: "DVAnchor3" -477 1255 mark 0
LayerCount: 2
Back
SplineSet
-161.791992188 1955.83984375 m 1,0,-1
 -444.416015625 1955.83984375 l 1,1,-1
 -444.416015625 1832.95996094 l 1,2,-1
 -368.639648438 1832.95996094 l 1,3,-1
 -368.639648438 1652.73632812 l 1,4,-1
 -491.612304688 1652.73632812 l 1,5,6
 -501.188476562 1663.74707031 -501.188476562 1663.74707031 -512.544921875 1673.37304688 c 1,7,8
 -466.944335938 1723.80859375 -466.944335938 1723.80859375 -466.944335938 1785.85644531 c 0,9,10
 -466.944335938 1865.72753906 -466.944335938 1865.72753906 -527.360351562 1916.92773438 c 128,-1,11
 -587.776367188 1968.12792969 -587.776367188 1968.12792969 -675.83984375 1968.12792969 c 0,12,13
 -753.6640625 1968.12792969 -753.6640625 1968.12792969 -847.872070312 1921.02441406 c 1,14,-1
 -802.81640625 1830.91210938 l 1,15,16
 -733.18359375 1865.72753906 -733.18359375 1865.72753906 -684.032226562 1865.72753906 c 0,17,18
 -649.215820312 1865.72753906 -649.215820312 1865.72753906 -623.616210938 1845.24804688 c 128,-1,19
 -598.015625 1824.76757812 -598.015625 1824.76757812 -598.015625 1785.85644531 c 0,20,21
 -598.015625 1761.28027344 -598.015625 1761.28027344 -621.568359375 1743.87207031 c 128,-1,22
 -645.120117188 1726.46386719 -645.120117188 1726.46386719 -673.791992188 1726.46386719 c 2,23,-1
 -739.328125 1726.46386719 l 1,24,-1
 -739.328125 1603.58398438 l 1,25,-1
 -673.791992188 1603.58398438 l 2,26,27
 -670.708984375 1603.58398438 -670.708984375 1603.58398438 -667.6484375 1603.66601562 c 0,28,29
 -632.83203125 1603.58398438 -632.83203125 1603.58398438 -606.208007812 1581.05566406 c 128,-1,30
 -579.583984375 1558.52832031 -579.583984375 1558.52832031 -579.583984375 1519.61621094 c 0,31,32
 -579.583984375 1482.75195312 -579.583984375 1482.75195312 -606.208007812 1463.29589844 c 128,-1,33
 -632.83203125 1443.83984375 -632.83203125 1443.83984375 -669.696289062 1443.83984375 c 0,34,35
 -776.192382812 1443.83984375 -776.192382812 1443.83984375 -849.919921875 1576.95996094 c 1,36,-1
 -954.368164062 1523.71191406 l 1,37,38
 -854.015625 1341.44042969 -854.015625 1341.44042969 -669.696289062 1341.44042969 c 0,39,40
 -579.737304688 1341.44042969 -579.737304688 1341.44042969 -516.216796875 1392.52441406 c 128,-1,41
 -452.697265625 1443.60839844 -452.697265625 1443.60839844 -448.745117188 1529.85644531 c 1,42,-1
 -368.639648438 1529.85644531 l 1,43,-1
 -368.639648438 1327.10351562 l 1,44,-1
 -237.568359375 1327.10351562 l 1,45,-1
 -237.568359375 1832.95996094 l 1,46,-1
 -161.791992188 1832.95996094 l 1,47,-1
 -161.791992188 1955.83984375 l 1,0,-1
EndSplineSet
Fore
SplineSet
-162 1956 m 1,0,-1
 -162 1833 l 1,1,-1
 -238 1833 l 1,2,-1
 -238 1327 l 1,3,-1
 -369 1327 l 1,4,-1
 -369 1530 l 1,5,-1
 -449 1530 l 1,6,7
 -453 1444 -453 1444 -516.5 1392.5 c 128,-1,8
 -580 1341 -580 1341 -670 1341 c 0,9,10
 -854 1342 -854 1342 -954 1524 c 1,11,-1
 -850 1577 l 1,12,13
 -776 1444 -776 1444 -670 1444 c 0,14,15
 -633 1444 -633 1444 -606.5 1463.5 c 128,-1,16
 -580 1483 -580 1483 -580 1521 c 128,-1,17
 -580 1559 -580 1559 -606.5 1581.5 c 128,-1,18
 -633 1604 -633 1604 -652 1604 c 128,-1,19
 -671 1604 -671 1604 -674 1604 c 2,20,-1
 -739 1604 l 1,21,-1
 -739 1726 l 1,22,-1
 -674 1726 l 2,23,24
 -645 1726 -645 1726 -621.5 1743.5 c 128,-1,25
 -598 1761 -598 1761 -598 1793 c 128,-1,26
 -598 1825 -598 1825 -623.5 1845.5 c 128,-1,27
 -649 1866 -649 1866 -691 1866 c 128,-1,28
 -733 1866 -733 1866 -803 1831 c 1,29,-1
 -848 1921 l 1,30,31
 -754 1968 -754 1968 -671 1968 c 128,-1,32
 -588 1968 -588 1968 -527.5 1917 c 128,-1,33
 -467 1866 -467 1866 -467 1795 c 0,34,35
 -467 1723 -467 1723 -513 1673 c 1,36,37
 -502 1664 -502 1664 -492 1653 c 1,38,-1
 -369 1653 l 1,39,-1
 -369 1833 l 1,40,-1
 -444 1833 l 1,41,-1
 -444 1956 l 1,42,-1
 -162 1956 l 1,0,-1
EndSplineSet
EndChar

StartChar: acute
Encoding: 180 180 122
Width: 679
VWidth: 0
Flags: W
LayerCount: 2
Back
SplineSet
40.9599609375 1177.59960938 m 1,0,-1
 276.48046875 1177.59960938 l 1,1,-1
 581.631835938 1464.3203125 l 1,2,-1
 581.631835938 1488.89648438 l 1,3,-1
 256 1488.89648438 l 1,4,-1
 40.9599609375 1177.59960938 l 1,0,-1
EndSplineSet
Fore
SplineSet
41 1178 m 1,0,-1
 256 1489 l 1,1,-1
 582 1489 l 1,2,-1
 582 1464 l 1,3,-1
 276 1178 l 1,4,-1
 41 1178 l 1,0,-1
EndSplineSet
EndChar

StartChar: adeva
Encoding: 2309 2309 124
Width: 2027
VWidth: 0
Flags: W
AnchorPoint: "DVAnchor0" 1615 0 basechar 0
AnchorPoint: "DVAnchor3" 1597 1409 basechar 0
LayerCount: 2
Back
SplineSet
2045.95214844 1419.26367188 m 1,0,-1
 1171.45605469 1419.26367188 l 1,1,-1
 1171.45605469 1161.21582031 l 1,2,-1
 1441.79199219 1161.21582031 l 1,3,-1
 1441.79199219 731.135742188 l 1,4,-1
 1010.01269531 731.135742188 l 1,5,6
 1001.53710938 740.755859375 1001.53710938 740.755859375 992.328125 749.9609375 c 128,-1,7
 983.118164062 759.166015625 983.118164062 759.166015625 973.372070312 767.78125 c 128,-1,8
 963.625 776.395507812 963.625 776.395507812 953.401367188 784.448242188 c 128,-1,9
 943.177734375 792.501953125 943.177734375 792.501953125 932.374023438 800.087890625 c 1,10,11
 1081.34375 917.604492188 1081.34375 917.604492188 1081.34375 1099.77636719 c 0,12,13
 1081.34375 1259.51953125 1081.34375 1259.51953125 968.704101562 1351.6796875 c 128,-1,14
 856.064453125 1443.83984375 856.064453125 1443.83984375 655.360351562 1443.83984375 c 0,15,16
 567.295898438 1443.83984375 567.295898438 1443.83984375 456.704101562 1398.78417969 c 128,-1,17
 346.112304688 1353.72753906 346.112304688 1353.72753906 278.528320312 1290.24023438 c 1,18,-1
 380.927734375 1099.77636719 l 1,19,20
 385.024414062 1101.82421875 385.024414062 1101.82421875 414.719726562 1118.20800781 c 128,-1,21
 444.416015625 1134.59179688 444.416015625 1134.59179688 462.84765625 1143.80761719 c 128,-1,22
 481.280273438 1153.02441406 481.280273438 1153.02441406 514.047851562 1166.3359375 c 128,-1,23
 546.81640625 1179.6484375 546.81640625 1179.6484375 579.583984375 1185.79199219 c 128,-1,24
 612.3515625 1191.93554688 612.3515625 1191.93554688 645.120117188 1191.93554688 c 0,25,26
 704.51171875 1191.93554688 704.51171875 1191.93554688 745.471679688 1167.36035156 c 128,-1,27
 786.431640625 1142.78417969 786.431640625 1142.78417969 790.528320312 1093.63183594 c 0,28,29
 794.624023438 1032.19238281 794.624023438 1032.19238281 759.807617188 989.18359375 c 128,-1,30
 724.9921875 946.17578125 724.9921875 946.17578125 649.215820312 946.17578125 c 2,31,-1
 518.143554688 946.17578125 l 1,32,-1
 518.143554688 688.127929688 l 1,33,-1
 620.543945312 688.127929688 l 2,34,35
 817.15234375 688.127929688 817.15234375 688.127929688 817.15234375 526.3359375 c 0,36,37
 817.15234375 466.944335938 817.15234375 466.944335938 776.192382812 427.0078125 c 128,-1,38
 735.232421875 387.072265625 735.232421875 387.072265625 661.50390625 387.072265625 c 0,39,40
 563.200195312 387.072265625 563.200195312 387.072265625 483.328125 445.440429688 c 128,-1,41
 403.456054688 503.807617188 403.456054688 503.807617188 315.391601562 645.120117188 c 1,42,-1
 114.688476562 528.383789062 l 1,43,44
 223.232421875 307.200195312 223.232421875 307.200195312 371.711914062 212.9921875 c 128,-1,45
 520.192382812 118.784179688 520.192382812 118.784179688 675.83984375 118.784179688 c 0,46,47
 867.482421875 118.784179688 867.482421875 118.784179688 976.69140625 219.919921875 c 128,-1,48
 1085.89941406 321.056640625 1085.89941406 321.056640625 1096.64941406 473.087890625 c 1,49,-1
 1441.79199219 473.087890625 l 1,50,-1
 1441.79199219 233.471679688 l 1,51,-1
 1284.09570312 233.471679688 l 1,52,-1
 1284.09570312 0 l 1,53,-1
 1441.79199219 0 l 1,54,-1
 1757.18359375 0 l 1,55,-1
 1914.87988281 0 l 1,56,-1
 1914.87988281 233.471679688 l 1,57,-1
 1757.18359375 233.471679688 l 1,58,-1
 1757.18359375 1161.21582031 l 1,59,-1
 2045.95214844 1161.21582031 l 1,60,-1
 2045.95214844 1419.26367188 l 1,0,-1
EndSplineSet
Fore
SplineSet
1010 731 m 1,0,1
 1442 731 l 1,2,-1
 1442 1161 l 1,3,-1
 1171 1161 l 1,4,-1
 1171 1419 l 1,5,-1
 2046 1419 l 1,6,-1
 2046 1161 l 1,7,-1
 1757 1161 l 1,8,-1
 1757 233 l 1,9,-1
 1915 233 l 1,10,-1
 1915 0 l 1,11,-1
 1284 0 l 1,12,-1
 1284 233 l 1,13,-1
 1442 233 l 1,14,-1
 1442 473 l 1,15,-1
 1097 473 l 1,16,17
 1086 321 1086 321 976.5 220 c 128,-1,18
 867 119 867 119 693.5 119 c 128,-1,19
 520 119 520 119 372 213 c 128,-1,20
 224 307 224 307 115 528 c 1,21,-1
 315 645 l 1,22,23
 403 504 403 504 483 445.5 c 128,-1,24
 563 387 563 387 649 387 c 128,-1,25
 735 387 735 387 776 427 c 128,-1,26
 817 467 817 467 817 526 c 0,27,28
 818 688 818 688 621 688 c 2,29,-1
 518 688 l 1,30,-1
 518 946 l 1,31,-1
 649 946 l 2,32,33
 725 946 725 946 760 989 c 128,-1,34
 795 1032 795 1032 790.5 1087.5 c 128,-1,35
 786 1143 786 1143 745.5 1167.5 c 128,-1,36
 705 1192 705 1192 641 1192 c 128,-1,37
 577 1192 577 1192 514 1166 c 0,38,39
 481 1153 481 1153 462.5 1144 c 128,-1,40
 444 1135 444 1135 414.5 1118.5 c 128,-1,41
 385 1102 385 1102 381 1100 c 1,42,-1
 279 1290 l 1,43,44
 346 1354 346 1354 456.5 1399 c 128,-1,45
 567 1444 567 1444 655 1444 c 0,46,47
 856 1444 856 1444 968.5 1352 c 128,-1,48
 1081 1260 1081 1260 1081 1089 c 128,-1,49
 1081 918 1081 918 932 800 c 1,50,51
 977 769 977 769 1010 731 c 1,0,1
EndSplineSet
Substitution2: "Single Substitution lookup 36 subtable" adeva_alt1
EndChar

StartChar: adeva_alt1
Encoding: 65543 -1 125
Width: 2027
VWidth: 0
Flags: W
LayerCount: 2
Back
SplineSet
2045.95214844 1419.26367188 m 1,0,-1
 1171.45605469 1419.26367188 l 1,1,-1
 1171.45605469 1161.21582031 l 1,2,-1
 1441.79199219 1161.21582031 l 1,3,-1
 1441.79199219 731.135742188 l 1,4,-1
 1010.01269531 731.135742188 l 1,5,6
 1001.53710938 740.755859375 1001.53710938 740.755859375 992.328125 749.9609375 c 128,-1,7
 983.118164062 759.166015625 983.118164062 759.166015625 973.372070312 767.78125 c 128,-1,8
 963.625 776.395507812 963.625 776.395507812 953.401367188 784.448242188 c 128,-1,9
 943.177734375 792.501953125 943.177734375 792.501953125 932.374023438 800.087890625 c 1,10,11
 1081.34375 917.604492188 1081.34375 917.604492188 1081.34375 1099.77636719 c 0,12,13
 1081.34375 1259.51953125 1081.34375 1259.51953125 968.704101562 1351.6796875 c 128,-1,14
 856.064453125 1443.83984375 856.064453125 1443.83984375 655.360351562 1443.83984375 c 0,15,16
 567.295898438 1443.83984375 567.295898438 1443.83984375 456.704101562 1398.78417969 c 128,-1,17
 346.112304688 1353.72753906 346.112304688 1353.72753906 278.528320312 1290.24023438 c 1,18,-1
 380.927734375 1099.77636719 l 1,19,20
 385.024414062 1101.82421875 385.024414062 1101.82421875 414.719726562 1118.20800781 c 128,-1,21
 444.416015625 1134.59179688 444.416015625 1134.59179688 462.84765625 1143.80761719 c 128,-1,22
 481.280273438 1153.02441406 481.280273438 1153.02441406 514.047851562 1166.3359375 c 128,-1,23
 546.81640625 1179.6484375 546.81640625 1179.6484375 579.583984375 1185.79199219 c 128,-1,24
 612.3515625 1191.93554688 612.3515625 1191.93554688 645.120117188 1191.93554688 c 0,25,26
 704.51171875 1191.93554688 704.51171875 1191.93554688 745.471679688 1167.36035156 c 128,-1,27
 786.431640625 1142.78417969 786.431640625 1142.78417969 790.528320312 1093.63183594 c 0,28,29
 794.624023438 1032.19238281 794.624023438 1032.19238281 759.807617188 989.18359375 c 128,-1,30
 724.9921875 946.17578125 724.9921875 946.17578125 649.215820312 946.17578125 c 2,31,-1
 518.143554688 946.17578125 l 1,32,-1
 518.143554688 688.127929688 l 1,33,-1
 620.543945312 688.127929688 l 2,34,35
 817.15234375 688.127929688 817.15234375 688.127929688 817.15234375 526.3359375 c 0,36,37
 817.15234375 466.944335938 817.15234375 466.944335938 776.192382812 427.0078125 c 128,-1,38
 735.232421875 387.072265625 735.232421875 387.072265625 661.50390625 387.072265625 c 0,39,40
 563.200195312 387.072265625 563.200195312 387.072265625 483.328125 445.440429688 c 128,-1,41
 403.456054688 503.807617188 403.456054688 503.807617188 315.391601562 645.120117188 c 1,42,-1
 114.688476562 528.383789062 l 1,43,44
 223.232421875 307.200195312 223.232421875 307.200195312 371.711914062 212.9921875 c 128,-1,45
 520.192382812 118.784179688 520.192382812 118.784179688 675.83984375 118.784179688 c 0,46,47
 867.482421875 118.784179688 867.482421875 118.784179688 976.69140625 219.919921875 c 128,-1,48
 1085.89941406 321.056640625 1085.89941406 321.056640625 1096.64941406 473.087890625 c 1,49,-1
 1441.79199219 473.087890625 l 1,50,-1
 1441.79199219 0 l 1,51,-1
 1757.18359375 0 l 1,52,-1
 1757.18359375 1161.21582031 l 1,53,-1
 2045.95214844 1161.21582031 l 1,54,-1
 2045.95214844 1419.26367188 l 1,0,-1
EndSplineSet
Fore
SplineSet
1010 731 m 1,0,1
 1442 731 l 1,2,-1
 1442 1161 l 1,3,-1
 1171 1161 l 1,4,-1
 1171 1419 l 1,5,-1
 2046 1419 l 1,6,-1
 2046 1161 l 1,7,-1
 1757 1161 l 1,8,-1
 1757 0 l 1,9,-1
 1442 0 l 1,10,-1
 1442 473 l 1,11,-1
 1097 473 l 1,12,13
 1086 321 1086 321 976.5 220 c 128,-1,14
 867 119 867 119 693.5 119 c 128,-1,15
 520 119 520 119 372 213 c 128,-1,16
 224 307 224 307 115 528 c 1,17,-1
 315 645 l 1,18,19
 403 504 403 504 483 445.5 c 128,-1,20
 563 387 563 387 649 387 c 128,-1,21
 735 387 735 387 776 427 c 128,-1,22
 817 467 817 467 817 526 c 0,23,24
 818 688 818 688 621 688 c 2,25,-1
 518 688 l 1,26,-1
 518 946 l 1,27,-1
 649 946 l 2,28,29
 725 946 725 946 760 989 c 128,-1,30
 795 1032 795 1032 790.5 1087.5 c 128,-1,31
 786 1143 786 1143 745.5 1167.5 c 128,-1,32
 705 1192 705 1192 641 1192 c 128,-1,33
 577 1192 577 1192 514 1166 c 0,34,35
 481 1153 481 1153 462.5 1144 c 128,-1,36
 444 1135 444 1135 414.5 1118.5 c 128,-1,37
 385 1102 385 1102 381 1100 c 1,38,-1
 279 1290 l 1,39,40
 346 1354 346 1354 456.5 1399 c 128,-1,41
 567 1444 567 1444 655 1444 c 0,42,43
 856 1444 856 1444 968.5 1352 c 128,-1,44
 1081 1260 1081 1260 1081 1089 c 128,-1,45
 1081 918 1081 918 932 800 c 1,46,47
 977 769 977 769 1010 731 c 1,0,1
EndSplineSet
EndChar

StartChar: ae
Encoding: 230 230 127
Width: 1851
VWidth: 0
Flags: W
LayerCount: 2
Back
SplineSet
1015.94238281 663.551757812 m 1,0,1
 1057.67285156 831.48828125 1057.67285156 831.48828125 1245.18359375 831.48828125 c 0,2,3
 1343.48828125 831.48828125 1343.48828125 831.48828125 1387.51953125 786.431640625 c 128,-1,4
 1431.55175781 741.375976562 1431.55175781 741.375976562 1447.93554688 663.551757812 c 1,5,-1
 1015.94238281 663.551757812 l 1,0,1
1006.55273438 452.608398438 m 1,6,-1
 1769.47167969 452.608398438 l 1,7,8
 1773.56835938 509.952148438 1773.56835938 509.952148438 1767.42382812 552.959960938 c 1,9,10
 1761.28027344 784.383789062 1761.28027344 784.383789062 1625.08789062 932.864257812 c 128,-1,11
 1488.89648438 1081.34375 1488.89648438 1081.34375 1253.37597656 1081.34375 c 0,12,13
 1148.34570312 1081.34375 1148.34570312 1081.34375 1057.14746094 1048.10546875 c 128,-1,14
 965.948242188 1014.86621094 965.948242188 1014.86621094 894.822265625 953.787109375 c 1,15,16
 785.046875 1058.81640625 785.046875 1058.81640625 563.200195312 1058.81640625 c 0,17,18
 323.583984375 1058.81640625 323.583984375 1058.81640625 112.639648438 915.456054688 c 1,19,-1
 208.896484375 720.896484375 l 1,20,21
 342.015625 792.576171875 342.015625 792.576171875 512 792.576171875 c 0,22,23
 710.65625 792.576171875 710.65625 792.576171875 710.65625 643.072265625 c 2,24,-1
 710.65625 612.87109375 l 1,25,26
 598.953125 636.927734375 598.953125 636.927734375 479.232421875 636.927734375 c 0,27,28
 288.767578125 636.927734375 288.767578125 636.927734375 180.223632812 545.791992188 c 128,-1,29
 71.6796875 454.65625 71.6796875 454.65625 71.6796875 307.200195312 c 0,30,31
 71.6796875 161.791992188 71.6796875 161.791992188 178.17578125 68.6083984375 c 128,-1,32
 284.671875 -24.576171875 284.671875 -24.576171875 466.944335938 -24.576171875 c 0,33,34
 699.311523438 -24.576171875 699.311523438 -24.576171875 855.36328125 138.153320312 c 1,35,36
 1010.88964844 -26.6240234375 1010.88964844 -26.6240234375 1271.80761719 -26.6240234375 c 0,37,38
 1406.97558594 -26.6240234375 1406.97558594 -26.6240234375 1490.94433594 1.0244140625 c 128,-1,39
 1574.91210938 28.671875 1574.91210938 28.671875 1699.83984375 104.448242188 c 1,40,-1
 1589.24804688 309.248046875 l 1,41,42
 1402.87988281 239.616210938 1402.87988281 239.616210938 1277.95214844 239.616210938 c 0,43,44
 1181.69628906 239.616210938 1181.69628906 239.616210938 1105.91992188 287.744140625 c 128,-1,45
 1030.14355469 335.872070312 1030.14355469 335.872070312 1009.6640625 421.887695312 c 1,46,47
 1007.515625 442.293945312 1007.515625 442.293945312 1006.55273438 452.608398438 c 1,6,-1
717.844726562 421.887695312 m 1,48,49
 728.272460938 360.942382812 728.272460938 360.942382812 750.083984375 305.459960938 c 1,50,51
 639.370117188 210.944335938 639.370117188 210.944335938 489.471679688 210.944335938 c 0,52,53
 423.935546875 210.944335938 423.935546875 210.944335938 389.120117188 240.639648438 c 128,-1,54
 354.303710938 270.3359375 354.303710938 270.3359375 354.303710938 319.48828125 c 0,55,56
 354.303710938 366.591796875 354.303710938 366.591796875 391.16796875 394.240234375 c 128,-1,57
 428.032226562 421.887695312 428.032226562 421.887695312 477.18359375 421.887695312 c 2,58,-1
 717.844726562 421.887695312 l 1,48,49
EndSplineSet
Fore
SplineSet
1016 664 m 1,0,1
 1448 664 l 1,2,3
 1432 741 1432 741 1387.5 786 c 128,-1,4
 1343 831 1343 831 1245 831 c 0,5,6
 1058 832 1058 832 1016 664 c 1,0,1
1625 932.5 m 128,-1,8
 1761 784 1761 784 1767 553 c 1,9,10
 1773 510 1773 510 1769 453 c 1,11,-1
 1007 453 l 1,12,13
 1008 442 1008 442 1010 422 c 1,14,15
 1030 336 1030 336 1106 288 c 128,-1,16
 1182 240 1182 240 1292.5 239.5 c 128,-1,17
 1403 239 1403 239 1589 309 c 1,18,-1
 1700 104 l 1,19,20
 1575 29 1575 29 1491 1 c 128,-1,21
 1407 -27 1407 -27 1272 -27 c 0,22,23
 1011 -27 1011 -27 855 138 c 1,24,25
 699 -25 699 -25 467 -25 c 0,26,27
 285 -25 285 -25 178.5 68.5 c 128,-1,28
 72 162 72 162 72 308.5 c 128,-1,29
 72 455 72 455 180.5 546 c 128,-1,30
 289 637 289 637 479 637 c 0,31,32
 599 637 599 637 711 613 c 1,33,-1
 711 643 l 2,34,35
 711 793 711 793 512 793 c 0,36,37
 342 793 342 793 209 721 c 1,38,-1
 113 915 l 1,39,40
 324 1059 324 1059 554.5 1059 c 128,-1,41
 785 1059 785 1059 895 954 c 1,42,43
 1043 1081 1043 1081 1266 1081 c 128,-1,7
 1489 1081 1489 1081 1625 932.5 c 128,-1,8
718 422 m 1,44,-1
 477 422 l 2,45,46
 428 422 428 422 391 394.5 c 128,-1,47
 354 367 354 367 354 318.5 c 128,-1,48
 354 270 354 270 388.5 240.5 c 128,-1,49
 423 211 423 211 489 211 c 0,50,51
 639 210 639 210 750 305 c 1,52,53
 728 361 728 361 718 422 c 1,44,-1
EndSplineSet
EndChar

StartChar: aisign_ra_virama.alt1
Encoding: 65544 -1 130
Width: 0
VWidth: 0
Flags: W
AnchorPoint: "DVAnchor3" -272 1284 mark 0
LayerCount: 2
Back
SplineSet
-825.34375 1536 m 1,0,-1
 -763.904296875 1536 l 2,1,2
 -686.080078125 1536 -686.080078125 1536 -648.192382812 1509.37597656 c 128,-1,3
 -610.303710938 1482.75195312 -610.303710938 1482.75195312 -532.48046875 1376.25585938 c 1,4,-1
 -495.616210938 1323.0078125 l 1,5,-1
 -317.440429688 1323.0078125 l 1,6,-1
 -294.912109375 1323.0078125 l 1,7,-1
 -260.095703125 1323.0078125 l 1,8,-1
 -180.223632812 1323.0078125 l 1,9,10
 -245.759765625 1478.65625 -245.759765625 1478.65625 -215.040039062 1556.48046875 c 0,11,12
 -182.272460938 1634.30371094 -182.272460938 1634.30371094 -69.6318359375 1634.30371094 c 2,13,-1
 -34.81640625 1634.30371094 l 1,14,-1
 -34.81640625 1890.30371094 l 1,15,-1
 -118.784179688 1890.30371094 l 2,16,17
 -215.627929688 1890.30371094 -215.627929688 1890.30371094 -298.131835938 1856.10644531 c 128,-1,18
 -380.635742188 1821.90820312 -380.635742188 1821.90820312 -429.999023438 1759.234375 c 1,19,-1
 -471.040039062 1830.91210938 l 2,20,21
 -548.864257812 1968.12792969 -548.864257812 1968.12792969 -808.959960938 1968.12792969 c 2,22,-1
 -909.311523438 1968.12792969 l 1,23,-1
 -909.311523438 1794.04785156 l 1,24,-1
 -847.872070312 1794.04785156 l 2,25,26
 -795.446289062 1794.04785156 -795.446289062 1794.04785156 -759.932617188 1788.08007812 c 128,-1,27
 -724.418945312 1782.11328125 -724.418945312 1782.11328125 -692.865234375 1765.18554688 c 128,-1,28
 -661.3125 1748.25878906 -661.3125 1748.25878906 -635.864257812 1723.85449219 c 128,-1,29
 -610.416015625 1699.45117188 -610.416015625 1699.45117188 -575.9140625 1656.80566406 c 1,30,31
 -610.3359375 1682.71289062 -610.3359375 1682.71289062 -646.6875 1696.39648438 c 128,-1,32
 -683.038085938 1710.08007812 -683.038085938 1710.08007812 -724.9921875 1710.08007812 c 2,33,-1
 -825.34375 1710.08007812 l 1,34,-1
 -825.34375 1536 l 1,0,-1
EndSplineSet
Fore
SplineSet
-576 1657 m 1,0,1
 -611 1700 -611 1700 -636 1724 c 128,-1,2
 -661 1748 -661 1748 -704 1771 c 128,-1,3
 -747 1794 -747 1794 -848 1794 c 2,4,-1
 -909 1794 l 1,5,-1
 -909 1968 l 1,6,-1
 -809 1968 l 2,7,8
 -549 1968 -549 1968 -471 1831 c 2,9,-1
 -430 1759 l 1,10,11
 -381 1822 -381 1822 -298.5 1856 c 128,-1,12
 -216 1890 -216 1890 -119 1890 c 2,13,-1
 -35 1890 l 1,14,-1
 -35 1634 l 1,15,-1
 -70 1634 l 2,16,17
 -182 1634 -182 1634 -215 1556 c 0,18,19
 -246 1479 -246 1479 -180 1323 c 1,20,-1
 -496 1323 l 1,21,-1
 -532 1376 l 1,22,23
 -610 1483 -610 1483 -648 1509.5 c 128,-1,24
 -686 1536 -686 1536 -764 1536 c 2,25,-1
 -825 1536 l 1,26,-1
 -825 1710 l 1,27,-1
 -725 1710 l 2,28,29
 -647 1710 -647 1710 -576 1657 c 1,0,1
EndSplineSet
Ligature2: "AboveBaseSubstitutionslookup subtable" aisigndeva radeva_viramadeva
EndChar

StartChar: aisign_ra_virama_anusvara
Encoding: 65545 -1 131
Width: 0
VWidth: 0
Flags: W
HStem: 1303 260<-101 91> 1536 174<-764 -626> 1634 256<-191 -70> 1794 174<-848 -671>
VStem: -487 453<1634 1780> -135 260<1337 1528>
AnchorPoint: "DVAnchor3" -354 1311 mark 0
LayerCount: 2
Back
SplineSet
-825.34375 1536 m 1,0,-1
 -763.904296875 1536 l 2,1,2
 -686.080078125 1536 -686.080078125 1536 -648.192382812 1509.37597656 c 128,-1,3
 -610.303710938 1482.75195312 -610.303710938 1482.75195312 -532.48046875 1376.25585938 c 1,4,-1
 -495.616210938 1323.0078125 l 1,5,-1
 -317.440429688 1323.0078125 l 1,6,-1
 -294.912109375 1323.0078125 l 1,7,-1
 -260.095703125 1323.0078125 l 1,8,-1
 -180.223632812 1323.0078125 l 1,9,10
 -245.759765625 1478.65625 -245.759765625 1478.65625 -215.040039062 1556.48046875 c 0,11,12
 -182.272460938 1634.30371094 -182.272460938 1634.30371094 -69.6318359375 1634.30371094 c 2,13,-1
 -34.81640625 1634.30371094 l 1,14,-1
 -34.81640625 1890.30371094 l 1,15,-1
 -118.784179688 1890.30371094 l 2,16,17
 -215.627929688 1890.30371094 -215.627929688 1890.30371094 -298.131835938 1856.10644531 c 128,-1,18
 -380.635742188 1821.90820312 -380.635742188 1821.90820312 -429.999023438 1759.234375 c 1,19,-1
 -471.040039062 1830.91210938 l 2,20,21
 -548.864257812 1968.12792969 -548.864257812 1968.12792969 -808.959960938 1968.12792969 c 2,22,-1
 -909.311523438 1968.12792969 l 1,23,-1
 -909.311523438 1794.04785156 l 1,24,-1
 -847.872070312 1794.04785156 l 2,25,26
 -795.446289062 1794.04785156 -795.446289062 1794.04785156 -759.932617188 1788.08007812 c 128,-1,27
 -724.418945312 1782.11328125 -724.418945312 1782.11328125 -692.865234375 1765.18554688 c 128,-1,28
 -661.3125 1748.25878906 -661.3125 1748.25878906 -635.864257812 1723.85449219 c 128,-1,29
 -610.416015625 1699.45117188 -610.416015625 1699.45117188 -575.9140625 1656.80566406 c 1,30,31
 -610.3359375 1682.71289062 -610.3359375 1682.71289062 -646.6875 1696.39648438 c 128,-1,32
 -683.038085938 1710.08007812 -683.038085938 1710.08007812 -724.9921875 1710.08007812 c 2,33,-1
 -825.34375 1710.08007812 l 1,34,-1
 -825.34375 1536 l 1,0,-1
-135.16796875 1431.55175781 m 0,35,36
 -135.16796875 1380.3515625 -135.16796875 1380.3515625 -96.255859375 1341.44042969 c 128,-1,37
 -57.34375 1302.52832031 -57.34375 1302.52832031 -6.1435546875 1302.52832031 c 0,38,39
 47.103515625 1302.52832031 47.103515625 1302.52832031 86.015625 1340.41601562 c 128,-1,40
 124.927734375 1378.30371094 124.927734375 1378.30371094 124.927734375 1431.55175781 c 128,-1,41
 124.927734375 1484.79980469 124.927734375 1484.79980469 86.015625 1523.71191406 c 128,-1,42
 47.103515625 1562.62402344 47.103515625 1562.62402344 -6.1435546875 1562.62402344 c 128,-1,43
 -59.3916015625 1562.62402344 -59.3916015625 1562.62402344 -97.2802734375 1523.71191406 c 128,-1,44
 -135.16796875 1484.79980469 -135.16796875 1484.79980469 -135.16796875 1431.55175781 c 0,35,36
EndSplineSet
Fore
SplineSet
-576 1657 m 1,0,1
 -611 1700 -611 1700 -636 1724 c 128,-1,2
 -661 1748 -661 1748 -704 1771 c 128,-1,3
 -747 1794 -747 1794 -848 1794 c 2,4,-1
 -909 1794 l 1,5,-1
 -909 1968 l 1,6,-1
 -809 1968 l 2,7,8
 -549 1968 -549 1968 -471 1831 c 2,9,-1
 -430 1759 l 1,10,11
 -381 1822 -381 1822 -298.5 1856 c 128,-1,12
 -216 1890 -216 1890 -119 1890 c 2,13,-1
 -35 1890 l 1,14,-1
 -35 1634 l 1,15,-1
 -70 1634 l 2,16,17
 -182 1634 -182 1634 -215 1556 c 0,18,19
 -246 1479 -246 1479 -180 1323 c 1,20,-1
 -496 1323 l 1,21,-1
 -532 1376 l 1,22,23
 -610 1483 -610 1483 -648 1509.5 c 128,-1,24
 -686 1536 -686 1536 -764 1536 c 2,25,-1
 -825 1536 l 1,26,-1
 -825 1710 l 1,27,-1
 -725 1710 l 2,28,29
 -647 1710 -647 1710 -576 1657 c 1,0,1
-97 1524 m 128,-1,31
 -59 1563 -59 1563 -6 1563 c 128,-1,32
 47 1563 47 1563 86 1524 c 128,-1,33
 125 1485 125 1485 125 1431.5 c 128,-1,34
 125 1378 125 1378 86 1340.5 c 128,-1,35
 47 1303 47 1303 -5 1303 c 128,-1,36
 -57 1303 -57 1303 -96 1341.5 c 128,-1,37
 -135 1380 -135 1380 -135 1432.5 c 128,-1,30
 -135 1485 -135 1485 -97 1524 c 128,-1,31
EndSplineSet
Ligature2: "AboveBaseSubstitutionslookup subtable" aisigndeva radeva_viramadeva anusvaradeva
EndChar

StartChar: aisigndeva
Encoding: 2376 2376 132
Width: 0
VWidth: 0
Flags: W
AnchorPoint: "DVAnchor3" -272 1296 mark 0
LayerCount: 2
Back
SplineSet
-825.34375 1536 m 1,0,-1
 -763.904296875 1536 l 2,1,2
 -686.080078125 1536 -686.080078125 1536 -648.192382812 1509.37597656 c 128,-1,3
 -610.303710938 1482.75195312 -610.303710938 1482.75195312 -532.48046875 1376.25585938 c 1,4,-1
 -495.616210938 1323.0078125 l 1,5,-1
 -317.440429688 1323.0078125 l 1,6,-1
 -260.095703125 1323.0078125 l 1,7,-1
 -180.223632812 1323.0078125 l 1,8,-1
 -471.040039062 1830.91210938 l 2,9,10
 -548.864257812 1968.12792969 -548.864257812 1968.12792969 -808.959960938 1968.12792969 c 2,11,-1
 -909.311523438 1968.12792969 l 1,12,-1
 -909.311523438 1794.04785156 l 1,13,-1
 -847.872070312 1794.04785156 l 2,14,15
 -795.446289062 1794.04785156 -795.446289062 1794.04785156 -759.932617188 1788.08007812 c 128,-1,16
 -724.418945312 1782.11328125 -724.418945312 1782.11328125 -692.865234375 1765.18554688 c 128,-1,17
 -661.3125 1748.25878906 -661.3125 1748.25878906 -635.864257812 1723.85449219 c 128,-1,18
 -610.416015625 1699.45117188 -610.416015625 1699.45117188 -575.9140625 1656.80566406 c 1,19,20
 -610.3359375 1682.71289062 -610.3359375 1682.71289062 -646.6875 1696.39648438 c 128,-1,21
 -683.038085938 1710.08007812 -683.038085938 1710.08007812 -724.9921875 1710.08007812 c 2,22,-1
 -825.34375 1710.08007812 l 1,23,-1
 -825.34375 1536 l 1,0,-1
EndSplineSet
Fore
SplineSet
-576 1657 m 1,0,1
 -611 1700 -611 1700 -636 1724 c 128,-1,2
 -661 1748 -661 1748 -704 1771 c 128,-1,3
 -747 1794 -747 1794 -848 1794 c 2,4,-1
 -909 1794 l 1,5,-1
 -909 1968 l 1,6,-1
 -809 1968 l 2,7,8
 -549 1968 -549 1968 -471 1831 c 2,9,-1
 -180 1323 l 1,10,-1
 -496 1323 l 1,11,-1
 -532 1376 l 1,12,13
 -610 1483 -610 1483 -648 1509.5 c 128,-1,14
 -686 1536 -686 1536 -764 1536 c 2,15,-1
 -825 1536 l 1,16,-1
 -825 1710 l 1,17,-1
 -725 1710 l 2,18,19
 -647 1710 -647 1710 -576 1657 c 1,0,1
EndSplineSet
EndChar

StartChar: aisigndeva_anusvaradeva
Encoding: 65546 -1 133
Width: 0
VWidth: 0
Flags: W
HStem: 1536 174<-764 -626> 1675 260<-324 -133> 1794 174<-848 -671>
VStem: -358 260<1709 1901>
AnchorPoint: "DVAnchor3" -272 1311 mark 0
LayerCount: 2
Back
SplineSet
-358.400390625 1804.28808594 m 0,0,1
 -358.400390625 1753.08789062 -358.400390625 1753.08789062 -320.51171875 1714.17578125 c 128,-1,2
 -282.624023438 1675.26367188 -282.624023438 1675.26367188 -229.375976562 1675.26367188 c 128,-1,3
 -176.127929688 1675.26367188 -176.127929688 1675.26367188 -137.215820312 1713.15234375 c 128,-1,4
 -98.3037109375 1751.04003906 -98.3037109375 1751.04003906 -98.3037109375 1804.28808594 c 128,-1,5
 -98.3037109375 1857.53613281 -98.3037109375 1857.53613281 -137.215820312 1896.44824219 c 128,-1,6
 -176.127929688 1935.36035156 -176.127929688 1935.36035156 -229.375976562 1935.36035156 c 128,-1,7
 -282.624023438 1935.36035156 -282.624023438 1935.36035156 -320.51171875 1896.44824219 c 128,-1,8
 -358.400390625 1857.53613281 -358.400390625 1857.53613281 -358.400390625 1804.28808594 c 0,0,1
-825.34375 1536 m 1,9,-1
 -763.904296875 1536 l 2,10,11
 -686.080078125 1536 -686.080078125 1536 -648.192382812 1509.37597656 c 128,-1,12
 -610.303710938 1482.75195312 -610.303710938 1482.75195312 -532.48046875 1376.25585938 c 1,13,-1
 -495.616210938 1323.0078125 l 1,14,-1
 -317.440429688 1323.0078125 l 1,15,-1
 -260.095703125 1323.0078125 l 1,16,-1
 -180.223632812 1323.0078125 l 1,17,-1
 -471.040039062 1830.91210938 l 2,18,19
 -548.864257812 1968.12792969 -548.864257812 1968.12792969 -808.959960938 1968.12792969 c 2,20,-1
 -909.311523438 1968.12792969 l 1,21,-1
 -909.311523438 1794.04785156 l 1,22,-1
 -847.872070312 1794.04785156 l 2,23,24
 -795.446289062 1794.04785156 -795.446289062 1794.04785156 -759.932617188 1788.08007812 c 128,-1,25
 -724.418945312 1782.11328125 -724.418945312 1782.11328125 -692.865234375 1765.18554688 c 128,-1,26
 -661.3125 1748.25878906 -661.3125 1748.25878906 -635.864257812 1723.85449219 c 128,-1,27
 -610.416015625 1699.45117188 -610.416015625 1699.45117188 -575.9140625 1656.80566406 c 1,28,29
 -610.3359375 1682.71289062 -610.3359375 1682.71289062 -646.6875 1696.39648438 c 128,-1,30
 -683.038085938 1710.08007812 -683.038085938 1710.08007812 -724.9921875 1710.08007812 c 2,31,-1
 -825.34375 1710.08007812 l 1,32,-1
 -825.34375 1536 l 1,9,-1
EndSplineSet
Fore
SplineSet
-320.5 1896.5 m 128,-1,1
 -283 1935 -283 1935 -229.5 1935 c 128,-1,2
 -176 1935 -176 1935 -137 1896.5 c 128,-1,3
 -98 1858 -98 1858 -98 1804.5 c 128,-1,4
 -98 1751 -98 1751 -137 1713 c 128,-1,5
 -176 1675 -176 1675 -229.5 1675 c 128,-1,6
 -283 1675 -283 1675 -320.5 1714 c 128,-1,7
 -358 1753 -358 1753 -358 1805.5 c 128,-1,0
 -358 1858 -358 1858 -320.5 1896.5 c 128,-1,1
-576 1657 m 1,8,9
 -611 1700 -611 1700 -636 1724 c 128,-1,10
 -661 1748 -661 1748 -704 1771 c 128,-1,11
 -747 1794 -747 1794 -848 1794 c 2,12,-1
 -909 1794 l 1,13,-1
 -909 1968 l 1,14,-1
 -809 1968 l 2,15,16
 -549 1968 -549 1968 -471 1831 c 2,17,-1
 -180 1323 l 1,18,-1
 -496 1323 l 1,19,-1
 -532 1376 l 1,20,21
 -610 1483 -610 1483 -648 1509.5 c 128,-1,22
 -686 1536 -686 1536 -764 1536 c 2,23,-1
 -825 1536 l 1,24,-1
 -825 1710 l 1,25,-1
 -725 1710 l 2,26,27
 -647 1710 -647 1710 -576 1657 c 1,8,9
EndSplineSet
LCarets2: 1 0 
Ligature2: "AboveBaseSubstitutionslookup subtable" aisigndeva anusvaradeva
EndChar

StartChar: ampersand
Encoding: 38 38 135
Width: 1337
VWidth: 0
Flags: W
LayerCount: 2
Back
SplineSet
567.638671875 998.028320312 m 1,0,1
 639.01953125 1037.46875 639.01953125 1037.46875 673.791992188 1062.91210938 c 0,2,3
 733.18359375 1105.91992188 733.18359375 1105.91992188 733.18359375 1191.93554688 c 0,4,5
 733.18359375 1245.18359375 733.18359375 1245.18359375 693.248046875 1285.12011719 c 128,-1,6
 653.311523438 1325.05566406 653.311523438 1325.05566406 600.064453125 1325.05566406 c 0,7,8
 536.576171875 1325.05566406 536.576171875 1325.05566406 496.639648438 1287.16796875 c 128,-1,9
 456.704101562 1249.28027344 456.704101562 1249.28027344 456.704101562 1191.93554688 c 0,10,11
 456.704101562 1103.87207031 456.704101562 1103.87207031 512 1052.671875 c 1,12,-1
 567.638671875 998.028320312 l 1,0,1
1172.04785156 404.4375 m 1,13,-1
 1427.45605469 153.599609375 l 1,14,-1
 1196.03222656 -49.15234375 l 1,15,-1
 995.108398438 157.263671875 l 1,16,17
 815.19921875 -14.3359375 815.19921875 -14.3359375 577.536132812 -14.3359375 c 0,18,19
 372.736328125 -14.3359375 372.736328125 -14.3359375 231.423828125 120.83203125 c 128,-1,20
 90.1123046875 256 90.1123046875 256 90.1123046875 454.65625 c 0,21,22
 90.1123046875 694.272460938 90.1123046875 694.272460938 313.34375 851.967773438 c 0,23,24
 314.989257812 853.1171875 314.989257812 853.1171875 316.653320312 854.264648438 c 2,25,-1
 296.959960938 874.49609375 l 2,26,27
 167.935546875 1009.6640625 167.935546875 1009.6640625 167.935546875 1189.88769531 c 0,28,29
 167.935546875 1355.77636719 167.935546875 1355.77636719 293.887695312 1477.63183594 c 128,-1,30
 419.83984375 1599.48828125 419.83984375 1599.48828125 600.064453125 1599.48828125 c 0,31,32
 786.431640625 1599.48828125 786.431640625 1599.48828125 907.263671875 1477.63183594 c 128,-1,33
 1028.09570312 1355.77636719 1028.09570312 1355.77636719 1028.09570312 1191.93554688 c 0,34,35
 1028.09570312 1085.44042969 1028.09570312 1085.44042969 975.872070312 992.255859375 c 128,-1,36
 923.6484375 899.072265625 923.6484375 899.072265625 841.727539062 839.6796875 c 0,37,38
 826.18359375 828.345703125 826.18359375 828.345703125 809.672851562 816.875976562 c 128,-1,39
 793.163085938 805.407226562 793.163085938 805.407226562 775.663085938 793.728515625 c 1,40,-1
 940.119140625 632.21484375 l 1,41,42
 964.772460938 709.752929688 964.772460938 709.752929688 978.944335938 796.671875 c 1,43,-1
 1277.95214844 796.671875 l 1,44,45
 1273.56933594 732.392578125 1273.56933594 732.392578125 1260.43164062 666.543945312 c 128,-1,46
 1247.29394531 600.6953125 1247.29394531 600.6953125 1224.87011719 533.653320312 c 128,-1,47
 1202.4453125 466.610351562 1202.4453125 466.610351562 1172.04785156 404.4375 c 1,13,-1
526.5703125 638.609375 m 1,48,49
 465.573242188 600.217773438 465.573242188 600.217773438 435.5390625 560.16796875 c 128,-1,50
 405.50390625 520.1171875 405.50390625 520.1171875 405.50390625 460.799804688 c 0,51,52
 405.50390625 393.215820312 405.50390625 393.215820312 456.704101562 342.015625 c 128,-1,53
 507.904296875 290.81640625 507.904296875 290.81640625 585.727539062 290.81640625 c 0,54,55
 701.135742188 290.81640625 701.135742188 290.81640625 788.25390625 369.772460938 c 1,56,-1
 526.5703125 638.609375 l 1,48,49
EndSplineSet
Fore
SplineSet
568 998 m 1,0,1
 639 1037 639 1037 674 1063 c 0,2,3
 733 1106 733 1106 733 1192 c 0,4,5
 733 1245 733 1245 693 1285 c 128,-1,6
 653 1325 653 1325 595 1325 c 128,-1,7
 537 1325 537 1325 497 1287 c 128,-1,8
 457 1249 457 1249 457 1176.5 c 128,-1,9
 457 1104 457 1104 512 1053 c 1,10,-1
 568 998 l 1,0,1
1278 797 m 1,11,12
 1264 593 1264 593 1172 404 c 1,13,-1
 1427 154 l 1,14,-1
 1196 -49 l 1,15,-1
 995 157 l 1,16,17
 815 -15 815 -15 594 -14.5 c 128,-1,18
 373 -14 373 -14 231.5 121 c 128,-1,19
 90 256 90 256 90 455 c 0,20,21
 90 698 90 698 317 854 c 1,22,-1
 297 874 l 2,23,24
 168 1009 168 1009 168 1182.5 c 128,-1,25
 168 1356 168 1356 294 1477.5 c 128,-1,26
 420 1599 420 1599 603 1599 c 128,-1,27
 786 1599 786 1599 907 1477.5 c 128,-1,28
 1028 1356 1028 1356 1028 1192 c 0,29,30
 1028 1086 1028 1086 976 992.5 c 128,-1,31
 924 899 924 899 842 840 c 0,32,33
 812 818 812 818 776 794 c 1,34,-1
 940 632 l 1,35,36
 965 710 965 710 979 797 c 1,37,-1
 1278 797 l 1,11,12
527 639 m 1,38,39
 466 601 466 601 436 560.5 c 128,-1,40
 406 520 406 520 406 456.5 c 128,-1,41
 406 393 406 393 457 342 c 128,-1,42
 508 291 508 291 586 291 c 0,43,44
 701 291 701 291 788 370 c 1,45,-1
 527 639 l 1,38,39
EndSplineSet
EndChar

StartChar: anudattadeva
Encoding: 2386 2386 136
Width: 0
VWidth: 0
Flags: W
LayerCount: 2
Back
SplineSet
-227.328125 -362.49609375 m 1,0,-1
 -227.328125 -202.751953125 l 1,1,-1
 -1304.57617188 -202.751953125 l 1,2,-1
 -1304.57617188 -362.49609375 l 1,3,-1
 -227.328125 -362.49609375 l 1,0,-1
EndSplineSet
Fore
SplineSet
-227 -362 m 1,0,-1
 -1305 -362 l 1,1,-1
 -1305 -203 l 1,2,-1
 -227 -203 l 1,3,-1
 -227 -362 l 1,0,-1
EndSplineSet
EndChar

StartChar: anusvaradeva
Encoding: 2306 2306 137
Width: 0
VWidth: 0
Flags: W
AnchorPoint: "DVAnchor3" -238 1556 mark 0
LayerCount: 2
Back
SplineSet
-358.400390625 1804.28808594 m 0,0,1
 -358.400390625 1753.08789062 -358.400390625 1753.08789062 -320.51171875 1714.17578125 c 128,-1,2
 -282.624023438 1675.26367188 -282.624023438 1675.26367188 -229.375976562 1675.26367188 c 128,-1,3
 -176.127929688 1675.26367188 -176.127929688 1675.26367188 -137.215820312 1713.15234375 c 128,-1,4
 -98.3037109375 1751.04003906 -98.3037109375 1751.04003906 -98.3037109375 1804.28808594 c 128,-1,5
 -98.3037109375 1857.53613281 -98.3037109375 1857.53613281 -137.215820312 1896.44824219 c 128,-1,6
 -176.127929688 1935.36035156 -176.127929688 1935.36035156 -229.375976562 1935.36035156 c 128,-1,7
 -282.624023438 1935.36035156 -282.624023438 1935.36035156 -320.51171875 1896.44824219 c 128,-1,8
 -358.400390625 1857.53613281 -358.400390625 1857.53613281 -358.400390625 1804.28808594 c 0,0,1
EndSplineSet
Fore
SplineSet
-320.5 1896.5 m 128,-1,1
 -283 1935 -283 1935 -229.5 1935 c 128,-1,2
 -176 1935 -176 1935 -137 1896.5 c 128,-1,3
 -98 1858 -98 1858 -98 1804.5 c 128,-1,4
 -98 1751 -98 1751 -137 1713 c 128,-1,5
 -176 1675 -176 1675 -229.5 1675 c 128,-1,6
 -283 1675 -283 1675 -320.5 1714 c 128,-1,7
 -358 1753 -358 1753 -358 1805.5 c 128,-1,0
 -358 1858 -358 1858 -320.5 1896.5 c 128,-1,1
EndSplineSet
EndChar

StartChar: aogonek
Encoding: 261 261 138
Width: 1189
VWidth: 0
Flags: W
LayerCount: 2
Back
SplineSet
1146.87988281 0 m 1,0,-1
 1146.87988281 274.431640625 l 1,1,-1
 1009.6640625 274.431640625 l 1,2,-1
 1009.6640625 651.263671875 l 2,3,4
 1009.6640625 1058.81640625 1009.6640625 1058.81640625 563.200195312 1058.81640625 c 0,5,6
 323.583984375 1058.81640625 323.583984375 1058.81640625 112.639648438 915.456054688 c 1,7,-1
 208.896484375 720.896484375 l 1,8,9
 342.015625 792.576171875 342.015625 792.576171875 512 792.576171875 c 0,10,11
 716.799804688 792.576171875 716.799804688 792.576171875 716.799804688 643.072265625 c 2,12,-1
 716.799804688 611.530273438 l 1,13,14
 602.077148438 636.927734375 602.077148438 636.927734375 479.232421875 636.927734375 c 0,15,16
 288.767578125 636.927734375 288.767578125 636.927734375 180.223632812 545.791992188 c 128,-1,17
 71.6796875 454.65625 71.6796875 454.65625 71.6796875 307.200195312 c 0,18,19
 71.6796875 161.791992188 71.6796875 161.791992188 178.17578125 68.6083984375 c 128,-1,20
 284.671875 -24.576171875 284.671875 -24.576171875 466.944335938 -24.576171875 c 0,21,22
 634.561523438 -24.576171875 634.561523438 -24.576171875 788.48046875 93.1572265625 c 1,23,-1
 788.48046875 0 l 1,24,25
 645.120117188 -86.015625 645.120117188 -86.015625 645.120117188 -237.568359375 c 0,26,27
 645.120117188 -364.543945312 645.120117188 -364.543945312 720.896484375 -424.959960938 c 128,-1,28
 796.671875 -485.375976562 796.671875 -485.375976562 925.696289062 -485.375976562 c 0,29,30
 968.704101562 -485.375976562 968.704101562 -485.375976562 1024 -472.064453125 c 128,-1,31
 1079.29589844 -458.751953125 1079.29589844 -458.751953125 1103.87207031 -444.416015625 c 1,32,-1
 1054.71972656 -278.528320312 l 1,33,34
 1005.56835938 -301.055664062 1005.56835938 -301.055664062 950.272460938 -301.055664062 c 0,35,36
 849.919921875 -301.055664062 849.919921875 -301.055664062 849.919921875 -202.751953125 c 0,37,38
 849.919921875 -122.879882812 849.919921875 -122.879882812 913.408203125 -61.4404296875 c 128,-1,39
 976.896484375 0 976.896484375 0 1097.72753906 0 c 2,40,-1
 1146.87988281 0 l 1,0,-1
716.799804688 421.887695312 m 1,41,-1
 716.799804688 289.979492188 l 1,42,43
 620.559570312 210.944335938 620.559570312 210.944335938 489.471679688 210.944335938 c 0,44,45
 423.935546875 210.944335938 423.935546875 210.944335938 389.120117188 240.639648438 c 128,-1,46
 354.303710938 270.3359375 354.303710938 270.3359375 354.303710938 319.48828125 c 0,47,48
 354.303710938 366.591796875 354.303710938 366.591796875 391.16796875 394.240234375 c 128,-1,49
 428.032226562 421.887695312 428.032226562 421.887695312 477.18359375 421.887695312 c 2,50,-1
 716.799804688 421.887695312 l 1,41,-1
EndSplineSet
Fore
SplineSet
1147 0 m 1,0,-1
 1098 0 l 2,1,2
 977 0 977 0 913.5 -61.5 c 128,-1,3
 850 -123 850 -123 850 -203 c 0,4,5
 850 -301 850 -301 950 -301 c 0,6,7
 1006 -302 1006 -302 1055 -279 c 1,8,-1
 1104 -444 l 1,9,10
 1079 -459 1079 -459 1024 -472 c 128,-1,11
 969 -485 969 -485 926 -485 c 0,12,13
 797 -485 797 -485 721 -425 c 128,-1,14
 645 -365 645 -365 645 -238 c 0,15,16
 645 -86 645 -86 788 0 c 1,17,-1
 788 93 l 1,18,19
 635 -25 635 -25 460 -25 c 128,-1,20
 285 -25 285 -25 178.5 68.5 c 128,-1,21
 72 162 72 162 72 308 c 0,22,23
 72 455 72 455 180.5 546 c 128,-1,24
 289 637 289 637 479 637 c 0,25,26
 602 637 602 637 717 612 c 1,27,-1
 717 643 l 2,28,29
 717 793 717 793 512 793 c 0,30,31
 342 793 342 793 209 721 c 1,32,-1
 113 915 l 1,33,34
 323 1059 323 1059 563 1059 c 0,35,36
 1010 1059 1010 1059 1010 651 c 2,37,-1
 1010 274 l 1,38,-1
 1147 274 l 1,39,-1
 1147 0 l 1,0,-1
717 422 m 1,40,-1
 477 422 l 2,41,42
 428 422 428 422 391 394 c 128,-1,43
 354 366 354 366 354 318 c 128,-1,44
 354 270 354 270 388.5 240.5 c 128,-1,45
 423 211 423 211 489 211 c 0,46,47
 621 211 621 211 717 290 c 1,48,-1
 717 422 l 1,40,-1
EndSplineSet
EndChar

StartChar: apostrophe
Encoding: 700 700 139
Width: 339
VWidth: 0
Flags: W
LayerCount: 2
Back
SplineSet
-4.095703125 1122.30371094 m 1,0,-1
 202.751953125 1050.62402344 l 1,1,-1
 399.360351562 1388.54394531 l 1,2,-1
 110.591796875 1492.9921875 l 1,3,-1
 -4.095703125 1122.30371094 l 1,0,-1
EndSplineSet
Fore
SplineSet
-4 1122 m 1,0,-1
 111 1493 l 1,1,-1
 399 1389 l 1,2,-1
 203 1051 l 1,3,-1
 -4 1122 l 1,0,-1
EndSplineSet
EndChar

StartChar: asciicircum
Encoding: 94 94 142
Width: 1228
VWidth: 0
Flags: W
LayerCount: 2
Back
SplineSet
507.904296875 1513.47167969 m 1,0,-1
 92.16015625 722.944335938 l 1,1,-1
 342.015625 722.944335938 l 1,2,-1
 616.012695312 1251.90917969 l 1,3,-1
 878.591796875 722.944335938 l 1,4,-1
 1134.59179688 722.944335938 l 1,5,-1
 731.135742188 1513.47167969 l 1,6,-1
 507.904296875 1513.47167969 l 1,0,-1
EndSplineSet
Fore
SplineSet
508 1513 m 1,0,-1
 731 1513 l 1,1,-1
 1135 723 l 1,2,-1
 879 723 l 1,3,-1
 616 1252 l 1,4,-1
 342 723 l 1,5,-1
 92 723 l 1,6,-1
 508 1513 l 1,0,-1
EndSplineSet
EndChar

StartChar: asciitilde
Encoding: 126 126 143
Width: 905
VWidth: 0
Flags: W
LayerCount: 2
Back
SplineSet
163.83984375 475.135742188 m 1,0,1
 165.887695312 589.82421875 165.887695312 589.82421875 260.095703125 589.82421875 c 0,2,3
 296.959960938 589.82421875 296.959960938 589.82421875 425.984375 519.16796875 c 128,-1,4
 555.0078125 448.51171875 555.0078125 448.51171875 634.879882812 448.51171875 c 0,5,6
 718.84765625 448.51171875 718.84765625 448.51171875 781.311523438 481.280273438 c 128,-1,7
 843.776367188 514.047851562 843.776367188 514.047851562 873.471679688 566.272460938 c 128,-1,8
 903.16796875 618.49609375 903.16796875 618.49609375 916.48046875 668.671875 c 128,-1,9
 929.791992188 718.84765625 929.791992188 718.84765625 929.791992188 770.047851562 c 1,10,-1
 745.471679688 811.0078125 l 1,11,12
 731.135742188 694.272460938 731.135742188 694.272460938 645.120117188 694.272460938 c 0,13,14
 604.16015625 694.272460938 604.16015625 694.272460938 458.751953125 766.975585938 c 128,-1,15
 313.34375 839.6796875 313.34375 839.6796875 264.192382812 839.6796875 c 0,16,17
 161.791992188 839.6796875 161.791992188 839.6796875 96.255859375 780.288085938 c 128,-1,18
 30.7197265625 720.896484375 30.7197265625 720.896484375 11.263671875 652.288085938 c 128,-1,19
 -8.1923828125 583.6796875 -8.1923828125 583.6796875 -8.1923828125 512 c 1,20,-1
 163.83984375 475.135742188 l 1,0,1
EndSplineSet
Fore
SplineSet
164 475 m 1,0,1
 -8 512 l 1,2,3
 -8 584 -8 584 11.5 652.5 c 128,-1,4
 31 721 31 721 96.5 780.5 c 128,-1,5
 162 840 162 840 264 840 c 0,6,7
 313 840 313 840 458.5 767 c 128,-1,8
 604 694 604 694 645 694 c 0,9,10
 731 694 731 694 745 811 c 1,11,-1
 930 770 l 1,12,13
 929 665 929 665 873 566 c 0,14,15
 844 514 844 514 781.5 481.5 c 128,-1,16
 719 449 719 449 637 449 c 128,-1,17
 555 449 555 449 426 519.5 c 128,-1,18
 297 590 297 590 260 590 c 0,19,20
 166 590 166 590 164 475 c 1,0,1
EndSplineSet
EndChar

StartChar: ashortdeva
Encoding: 2308 2308 144
Width: 2025
VWidth: 0
Flags: W
LayerCount: 2
Back
SplineSet
114.688476562 528.383789062 m 1,0,1
 223.232421875 307.200195312 223.232421875 307.200195312 371.711914062 212.9921875 c 128,-1,2
 520.192382812 118.784179688 520.192382812 118.784179688 675.83984375 118.784179688 c 0,3,4
 876.543945312 118.784179688 876.543945312 118.784179688 987.135742188 230.400390625 c 128,-1,5
 1097.72753906 342.015625 1097.72753906 342.015625 1097.72753906 503.807617188 c 0,6,7
 1097.72753906 683.990234375 1097.72753906 683.990234375 932.374023438 800.087890625 c 1,8,9
 1081.34375 917.604492188 1081.34375 917.604492188 1081.34375 1099.77636719 c 0,10,11
 1081.34375 1259.51953125 1081.34375 1259.51953125 968.704101562 1351.6796875 c 128,-1,12
 856.064453125 1443.83984375 856.064453125 1443.83984375 655.360351562 1443.83984375 c 0,13,14
 567.295898438 1443.83984375 567.295898438 1443.83984375 456.704101562 1398.78417969 c 128,-1,15
 346.112304688 1353.72753906 346.112304688 1353.72753906 278.528320312 1290.24023438 c 1,16,-1
 380.927734375 1099.77636719 l 1,17,18
 385.024414062 1101.82421875 385.024414062 1101.82421875 414.719726562 1118.20800781 c 128,-1,19
 444.416015625 1134.59179688 444.416015625 1134.59179688 462.84765625 1143.80761719 c 128,-1,20
 481.280273438 1153.02441406 481.280273438 1153.02441406 514.047851562 1166.3359375 c 128,-1,21
 546.81640625 1179.6484375 546.81640625 1179.6484375 579.583984375 1185.79199219 c 128,-1,22
 612.3515625 1191.93554688 612.3515625 1191.93554688 645.120117188 1191.93554688 c 0,23,24
 704.51171875 1191.93554688 704.51171875 1191.93554688 745.471679688 1167.36035156 c 128,-1,25
 786.431640625 1142.78417969 786.431640625 1142.78417969 790.528320312 1093.63183594 c 0,26,27
 794.624023438 1032.19238281 794.624023438 1032.19238281 759.807617188 989.18359375 c 128,-1,28
 724.9921875 946.17578125 724.9921875 946.17578125 649.215820312 946.17578125 c 2,29,-1
 518.143554688 946.17578125 l 1,30,-1
 518.143554688 688.127929688 l 1,31,-1
 620.543945312 688.127929688 l 2,32,33
 817.15234375 688.127929688 817.15234375 688.127929688 817.15234375 526.3359375 c 0,34,35
 817.15234375 466.944335938 817.15234375 466.944335938 776.192382812 427.0078125 c 128,-1,36
 735.232421875 387.072265625 735.232421875 387.072265625 661.50390625 387.072265625 c 0,37,38
 563.200195312 387.072265625 563.200195312 387.072265625 483.328125 445.440429688 c 128,-1,39
 403.456054688 503.807617188 403.456054688 503.807617188 315.391601562 645.120117188 c 1,40,-1
 114.688476562 528.383789062 l 1,0,1
720.896484375 1892.3515625 m 1,41,-1
 720.896484375 1781.75976562 l 2,42,43
 720.896484375 1658.87988281 720.896484375 1658.87988281 816.127929688 1582.08007812 c 128,-1,44
 911.360351562 1505.28027344 911.360351562 1505.28027344 1058.81640625 1505.28027344 c 2,45,-1
 1275.90429688 1505.28027344 l 2,46,47
 1280.4140625 1505.28027344 1280.4140625 1505.28027344 1289.29492188 1505.30957031 c 0,48,49
 1320.41503906 1505.41210938 1320.41503906 1505.41210938 1335.57226562 1504.82519531 c 128,-1,50
 1350.72851562 1504.23730469 1350.72851562 1504.23730469 1373.45800781 1499.9921875 c 128,-1,51
 1396.18847656 1495.74707031 1396.18847656 1495.74707031 1407.31738281 1487.05957031 c 128,-1,52
 1418.44628906 1478.37304688 1418.44628906 1478.37304688 1428.27929688 1461.40136719 c 128,-1,53
 1438.11328125 1444.4296875 1438.11328125 1444.4296875 1440.70898438 1419.26367188 c 1,54,-1
 1150.97558594 1419.26367188 l 1,55,-1
 1150.97558594 1161.21582031 l 1,56,-1
 1441.79199219 1161.21582031 l 1,57,-1
 1441.79199219 731.135742188 l 1,58,-1
 1216.51171875 731.135742188 l 1,59,-1
 1216.51171875 473.087890625 l 1,60,-1
 1441.79199219 473.087890625 l 1,61,-1
 1441.79199219 233.471679688 l 1,62,-1
 1284.09570312 233.471679688 l 1,63,-1
 1284.09570312 0 l 1,64,-1
 1441.79199219 0 l 1,65,-1
 1757.18359375 0 l 1,66,-1
 1914.87988281 0 l 1,67,-1
 1914.87988281 233.471679688 l 1,68,-1
 1757.18359375 233.471679688 l 1,69,-1
 1757.18359375 1161.21582031 l 1,70,-1
 2045.95214844 1161.21582031 l 1,71,-1
 2045.95214844 1419.26367188 l 1,72,-1
 1757.18359375 1419.26367188 l 1,73,-1
 1757.18359375 1505.28027344 l 2,74,75
 1757.18359375 1628.16015625 1757.18359375 1628.16015625 1667.07226562 1695.74414062 c 128,-1,76
 1576.95996094 1763.328125 1576.95996094 1763.328125 1441.79199219 1763.328125 c 2,77,-1
 1071.10351562 1763.328125 l 2,78,79
 997.375976562 1763.328125 997.375976562 1763.328125 971.776367188 1779.71191406 c 128,-1,80
 946.17578125 1796.09570312 946.17578125 1796.09570312 946.17578125 1849.34375 c 2,81,-1
 946.17578125 1892.3515625 l 1,82,-1
 720.896484375 1892.3515625 l 1,41,-1
EndSplineSet
Fore
SplineSet
115 528 m 1,0,1
 315 645 l 1,2,3
 403 504 403 504 483 445.5 c 128,-1,4
 563 387 563 387 649 387 c 128,-1,5
 735 387 735 387 776 427 c 128,-1,6
 817 467 817 467 817 526 c 0,7,8
 818 688 818 688 621 688 c 2,9,-1
 518 688 l 1,10,-1
 518 946 l 1,11,-1
 649 946 l 2,12,13
 725 946 725 946 760 989 c 128,-1,14
 795 1032 795 1032 790.5 1087.5 c 128,-1,15
 786 1143 786 1143 745.5 1167.5 c 128,-1,16
 705 1192 705 1192 641 1192 c 128,-1,17
 577 1192 577 1192 514 1166 c 0,18,19
 481 1153 481 1153 462.5 1144 c 128,-1,20
 444 1135 444 1135 414.5 1118.5 c 128,-1,21
 385 1102 385 1102 381 1100 c 1,22,-1
 279 1290 l 1,23,24
 346 1354 346 1354 456.5 1399 c 128,-1,25
 567 1444 567 1444 655 1444 c 0,26,27
 856 1444 856 1444 968.5 1352 c 128,-1,28
 1081 1260 1081 1260 1081 1089 c 128,-1,29
 1081 918 1081 918 932 800 c 1,30,31
 1098 684 1098 684 1098 513 c 128,-1,32
 1098 342 1098 342 987.5 230.5 c 128,-1,33
 877 119 877 119 676 119 c 0,34,35
 520 119 520 119 372 213 c 128,-1,36
 224 307 224 307 115 528 c 1,0,1
721 1892 m 1,37,-1
 946 1892 l 1,38,-1
 946 1849 l 2,39,40
 946 1796 946 1796 971.5 1779.5 c 128,-1,41
 997 1763 997 1763 1071 1763 c 2,42,-1
 1442 1763 l 2,43,44
 1577 1763 1577 1763 1667 1695.5 c 128,-1,45
 1757 1628 1757 1628 1757 1505 c 2,46,-1
 1757 1419 l 1,47,-1
 2046 1419 l 1,48,-1
 2046 1161 l 1,49,-1
 1757 1161 l 1,50,-1
 1757 233 l 1,51,-1
 1915 233 l 1,52,-1
 1915 0 l 1,53,-1
 1284 0 l 1,54,-1
 1284 233 l 1,55,-1
 1442 233 l 1,56,-1
 1442 473 l 1,57,-1
 1217 473 l 1,58,-1
 1217 731 l 1,59,-1
 1442 731 l 1,60,-1
 1442 1161 l 1,61,-1
 1151 1161 l 1,62,-1
 1151 1419 l 1,63,-1
 1441 1419 l 1,64,65
 1436 1465 1436 1465 1407 1487 c 0,66,67
 1396 1496 1396 1496 1373.5 1500 c 128,-1,68
 1351 1504 1351 1504 1335.5 1504.5 c 128,-1,69
 1320 1505 1320 1505 1300.5 1505 c 128,-1,70
 1281 1505 1281 1505 1276 1505 c 2,71,-1
 1059 1505 l 2,72,73
 911 1505 911 1505 816 1582 c 128,-1,74
 721 1659 721 1659 721 1782 c 2,75,-1
 721 1892 l 1,37,-1
EndSplineSet
EndChar

StartChar: asterisk
Encoding: 42 42 145
Width: 1007
VWidth: 0
Flags: W
LayerCount: 2
Back
SplineSet
706.04296875 1127.03808594 m 1,0,-1
 946.17578125 1204.22363281 l 1,1,-1
 868.3515625 1441.79199219 l 1,2,-1
 628.736328125 1364.31152344 l 1,3,-1
 628.736328125 1615.87207031 l 1,4,-1
 378.879882812 1615.87207031 l 1,5,-1
 378.879882812 1364.31152344 l 1,6,-1
 139.263671875 1441.79199219 l 1,7,-1
 61.4404296875 1204.22363281 l 1,8,-1
 301.573242188 1127.03808594 l 1,9,-1
 153.599609375 921.599609375 l 1,10,-1
 356.3515625 774.143554688 l 1,11,-1
 503.807617188 980.295898438 l 1,12,-1
 651.263671875 774.143554688 l 1,13,-1
 854.015625 921.599609375 l 1,14,-1
 706.04296875 1127.03808594 l 1,0,-1
EndSplineSet
Fore
SplineSet
706 1127 m 1,0,-1
 854 922 l 1,1,-1
 651 774 l 1,2,-1
 504 980 l 1,3,-1
 356 774 l 1,4,-1
 154 922 l 1,5,-1
 302 1127 l 1,6,-1
 61 1204 l 1,7,-1
 139 1442 l 1,8,-1
 379 1364 l 1,9,-1
 379 1616 l 1,10,-1
 629 1616 l 1,11,-1
 629 1364 l 1,12,-1
 868 1442 l 1,13,-1
 946 1204 l 1,14,-1
 706 1127 l 1,0,-1
EndSplineSet
EndChar

StartChar: at
Encoding: 64 64 146
Width: 2267
VWidth: 0
Flags: W
LayerCount: 2
Back
SplineSet
1320.95996094 555.84375 m 1,0,-1
 1320.95996094 395.862304688 l 1,1,2
 1300.92773438 358.75390625 1300.92773438 358.75390625 1271.48828125 331.868164062 c 128,-1,3
 1242.04882812 304.981445312 1242.04882812 304.981445312 1205.93945312 290.73046875 c 128,-1,4
 1169.83105469 276.48046875 1169.83105469 276.48046875 1130.49609375 276.48046875 c 0,5,6
 1044.48046875 276.48046875 1044.48046875 276.48046875 985.087890625 333.82421875 c 128,-1,7
 925.696289062 391.16796875 925.696289062 391.16796875 925.696289062 479.232421875 c 0,8,9
 925.696289062 565.248046875 925.696289062 565.248046875 987.135742188 625.6640625 c 128,-1,10
 1048.57617188 686.080078125 1048.57617188 686.080078125 1132.54394531 686.080078125 c 0,11,12
 1192.36132812 686.080078125 1192.36132812 686.080078125 1243.82421875 650.177734375 c 128,-1,13
 1295.28808594 614.276367188 1295.28808594 614.276367188 1320.95996094 555.84375 c 1,0,-1
1399.46777344 88.9140625 m 1,14,15
 1484.56054688 -18.431640625 1484.56054688 -18.431640625 1640.44824219 -18.431640625 c 0,16,17
 1783.80761719 -18.431640625 1783.80761719 -18.431640625 1892.3515625 66.5595703125 c 128,-1,18
 2000.89648438 151.551757812 2000.89648438 151.551757812 2052.09570312 277.50390625 c 128,-1,19
 2103.29589844 403.456054688 2103.29589844 403.456054688 2103.29589844 542.719726562 c 0,20,21
 2103.29589844 784.383789062 2103.29589844 784.383789062 1976.3203125 993.280273438 c 128,-1,22
 1849.34375 1202.17578125 1849.34375 1202.17578125 1628.16015625 1325.05566406 c 128,-1,23
 1406.97558594 1447.93554688 1406.97558594 1447.93554688 1144.83203125 1447.93554688 c 0,24,25
 884.736328125 1447.93554688 884.736328125 1447.93554688 664.576171875 1320.95996094 c 128,-1,26
 444.416015625 1193.984375 444.416015625 1193.984375 316.416015625 973.82421875 c 128,-1,27
 188.416015625 753.6640625 188.416015625 753.6640625 188.416015625 493.568359375 c 128,-1,28
 188.416015625 233.471679688 188.416015625 233.471679688 316.416015625 13.3115234375 c 128,-1,29
 444.416015625 -206.84765625 444.416015625 -206.84765625 664.576171875 -334.84765625 c 128,-1,30
 884.736328125 -462.84765625 884.736328125 -462.84765625 1144.83203125 -462.84765625 c 0,31,32
 1411.07226562 -462.84765625 1411.07226562 -462.84765625 1671.16796875 -307.200195312 c 1,33,-1
 1533.95214844 -79.8720703125 l 1,34,35
 1333.24804688 -198.65625 1333.24804688 -198.65625 1144.83203125 -198.65625 c 0,36,37
 858.112304688 -198.65625 858.112304688 -198.65625 656.383789062 4.095703125 c 128,-1,38
 454.65625 206.84765625 454.65625 206.84765625 454.65625 493.568359375 c 128,-1,39
 454.65625 780.288085938 454.65625 780.288085938 656.383789062 982.015625 c 128,-1,40
 858.112304688 1183.74414062 858.112304688 1183.74414062 1144.83203125 1183.74414062 c 128,-1,41
 1431.55175781 1183.74414062 1431.55175781 1183.74414062 1635.328125 992.255859375 c 128,-1,42
 1839.10351562 800.767578125 1839.10351562 800.767578125 1839.10351562 540.671875 c 0,43,44
 1839.10351562 454.65625 1839.10351562 454.65625 1826.81640625 386.047851562 c 128,-1,45
 1814.52832031 317.440429688 1814.52832031 317.440429688 1775.61621094 264.192382812 c 128,-1,46
 1736.70410156 210.944335938 1736.70410156 210.944335938 1675.26367188 210.944335938 c 0,47,48
 1607.6796875 210.944335938 1607.6796875 210.944335938 1607.6796875 309.248046875 c 2,49,-1
 1607.6796875 956.416015625 l 1,50,-1
 1320.95996094 956.416015625 l 1,51,-1
 1320.95996094 925.030273438 l 1,52,53
 1219.85644531 968.704101562 1219.85644531 968.704101562 1110.015625 968.704101562 c 0,54,55
 901.120117188 968.704101562 901.120117188 968.704101562 761.856445312 823.295898438 c 128,-1,56
 622.591796875 677.887695312 622.591796875 677.887695312 622.591796875 479.232421875 c 0,57,58
 622.591796875 276.48046875 622.591796875 276.48046875 768 130.047851562 c 128,-1,59
 913.408203125 -16.3837890625 913.408203125 -16.3837890625 1130.49609375 -16.3837890625 c 0,60,61
 1198.02441406 -16.3837890625 1198.02441406 -16.3837890625 1270.40234375 12.0009765625 c 128,-1,62
 1342.78027344 40.3857421875 1342.78027344 40.3857421875 1399.46777344 88.9140625 c 1,14,15
EndSplineSet
Fore
SplineSet
1321 556 m 1,0,1
 1295 614 1295 614 1243.5 650 c 128,-1,2
 1192 686 1192 686 1120.5 686 c 128,-1,3
 1049 686 1049 686 987.5 625.5 c 128,-1,4
 926 565 926 565 926 478 c 128,-1,5
 926 391 926 391 985 333.5 c 128,-1,6
 1044 276 1044 276 1130 276 c 0,7,8
 1170 277 1170 277 1206 291 c 0,9,10
 1280 320 1280 320 1321 396 c 1,11,-1
 1321 556 l 1,0,1
1399 89 m 1,12,13
 1342 40 1342 40 1270 12 c 128,-1,14
 1198 -16 1198 -16 1130 -16 c 0,15,16
 913 -16 913 -16 768 130 c 128,-1,17
 623 276 623 276 623 477 c 128,-1,18
 623 678 623 678 762 823.5 c 128,-1,19
 901 969 901 969 1110 969 c 0,20,21
 1220 969 1220 969 1321 925 c 1,22,-1
 1321 956 l 1,23,-1
 1608 956 l 1,24,-1
 1608 309 l 2,25,26
 1607 211 1607 211 1675 211 c 0,27,28
 1737 211 1737 211 1776 264 c 0,29,30
 1839 351 1839 351 1839 541 c 0,31,32
 1839 801 1839 801 1635.5 992.5 c 128,-1,33
 1432 1184 1432 1184 1145 1184 c 128,-1,34
 858 1184 858 1184 656.5 982 c 128,-1,35
 455 780 455 780 455 493.5 c 128,-1,36
 455 207 455 207 656.5 4 c 128,-1,37
 858 -199 858 -199 1145 -199 c 0,38,39
 1333 -199 1333 -199 1534 -80 c 1,40,-1
 1671 -307 l 1,41,42
 1411 -463 1411 -463 1148 -463 c 128,-1,43
 885 -463 885 -463 664.5 -335 c 128,-1,44
 444 -207 444 -207 316 13 c 128,-1,45
 188 233 188 233 188 493.5 c 128,-1,46
 188 754 188 754 316 974 c 128,-1,47
 444 1194 444 1194 664.5 1321 c 128,-1,48
 885 1448 885 1448 1146 1448 c 128,-1,49
 1407 1448 1407 1448 1628 1325 c 128,-1,50
 1849 1202 1849 1202 1976 993.5 c 128,-1,51
 2103 785 2103 785 2103 543 c 0,52,53
 2103 403 2103 403 2052 277.5 c 128,-1,54
 2001 152 2001 152 1892.5 67 c 128,-1,55
 1784 -18 1784 -18 1634 -18 c 128,-1,56
 1484 -18 1484 -18 1399 89 c 1,12,13
EndSplineSet
EndChar

StartChar: ausign_ra_virama_anusvara
Encoding: 65548 -1 150
Width: 856
VWidth: 0
Flags: W
LayerCount: 2
Back
SplineSet
786.431640625 1603.58398438 m 0,0,1
 786.431640625 1552.38378906 786.431640625 1552.38378906 825.34375 1513.47167969 c 128,-1,2
 864.255859375 1474.55957031 864.255859375 1474.55957031 915.456054688 1474.55957031 c 0,3,4
 968.704101562 1474.55957031 968.704101562 1474.55957031 1007.61621094 1512.44824219 c 128,-1,5
 1046.52832031 1550.3359375 1046.52832031 1550.3359375 1046.52832031 1603.58398438 c 128,-1,6
 1046.52832031 1656.83203125 1046.52832031 1656.83203125 1007.61621094 1695.74414062 c 128,-1,7
 968.704101562 1734.65625 968.704101562 1734.65625 915.456054688 1734.65625 c 128,-1,8
 862.208007812 1734.65625 862.208007812 1734.65625 824.3203125 1695.74414062 c 128,-1,9
 786.431640625 1656.83203125 786.431640625 1656.83203125 786.431640625 1603.58398438 c 0,0,1
-38.912109375 1536 m 1,10,-1
 22.5283203125 1536 l 2,11,12
 93.1787109375 1536 93.1787109375 1536 129.176757812 1515.40917969 c 128,-1,13
 165.174804688 1494.81738281 165.174804688 1494.81738281 222.249023438 1419.26367188 c 1,14,-1
 -20.48046875 1419.26367188 l 1,15,-1
 -20.48046875 1161.21582031 l 1,16,-1
 270.3359375 1161.21582031 l 1,17,-1
 270.3359375 233.471679688 l 1,18,-1
 112.639648438 233.471679688 l 1,19,-1
 112.639648438 0 l 1,20,-1
 270.3359375 0 l 1,21,-1
 585.727539062 0 l 1,22,-1
 743.423828125 0 l 1,23,-1
 743.423828125 233.471679688 l 1,24,-1
 585.727539062 233.471679688 l 1,25,-1
 585.727539062 1161.21582031 l 1,26,-1
 876.543945312 1161.21582031 l 1,27,-1
 876.543945312 1419.26367188 l 1,28,-1
 572.831054688 1419.26367188 l 1,29,30
 550.943359375 1505.359375 550.943359375 1505.359375 571.391601562 1556.48046875 c 0,31,32
 604.16015625 1634.30371094 604.16015625 1634.30371094 716.799804688 1634.30371094 c 2,33,-1
 751.616210938 1634.30371094 l 1,34,-1
 751.616210938 1890.30371094 l 1,35,-1
 667.6484375 1890.30371094 l 2,36,37
 570.8046875 1890.30371094 570.8046875 1890.30371094 488.30078125 1856.10644531 c 128,-1,38
 405.796875 1821.90820312 405.796875 1821.90820312 356.43359375 1759.234375 c 1,39,-1
 315.391601562 1830.91210938 l 2,40,41
 237.568359375 1968.12792969 237.568359375 1968.12792969 -22.5283203125 1968.12792969 c 2,42,-1
 -122.879882812 1968.12792969 l 1,43,-1
 -122.879882812 1794.04785156 l 1,44,-1
 -61.4404296875 1794.04785156 l 2,45,46
 38.9677734375 1794.04785156 38.9677734375 1794.04785156 91.3876953125 1766.65429688 c 128,-1,47
 143.80859375 1739.25976562 143.80859375 1739.25976562 210.517578125 1656.80566406 c 1,48,49
 139.736328125 1710.08007812 139.736328125 1710.08007812 61.4404296875 1710.08007812 c 2,50,-1
 -38.912109375 1710.08007812 l 1,51,-1
 -38.912109375 1536 l 1,10,-1
EndSplineSet
Fore
SplineSet
824 1696 m 128,-1,1
 862 1735 862 1735 915.5 1735 c 128,-1,2
 969 1735 969 1735 1008 1696 c 128,-1,3
 1047 1657 1047 1657 1047 1603.5 c 128,-1,4
 1047 1550 1047 1550 1008 1512.5 c 128,-1,5
 969 1475 969 1475 916.5 1475 c 128,-1,6
 864 1475 864 1475 825 1513.5 c 128,-1,7
 786 1552 786 1552 786 1604.5 c 128,-1,0
 786 1657 786 1657 824 1696 c 128,-1,1
-39 1536 m 1,8,-1
 -39 1710 l 1,9,-1
 61 1710 l 2,10,11
 140 1710 140 1710 211 1657 c 1,12,13
 144 1739 144 1739 91.5 1766.5 c 128,-1,14
 39 1794 39 1794 -61 1794 c 2,15,-1
 -123 1794 l 1,16,-1
 -123 1968 l 1,17,-1
 -23 1968 l 2,18,19
 237 1968 237 1968 315 1831 c 2,20,-1
 356 1759 l 1,21,22
 406 1822 406 1822 488.5 1856 c 128,-1,23
 571 1890 571 1890 668 1890 c 2,24,-1
 752 1890 l 1,25,-1
 752 1634 l 1,26,-1
 717 1634 l 2,27,28
 604 1634 604 1634 571 1556 c 0,29,30
 551 1505 551 1505 573 1419 c 1,31,-1
 877 1419 l 1,32,-1
 877 1161 l 1,33,-1
 586 1161 l 1,34,-1
 586 233 l 1,35,-1
 743 233 l 1,36,-1
 743 0 l 1,37,-1
 113 0 l 1,38,-1
 113 233 l 1,39,-1
 270 233 l 1,40,-1
 270 1161 l 1,41,-1
 -20 1161 l 1,42,-1
 -20 1419 l 1,43,-1
 222 1419 l 1,44,45
 165 1495 165 1495 129.5 1515.5 c 128,-1,46
 94 1536 94 1536 23 1536 c 2,47,-1
 -39 1536 l 1,8,-1
EndSplineSet
Ligature2: "AboveBaseSubstitutionslookup subtable" ausigndeva radeva_viramadeva anusvaradeva
EndChar

StartChar: avagrahacombiningsigndeva
Encoding: 43249 43249 153
Width: 0
VWidth: 0
Flags: W
AnchorPoint: "DVAnchor3" -281 1395 mark 0
LayerCount: 2
Back
SplineSet
-116.736328125 2242.55957031 m 1,0,-1
 -290.81640625 2242.55957031 l 2,1,2
 -598.015625 2242.55957031 -598.015625 2242.55957031 -598.015625 2033.6640625 c 0,3,4
 -598.015625 1937.40820312 -598.015625 1937.40820312 -527.360351562 1878.015625 c 128,-1,5
 -456.704101562 1818.62402344 -456.704101562 1818.62402344 -319.48828125 1818.62402344 c 2,6,-1
 -278.528320312 1818.62402344 l 2,7,8
 -204.799804688 1818.62402344 -204.799804688 1818.62402344 -168.959960938 1788.92773438 c 128,-1,9
 -133.120117188 1759.23242188 -133.120117188 1759.23242188 -133.120117188 1722.36816406 c 0,10,11
 -133.120117188 1662.97558594 -133.120117188 1662.97558594 -177.15234375 1635.328125 c 128,-1,12
 -221.18359375 1607.6796875 -221.18359375 1607.6796875 -276.48046875 1607.6796875 c 0,13,14
 -446.463867188 1607.6796875 -446.463867188 1607.6796875 -552.959960938 1759.23242188 c 1,15,-1
 -655.360351562 1685.50390625 l 1,16,17
 -591.872070312 1591.29589844 -591.872070312 1591.29589844 -492.543945312 1538.04785156 c 128,-1,18
 -393.215820312 1484.79980469 -393.215820312 1484.79980469 -276.48046875 1484.79980469 c 0,19,20
 -167.935546875 1484.79980469 -167.935546875 1484.79980469 -84.9921875 1546.24023438 c 128,-1,21
 -2.0478515625 1607.6796875 -2.0478515625 1607.6796875 -2.0478515625 1722.36816406 c 0,22,23
 -2.0478515625 1757.18359375 -2.0478515625 1757.18359375 -12.2880859375 1789.95214844 c 128,-1,24
 -22.5283203125 1822.71972656 -22.5283203125 1822.71972656 -49.15234375 1859.58398438 c 128,-1,25
 -75.7763671875 1896.44824219 -75.7763671875 1896.44824219 -134.143554688 1918.97558594 c 128,-1,26
 -192.51171875 1941.50390625 -192.51171875 1941.50390625 -278.528320312 1941.50390625 c 2,27,-1
 -319.48828125 1941.50390625 l 2,28,29
 -385.024414062 1941.50390625 -385.024414062 1941.50390625 -425.984375 1965.05566406 c 128,-1,30
 -466.944335938 1988.60839844 -466.944335938 1988.60839844 -466.944335938 2033.6640625 c 0,31,32
 -466.944335938 2119.6796875 -466.944335938 2119.6796875 -290.81640625 2119.6796875 c 2,33,-1
 -116.736328125 2119.6796875 l 1,34,-1
 -116.736328125 2242.55957031 l 1,0,-1
EndSplineSet
Fore
SplineSet
-117 2243 m 1,0,-1
 -117 2120 l 1,1,-1
 -291 2120 l 2,2,3
 -467 2120 -467 2120 -467 2034 c 0,4,5
 -467 1989 -467 1989 -426 1965.5 c 128,-1,6
 -385 1942 -385 1942 -319 1942 c 2,7,-1
 -279 1942 l 2,8,9
 -108 1942 -108 1942 -49 1860 c 0,10,11
 -2 1794 -2 1794 -2 1722 c 0,12,13
 -2 1608 -2 1608 -85 1546.5 c 128,-1,14
 -168 1485 -168 1485 -280.5 1485 c 128,-1,15
 -393 1485 -393 1485 -492.5 1538.5 c 128,-1,16
 -592 1592 -592 1592 -655 1686 c 1,17,-1
 -553 1759 l 1,18,19
 -446 1608 -446 1608 -276 1608 c 0,20,21
 -221 1608 -221 1608 -177 1635.5 c 128,-1,22
 -133 1663 -133 1663 -133 1711 c 128,-1,23
 -133 1759 -133 1759 -169 1789 c 128,-1,24
 -205 1819 -205 1819 -279 1819 c 2,25,-1
 -319 1819 l 2,26,27
 -457 1819 -457 1819 -527.5 1878.5 c 128,-1,28
 -598 1938 -598 1938 -598 2034 c 0,29,30
 -598 2243 -598 2243 -291 2243 c 2,31,-1
 -117 2243 l 1,0,-1
EndSplineSet
EndChar

StartChar: avagrahadeva
Encoding: 2365 2365 154
Width: 1355
VWidth: 0
Flags: W
LayerCount: 2
Back
SplineSet
112.639648438 174.080078125 m 1,0,1
 202.751953125 79.8720703125 202.751953125 79.8720703125 354.303710938 10.240234375 c 128,-1,2
 505.856445312 -59.3916015625 505.856445312 -59.3916015625 649.215820312 -59.3916015625 c 0,3,4
 739.328125 -59.3916015625 739.328125 -59.3916015625 826.368164062 -35.83984375 c 128,-1,5
 913.408203125 -12.2880859375 913.408203125 -12.2880859375 994.303710938 36.8642578125 c 128,-1,6
 1075.20019531 86.015625 1075.20019531 86.015625 1124.3515625 177.15234375 c 128,-1,7
 1173.50390625 268.288085938 1173.50390625 268.288085938 1173.50390625 387.072265625 c 0,8,9
 1173.50390625 667.6484375 1173.50390625 667.6484375 872.448242188 770.047851562 c 1,10,-1
 686.080078125 831.48828125 l 2,11,12
 679.935546875 833.536132812 679.935546875 833.536132812 638.975585938 845.82421875 c 128,-1,13
 598.015625 858.112304688 598.015625 858.112304688 573.440429688 868.3515625 c 128,-1,14
 548.864257812 878.591796875 548.864257812 878.591796875 515.072265625 897.024414062 c 128,-1,15
 481.280273438 915.456054688 481.280273438 915.456054688 464.896484375 937.984375 c 128,-1,16
 448.51171875 960.51171875 448.51171875 960.51171875 448.51171875 989.18359375 c 0,17,18
 448.51171875 1120.25585938 448.51171875 1120.25585938 614.400390625 1120.25585938 c 2,19,-1
 1099.77636719 1120.25585938 l 1,20,-1
 1099.77636719 1419.26367188 l 1,21,-1
 702.463867188 1419.26367188 l 2,22,23
 565.248046875 1419.26367188 565.248046875 1419.26367188 460.799804688 1392.63964844 c 128,-1,24
 356.3515625 1366.015625 356.3515625 1366.015625 295.935546875 1326.08007812 c 128,-1,25
 235.51953125 1286.14355469 235.51953125 1286.14355469 197.631835938 1231.87207031 c 128,-1,26
 159.744140625 1177.59960938 159.744140625 1177.59960938 147.456054688 1130.49609375 c 128,-1,27
 135.16796875 1083.39160156 135.16796875 1083.39160156 135.16796875 1032.19238281 c 0,28,29
 135.16796875 944.127929688 135.16796875 944.127929688 161.791992188 879.616210938 c 128,-1,30
 188.416015625 815.103515625 188.416015625 815.103515625 247.807617188 768 c 128,-1,31
 307.200195312 720.896484375 307.200195312 720.896484375 372.736328125 688.127929688 c 128,-1,32
 438.272460938 655.360351562 438.272460938 655.360351562 544.767578125 616.448242188 c 2,33,-1
 727.040039062 550.912109375 l 2,34,35
 856.064453125 503.807617188 856.064453125 503.807617188 856.064453125 401.408203125 c 0,36,37
 856.064453125 327.6796875 856.064453125 327.6796875 804.864257812 279.551757812 c 128,-1,38
 753.6640625 231.423828125 753.6640625 231.423828125 643.072265625 231.423828125 c 0,39,40
 419.83984375 231.423828125 419.83984375 231.423828125 280.576171875 376.83203125 c 1,41,-1
 112.639648438 174.080078125 l 1,0,1
EndSplineSet
Fore
SplineSet
113 174 m 1,0,1
 281 377 l 1,2,3
 420 231 420 231 643 231 c 0,4,5
 754 231 754 231 805 279 c 128,-1,6
 856 327 856 327 856 401 c 0,7,8
 856 504 856 504 727 551 c 2,9,-1
 545 616 l 2,10,11
 349 688 349 688 248 768 c 0,12,13
 188 815 188 815 161.5 879.5 c 128,-1,14
 135 944 135 944 135.5 1043.5 c 128,-1,15
 136 1143 136 1143 198 1232 c 0,16,17
 328 1419 328 1419 702 1419 c 2,18,-1
 1100 1419 l 1,19,-1
 1100 1120 l 1,20,-1
 614 1120 l 2,21,22
 449 1120 449 1120 449 989 c 0,23,24
 448 933 448 933 515 897 c 0,25,26
 549 879 549 879 573.5 868.5 c 128,-1,27
 598 858 598 858 639 845.5 c 128,-1,28
 680 833 680 833 686 831 c 2,29,-1
 872 770 l 1,30,31
 1174 668 1174 668 1174 387 c 0,32,33
 1174 268 1174 268 1124.5 177 c 128,-1,34
 1075 86 1075 86 994 37 c 128,-1,35
 913 -12 913 -12 826 -35.5 c 128,-1,36
 739 -59 739 -59 622.5 -59 c 128,-1,37
 506 -59 506 -59 354.5 10.5 c 128,-1,38
 203 80 203 80 113 174 c 1,0,1
EndSplineSet
EndChar

StartChar: awsigndeva
Encoding: 2383 2383 156
Width: 856
VWidth: 0
Flags: W
LayerCount: 2
Back
SplineSet
-718.84765625 1849.34375 m 1,0,-1
 -718.84765625 1738.75195312 l 2,1,2
 -718.84765625 1615.87207031 -718.84765625 1615.87207031 -623.616210938 1539.07226562 c 128,-1,3
 -528.383789062 1462.27246094 -528.383789062 1462.27246094 -380.927734375 1462.27246094 c 2,4,-1
 102.400390625 1462.27246094 l 2,5,6
 106.91015625 1462.27246094 106.91015625 1462.27246094 115.791015625 1462.30078125 c 0,7,8
 156.74609375 1462.43652344 156.74609375 1462.43652344 176.875 1461.01660156 c 128,-1,9
 197.00390625 1459.59570312 197.00390625 1459.59570312 220.59765625 1449.63378906 c 128,-1,10
 244.19140625 1439.671875 244.19140625 1439.671875 255.224609375 1419.26367188 c 1,11,-1
 -20.48046875 1419.26367188 l 1,12,-1
 -20.48046875 1161.21582031 l 1,13,-1
 270.3359375 1161.21582031 l 1,14,-1
 270.3359375 233.471679688 l 1,15,-1
 112.639648438 233.471679688 l 1,16,-1
 112.639648438 0 l 1,17,-1
 270.3359375 0 l 1,18,-1
 585.727539062 0 l 1,19,-1
 743.423828125 0 l 1,20,-1
 743.423828125 233.471679688 l 1,21,-1
 585.727539062 233.471679688 l 1,22,-1
 585.727539062 1161.21582031 l 1,23,-1
 874.49609375 1161.21582031 l 1,24,-1
 874.49609375 1419.26367188 l 1,25,-1
 585.727539062 1419.26367188 l 1,26,-1
 585.727539062 1634.30371094 l 2,27,28
 585.727539062 1757.18359375 585.727539062 1757.18359375 495.616210938 1824.76757812 c 128,-1,29
 405.50390625 1892.3515625 405.50390625 1892.3515625 270.3359375 1892.3515625 c 2,30,-1
 -100.3515625 1892.3515625 l 2,31,32
 -105.912109375 1892.3515625 -105.912109375 1892.3515625 -116.381835938 1892.33886719 c 0,33,34
 -212.477539062 1892.21582031 -212.477539062 1892.21582031 -222.997070312 1906.76953125 c 0,35,36
 -227.328125 1912.76171875 -227.328125 1912.76171875 -227.328125 1923.07226562 c 2,37,-1
 -227.328125 1966.08007812 l 1,38,-1
 -452.608398438 1966.08007812 l 1,39,-1
 -451.654296875 1942.61425781 l 1,40,-1
 -450.559570312 1910.78417969 l 1,41,42
 -450.559570312 1798.14355469 -450.559570312 1798.14355469 -365.568359375 1759.23242188 c 128,-1,43
 -280.576171875 1720.3203125 -280.576171875 1720.3203125 -112.639648438 1720.3203125 c 2,44,-1
 104.448242188 1720.3203125 l 2,45,46
 199.108398438 1720.3203125 199.108398438 1720.3203125 259.970703125 1712.80371094 c 128,-1,47
 320.833984375 1705.28710938 320.833984375 1705.28710938 350.967773438 1690.88867188 c 128,-1,48
 381.1015625 1676.49121094 381.1015625 1676.49121094 394.358398438 1655.52929688 c 128,-1,49
 407.615234375 1634.56835938 407.615234375 1634.56835938 407.0625 1607.6796875 c 128,-1,50
 406.509765625 1580.79003906 406.509765625 1580.79003906 405.999023438 1548.29003906 c 1,51,52
 340.234375 1677.31152344 340.234375 1677.31152344 118.784179688 1677.31152344 c 2,53,-1
 -368.639648438 1677.31152344 l 2,54,55
 -493.568359375 1677.31152344 -493.568359375 1677.31152344 -493.568359375 1806.3359375 c 2,56,-1
 -493.568359375 1849.34375 l 1,57,-1
 -718.84765625 1849.34375 l 1,0,-1
EndSplineSet
Fore
SplineSet
-719 1849 m 1,0,-1
 -494 1849 l 1,1,-1
 -494 1806 l 2,2,3
 -494 1677 -494 1677 -369 1677 c 2,4,-1
 119 1677 l 2,5,6
 340 1677 340 1677 406 1548 c 1,7,8
 406 1581 406 1581 407 1608 c 0,9,10
 408 1664 408 1664 351 1691 c 0,11,12
 289 1720 289 1720 104 1720 c 2,13,-1
 -113 1720 l 2,14,15
 -281 1720 -281 1720 -366 1759 c 128,-1,16
 -451 1798 -451 1798 -451 1911 c 1,17,-1
 -452 1943 l 1,18,-1
 -453 1966 l 1,19,-1
 -227 1966 l 1,20,-1
 -227 1923 l 2,21,22
 -227 1913 -227 1913 -219.5 1902.5 c 128,-1,23
 -212 1892 -212 1892 -159 1892 c 128,-1,24
 -106 1892 -106 1892 -100 1892 c 2,25,-1
 270 1892 l 2,26,27
 406 1892 406 1892 496 1824.5 c 128,-1,28
 586 1757 586 1757 586 1634 c 2,29,-1
 586 1419 l 1,30,-1
 874 1419 l 1,31,-1
 874 1161 l 1,32,-1
 586 1161 l 1,33,-1
 586 233 l 1,34,-1
 743 233 l 1,35,-1
 743 0 l 1,36,-1
 113 0 l 1,37,-1
 113 233 l 1,38,-1
 270 233 l 1,39,-1
 270 1161 l 1,40,-1
 -20 1161 l 1,41,-1
 -20 1419 l 1,42,-1
 255 1419 l 1,43,44
 235 1457 235 1457 177 1461 c 0,45,46
 157 1462 157 1462 132 1462 c 128,-1,47
 107 1462 107 1462 102 1462 c 2,48,-1
 -381 1462 l 2,49,50
 -528 1462 -528 1462 -623.5 1539 c 128,-1,51
 -719 1616 -719 1616 -719 1739 c 2,52,-1
 -719 1849 l 1,0,-1
EndSplineSet
EndChar

StartChar: b
Encoding: 98 98 157
Width: 1304
VWidth: 0
Flags: W
LayerCount: 2
Back
SplineSet
481.280273438 365.03125 m 1,0,-1
 481.280273438 675.510742188 l 1,1,2
 555.802734375 790.528320312 555.802734375 790.528320312 688.127929688 790.528320312 c 0,3,4
 794.624023438 790.528320312 794.624023438 790.528320312 866.303710938 716.799804688 c 128,-1,5
 937.984375 643.072265625 937.984375 643.072265625 937.984375 522.240234375 c 0,6,7
 937.984375 403.456054688 937.984375 403.456054688 865.280273438 330.751953125 c 128,-1,8
 792.576171875 258.047851562 792.576171875 258.047851562 686.080078125 258.047851562 c 0,9,10
 643.3046875 258.047851562 643.3046875 258.047851562 603.98046875 271.513671875 c 128,-1,11
 564.65625 284.979492188 564.65625 284.979492188 533.7265625 308.87109375 c 128,-1,12
 502.796875 332.76171875 502.796875 332.76171875 481.280273438 365.03125 c 1,0,-1
481.280273438 1013.24511719 m 1,13,-1
 481.280273438 1282.04785156 l 1,14,-1
 481.280273438 1556.48046875 l 1,15,-1
 174.080078125 1556.48046875 l 1,16,-1
 28.671875 1556.48046875 l 1,17,-1
 28.671875 1282.04785156 l 1,18,-1
 174.080078125 1282.04785156 l 1,19,-1
 174.080078125 0 l 1,20,-1
 481.280273438 0 l 1,21,-1
 481.280273438 27.7880859375 l 1,22,23
 533.458007812 5.2509765625 533.458007812 5.2509765625 590.293945312 -6.5908203125 c 128,-1,24
 647.12890625 -18.431640625 647.12890625 -18.431640625 708.608398438 -18.431640625 c 0,25,26
 940.032226562 -18.431640625 940.032226562 -18.431640625 1091.58398438 139.263671875 c 128,-1,27
 1243.13574219 296.959960938 1243.13574219 296.959960938 1243.13574219 524.288085938 c 0,28,29
 1243.13574219 749.568359375 1243.13574219 749.568359375 1089.53613281 908.288085938 c 128,-1,30
 935.935546875 1067.0078125 935.935546875 1067.0078125 708.608398438 1067.0078125 c 0,31,32
 591.892578125 1067.0078125 591.892578125 1067.0078125 481.280273438 1013.24511719 c 1,13,-1
EndSplineSet
Fore
SplineSet
481 365 m 1,0,1
 552 258 552 258 686 258 c 0,2,3
 793 258 793 258 865.5 330.5 c 128,-1,4
 938 403 938 403 938 523 c 128,-1,5
 938 643 938 643 866.5 717 c 128,-1,6
 795 791 795 791 675.5 791 c 128,-1,7
 556 791 556 791 481 676 c 1,8,-1
 481 365 l 1,0,1
481 28 m 1,9,10
 481 0 l 1,11,-1
 174 0 l 1,12,-1
 174 1282 l 1,13,-1
 29 1282 l 1,14,-1
 29 1556 l 1,15,-1
 481 1556 l 1,16,-1
 481 1013 l 1,17,18
 592 1067 592 1067 709 1067 c 0,19,20
 936 1067 936 1067 1089.5 908.5 c 128,-1,21
 1243 750 1243 750 1243 523.5 c 128,-1,22
 1243 297 1243 297 1091.5 139.5 c 128,-1,23
 940 -18 940 -18 709 -18 c 0,24,25
 588 -18 588 -18 481 28 c 1,9,10
EndSplineSet
EndChar

StartChar: ba_virama_ra_viramadeva
Encoding: 65533 65533 158
Width: 946
VWidth: 0
Flags: W
LayerCount: 2
Back
SplineSet
962.559570312 1419.26367188 m 1,0,-1
 -24.576171875 1419.26367188 l 1,1,-1
 -24.576171875 1161.21582031 l 1,2,-1
 962.559570312 1161.21582031 l 1,3,-1
 962.559570312 1419.26367188 l 1,0,-1
983.040039062 645.120117188 m 1,4,-1
 1017.85644531 825.34375 l 1,5,6
 942.080078125 899.072265625 942.080078125 899.072265625 815.103515625 945.15234375 c 128,-1,7
 688.127929688 991.232421875 688.127929688 991.232421875 536.576171875 991.232421875 c 0,8,9
 354.303710938 991.232421875 354.303710938 991.232421875 222.208007812 902.143554688 c 128,-1,10
 90.1123046875 813.055664062 90.1123046875 813.055664062 90.1123046875 651.263671875 c 0,11,12
 90.1123046875 497.896484375 90.1123046875 497.896484375 201.860351562 408.294921875 c 128,-1,13
 313.608398438 318.693359375 313.608398438 318.693359375 495.948242188 305.302734375 c 1,14,-1
 305.15234375 129.024414062 l 1,15,-1
 434.17578125 0 l 1,16,-1
 946.95703125 485.79296875 l 2,17,18
 953.650390625 489.787109375 953.650390625 489.787109375 959.622070312 493.2109375 c 128,-1,19
 965.59375 496.633789062 965.59375 496.633789062 971.604492188 499.888671875 c 128,-1,20
 977.615234375 503.143554688 977.615234375 503.143554688 983.040039062 505.856445312 c 1,21,-1
 983.040039062 645.120117188 l 1,4,-1
958.44921875 652.444335938 m 1,22,23
 908.360351562 630.124023438 908.360351562 630.124023438 859.416992188 613.2109375 c 1,24,-1
 733.475585938 711.921875 l 1,25,26
 830.274414062 692.991210938 830.274414062 692.991210938 958.44921875 652.444335938 c 1,22,23
677.361328125 567.819335938 m 1,27,28
 618.522460938 559.103515625 618.522460938 559.103515625 563.200195312 559.103515625 c 0,29,30
 360.448242188 559.103515625 360.448242188 559.103515625 360.448242188 645.120117188 c 0,31,32
 360.448242188 709.640625 360.448242188 709.640625 475.67578125 725.897460938 c 1,33,-1
 677.361328125 567.819335938 l 1,27,28
EndSplineSet
Fore
SplineSet
963 1419 m 1,0,-1
 963 1161 l 1,1,-1
 -25 1161 l 1,2,-1
 -25 1419 l 1,3,-1
 963 1419 l 1,0,-1
983 645 m 1,4,-1
 983 506 l 1,5,6
 968 498 968 498 947 486 c 1,7,-1
 434 0 l 1,8,-1
 305 129 l 1,9,-1
 496 305 l 1,10,11
 314 319 314 319 202 408.5 c 128,-1,12
 90 498 90 498 90 655.5 c 128,-1,13
 90 813 90 813 222 902 c 128,-1,14
 354 991 354 991 521 991 c 128,-1,15
 688 991 688 991 815 945 c 128,-1,16
 942 899 942 899 1018 825 c 1,17,-1
 983 645 l 1,4,-1
958 652 m 1,18,19
 830 693 830 693 733 712 c 1,20,-1
 859 613 l 1,21,22
 908 630 908 630 958 652 c 1,18,19
677 568 m 1,23,24
 476 726 l 1,25,26
 360 710 360 710 360 645 c 0,27,28
 360 559 360 559 563 559 c 0,29,30
 618 559 618 559 677 568 c 1,23,24
EndSplineSet
Ligature2: "VattuVariantslookup30 subtable" badeva viramadeva_radeva viramadeva
Ligature2: "VattuVariantslookup30 subtable" badeva_viramadeva viramadeva_radeva
Ligature2: "HalfFormslookup10 subtable" badeva_viramadeva_radeva viramadeva
EndChar

StartChar: backslash
Encoding: 92 92 159
Width: 778
VWidth: 0
Flags: W
LayerCount: 2
Back
SplineSet
571.391601562 -292.864257812 m 1,0,-1
 813.055664062 -292.864257812 l 1,1,-1
 241.6640625 1384.44824219 l 1,2,-1
 6.1435546875 1384.44824219 l 1,3,-1
 571.391601562 -292.864257812 l 1,0,-1
EndSplineSet
Fore
SplineSet
571 -293 m 1,0,-1
 6 1384 l 1,1,-1
 242 1384 l 1,2,-1
 813 -293 l 1,3,-1
 571 -293 l 1,0,-1
EndSplineSet
EndChar

StartChar: badeva_alt1
Encoding: 65550 -1 161
Width: 1443
VWidth: 0
Flags: W
LayerCount: 2
Back
SplineSet
623.087890625 537.021484375 m 1,0,1
 607.834960938 535.79296875 607.834960938 535.79296875 592.346679688 535.16015625 c 128,-1,2
 576.859375 534.528320312 576.859375 534.528320312 561.15234375 534.528320312 c 0,3,4
 479.232421875 534.528320312 479.232421875 534.528320312 408.576171875 560.127929688 c 128,-1,5
 337.919921875 585.727539062 337.919921875 585.727539062 337.919921875 643.072265625 c 0,6,7
 337.919921875 706.44921875 337.919921875 706.44921875 429.06640625 734.344726562 c 1,8,-1
 623.087890625 537.021484375 l 1,0,1
796.651367188 571.038085938 m 1,9,-1
 622.706054688 747.944335938 l 1,10,11
 742.35546875 734.453125 742.35546875 734.453125 903.16796875 673.048828125 c 1,12,-1
 903.16796875 613.518554688 l 1,13,14
 852.553710938 588.678710938 852.553710938 588.678710938 796.651367188 571.038085938 c 1,9,-1
612.3515625 1161.21582031 m 1,15,-1
 903.16796875 1161.21582031 l 1,16,-1
 903.16796875 902.345703125 l 1,17,18
 731.3515625 989.18359375 731.3515625 989.18359375 514.047851562 989.18359375 c 0,19,20
 352.255859375 989.18359375 352.255859375 989.18359375 221.18359375 899.072265625 c 128,-1,21
 90.1123046875 808.959960938 90.1123046875 808.959960938 90.1123046875 649.215820312 c 0,22,23
 90.1123046875 483.328125 90.1123046875 483.328125 218.112304688 392.192382812 c 128,-1,24
 346.112304688 301.055664062 346.112304688 301.055664062 540.671875 301.055664062 c 0,25,26
 720.12890625 301.055664062 720.12890625 301.055664062 903.16796875 390.116210938 c 1,27,-1
 903.16796875 0 l 1,28,-1
 1218.55957031 0 l 1,29,-1
 1218.55957031 1161.21582031 l 1,30,-1
 1509.37597656 1161.21582031 l 1,31,-1
 1509.37597656 1419.26367188 l 1,32,-1
 966.65625 1419.26367188 l 1,33,-1
 612.3515625 1419.26367188 l 1,34,-1
 -20.48046875 1419.26367188 l 1,35,-1
 -20.48046875 1161.21582031 l 1,36,-1
 612.3515625 1161.21582031 l 1,15,-1
EndSplineSet
Fore
SplineSet
623 537 m 1,0,1
 429 734 l 1,2,3
 338 706 338 706 338 643 c 0,4,5
 338 586 338 586 408.5 560.5 c 128,-1,6
 479 535 479 535 535.5 535 c 128,-1,7
 592 535 592 535 623 537 c 1,0,1
797 571 m 1,8,9
 853 589 853 589 903 614 c 1,10,-1
 903 673 l 1,11,12
 743 735 743 735 623 748 c 1,13,-1
 797 571 l 1,8,9
-20 1161 m 1,14,-1
 -20 1419 l 1,15,-1
 1509 1419 l 1,16,-1
 1509 1161 l 1,17,-1
 1219 1161 l 1,18,-1
 1219 0 l 1,19,-1
 903 0 l 1,20,-1
 903 390 l 1,21,22
 720 301 720 301 533 301 c 128,-1,23
 346 301 346 301 218 392 c 128,-1,24
 90 483 90 483 90 646 c 128,-1,25
 90 809 90 809 221 899 c 128,-1,26
 352 989 352 989 514 989 c 0,27,28
 731 989 731 989 903 902 c 1,29,-1
 903 1161 l 1,30,-1
 -20 1161 l 1,14,-1
EndSplineSet
EndChar

StartChar: badeva_viramadeva
Encoding: 65551 -1 162
Width: 946
VWidth: 0
Flags: W
LayerCount: 2
Back
SplineSet
966.65625 1419.26367188 m 1,0,-1
 -20.48046875 1419.26367188 l 1,1,-1
 -20.48046875 1161.21582031 l 1,2,-1
 966.65625 1161.21582031 l 1,3,-1
 966.65625 1419.26367188 l 1,0,-1
965.133789062 648.497070312 m 1,4,5
 895.014648438 602.077148438 895.014648438 602.077148438 796.651367188 571.038085938 c 1,6,-1
 622.706054688 747.944335938 l 1,7,8
 748.766601562 733.73046875 748.766601562 733.73046875 965.133789062 648.497070312 c 1,4,5
977.803710938 657.3671875 m 2,9,-1
 1017.85644531 823.295898438 l 1,10,11
 944.127929688 894.975585938 944.127929688 894.975585938 805.887695312 942.080078125 c 128,-1,12
 667.6484375 989.18359375 667.6484375 989.18359375 514.047851562 989.18359375 c 0,13,14
 352.255859375 989.18359375 352.255859375 989.18359375 221.18359375 899.072265625 c 128,-1,15
 90.1123046875 808.959960938 90.1123046875 808.959960938 90.1123046875 649.215820312 c 0,16,17
 90.1123046875 483.328125 90.1123046875 483.328125 218.112304688 392.192382812 c 128,-1,18
 346.112304688 301.055664062 346.112304688 301.055664062 540.671875 301.055664062 c 0,19,20
 634.879882812 301.055664062 634.879882812 301.055664062 731.135742188 327.6796875 c 128,-1,21
 827.391601562 354.303710938 827.391601562 354.303710938 866.303710938 371.711914062 c 128,-1,22
 905.215820312 389.120117188 905.215820312 389.120117188 976.896484375 428.032226562 c 1,23,-1
 983.040039062 661.50390625 l 2,24,25
 981.984375 660.610351562 981.984375 660.610351562 980.669921875 659.571289062 c 128,-1,26
 979.356445312 658.532226562 979.356445312 658.532226562 977.803710938 657.3671875 c 2,9,-1
623.087890625 537.021484375 m 1,27,28
 607.834960938 535.79296875 607.834960938 535.79296875 592.346679688 535.16015625 c 128,-1,29
 576.859375 534.528320312 576.859375 534.528320312 561.15234375 534.528320312 c 0,30,31
 479.232421875 534.528320312 479.232421875 534.528320312 408.576171875 560.127929688 c 128,-1,32
 337.919921875 585.727539062 337.919921875 585.727539062 337.919921875 643.072265625 c 0,33,34
 337.919921875 706.44921875 337.919921875 706.44921875 429.06640625 734.344726562 c 1,35,-1
 623.087890625 537.021484375 l 1,27,28
EndSplineSet
Fore
SplineSet
967 1419 m 1,0,-1
 967 1161 l 1,1,-1
 -20 1161 l 1,2,-1
 -20 1419 l 1,3,-1
 967 1419 l 1,0,-1
965 648 m 1,4,5
 749 733 749 733 623 748 c 1,6,-1
 797 571 l 1,7,8
 895 602 895 602 965 648 c 1,4,5
978 657 m 1,9,10
 981 659 981 659 983 662 c 1,11,-1
 977 428 l 1,12,13
 905 389 905 389 866 371.5 c 128,-1,14
 827 354 827 354 731 327.5 c 128,-1,15
 635 301 635 301 541 301 c 0,16,17
 346 301 346 301 218 392 c 128,-1,18
 90 483 90 483 90 646 c 128,-1,19
 90 809 90 809 221 899 c 128,-1,20
 352 989 352 989 510 989 c 128,-1,21
 668 989 668 989 806 942 c 128,-1,22
 944 895 944 895 1018 823 c 1,23,-1
 978 657 l 1,9,10
623 537 m 1,24,25
 429 734 l 1,26,27
 338 706 338 706 338 643 c 0,28,29
 338 586 338 586 408.5 560.5 c 128,-1,30
 479 535 479 535 535.5 535 c 128,-1,31
 592 535 592 535 623 537 c 1,24,25
EndSplineSet
Ligature2: "HalfFormslookup10 subtable" badeva viramadeva
EndChar

StartChar: badeva_viramadeva_radeva
Encoding: 65552 -1 163
Width: 1488
VWidth: 0
Flags: W
LayerCount: 2
Back
SplineSet
901.120117188 0 m 1,0,-1
 1216.51171875 0 l 1,1,-1
 1374.20800781 0 l 1,2,-1
 1374.20800781 233.471679688 l 1,3,-1
 1216.51171875 233.471679688 l 1,4,-1
 1216.51171875 1161.21582031 l 1,5,-1
 1505.28027344 1161.21582031 l 1,6,-1
 1505.28027344 1419.26367188 l 1,7,-1
 962.559570312 1419.26367188 l 1,8,-1
 610.303710938 1419.26367188 l 1,9,-1
 -24.576171875 1419.26367188 l 1,10,-1
 -24.576171875 1161.21582031 l 1,11,-1
 610.303710938 1161.21582031 l 1,12,-1
 901.120117188 1161.21582031 l 1,13,-1
 901.120117188 908.178710938 l 1,14,15
 826.27734375 947.301757812 826.27734375 947.301757812 733.27734375 969.266601562 c 128,-1,16
 640.27734375 991.232421875 640.27734375 991.232421875 536.576171875 991.232421875 c 0,17,18
 354.303710938 991.232421875 354.303710938 991.232421875 222.208007812 902.143554688 c 128,-1,19
 90.1123046875 813.055664062 90.1123046875 813.055664062 90.1123046875 651.263671875 c 0,20,21
 90.1123046875 497.896484375 90.1123046875 497.896484375 201.860351562 408.294921875 c 128,-1,22
 313.608398438 318.693359375 313.608398438 318.693359375 495.948242188 305.302734375 c 1,23,-1
 305.15234375 129.024414062 l 1,24,-1
 434.17578125 0 l 1,25,-1
 901.120117188 442.368164062 l 1,26,-1
 901.120117188 233.471679688 l 1,27,-1
 743.423828125 233.471679688 l 1,28,-1
 743.423828125 0 l 1,29,-1
 901.120117188 0 l 1,0,-1
901.120117188 670.086914062 m 1,30,-1
 901.120117188 628.51171875 l 1,31,32
 880.26953125 620.416992188 880.26953125 620.416992188 859.416992188 613.2109375 c 1,33,-1
 733.475585938 711.921875 l 1,34,35
 810.89453125 696.78125 810.89453125 696.78125 901.120117188 670.086914062 c 1,30,-1
677.361328125 567.819335938 m 1,36,37
 618.522460938 559.103515625 618.522460938 559.103515625 563.200195312 559.103515625 c 0,38,39
 360.448242188 559.103515625 360.448242188 559.103515625 360.448242188 645.120117188 c 0,40,41
 360.448242188 709.640625 360.448242188 709.640625 475.67578125 725.897460938 c 1,42,-1
 677.361328125 567.819335938 l 1,36,37
EndSplineSet
Fore
SplineSet
901 908 m 1,0,1
 901 1161 l 1,2,-1
 -25 1161 l 1,3,-1
 -25 1419 l 1,4,-1
 1505 1419 l 1,5,-1
 1505 1161 l 1,6,-1
 1217 1161 l 1,7,-1
 1217 233 l 1,8,-1
 1374 233 l 1,9,-1
 1374 0 l 1,10,-1
 743 0 l 1,11,-1
 743 233 l 1,12,-1
 901 233 l 1,13,-1
 901 442 l 1,14,-1
 434 0 l 1,15,-1
 305 129 l 1,16,-1
 496 305 l 1,17,18
 314 319 314 319 202 408.5 c 128,-1,19
 90 498 90 498 90 655.5 c 128,-1,20
 90 813 90 813 222 902 c 128,-1,21
 354 991 354 991 548 991 c 128,-1,22
 742 991 742 991 901 908 c 1,0,1
901 670 m 1,23,24
 811 697 811 697 733 712 c 1,25,-1
 859 613 l 1,26,27
 880 621 880 621 901 629 c 1,28,-1
 901 670 l 1,23,24
677 568 m 1,29,-1
 476 726 l 1,30,31
 360 710 360 710 360 645 c 0,32,33
 360 559 360 559 563 559 c 0,34,35
 618 559 618 559 677 568 c 1,29,-1
EndSplineSet
Ligature2: "VattuVariantslookup30 subtable" badeva viramadeva_radeva
EndChar

StartChar: bar
Encoding: 124 124 164
Width: 593
VWidth: 0
Flags: W
LayerCount: 2
Back
SplineSet
122.879882812 -270.3359375 m 1,0,-1
 374.784179688 -270.3359375 l 1,1,-1
 374.784179688 1728.51171875 l 1,2,-1
 122.879882812 1728.51171875 l 1,3,-1
 122.879882812 -270.3359375 l 1,0,-1
EndSplineSet
Fore
SplineSet
123 -270 m 1,0,-1
 123 1729 l 1,1,-1
 375 1729 l 1,2,-1
 375 -270 l 1,3,-1
 123 -270 l 1,0,-1
EndSplineSet
EndChar

StartChar: bbadeva
Encoding: 2431 2431 165
Width: 1484
VWidth: 0
Flags: W
HStem: 301 233<377 665>
VStem: 90 248<577 760> 901 66<428 632>
AnchorPoint: "DVAnchor3" 1047 1407 basechar 0
LayerCount: 2
Back
SplineSet
0 -256 m 1,0,-1
 1216.51171875 -256 l 1,1,-1
 1216.51171875 0 l 1,2,-1
 1216.51171875 1161.21582031 l 1,3,-1
 1507.328125 1161.21582031 l 1,4,-1
 1507.328125 1419.26367188 l 1,5,-1
 966.65625 1419.26367188 l 1,6,-1
 612.3515625 1419.26367188 l 1,7,-1
 -20.48046875 1419.26367188 l 1,8,-1
 -20.48046875 1161.21582031 l 1,9,-1
 612.3515625 1161.21582031 l 1,10,-1
 901.120117188 1161.21582031 l 1,11,-1
 901.120117188 903.375976562 l 1,12,13
 729.805664062 989.18359375 729.805664062 989.18359375 514.047851562 989.18359375 c 0,14,15
 352.255859375 989.18359375 352.255859375 989.18359375 221.18359375 899.072265625 c 128,-1,16
 90.1123046875 808.959960938 90.1123046875 808.959960938 90.1123046875 649.215820312 c 0,17,18
 90.1123046875 483.328125 90.1123046875 483.328125 218.112304688 392.192382812 c 128,-1,19
 346.112304688 301.055664062 346.112304688 301.055664062 540.671875 301.055664062 c 0,20,21
 719.306640625 301.055664062 719.306640625 301.055664062 901.120117188 389.122070312 c 1,22,-1
 901.120117188 0 l 1,23,-1
 0 0 l 1,24,-1
 0 -256 l 1,0,-1
901.120117188 673.830078125 m 1,25,-1
 901.120117188 612.517578125 l 1,26,27
 851.38671875 588.310546875 851.38671875 588.310546875 796.651367188 571.038085938 c 1,28,-1
 622.706054688 747.944335938 l 1,29,30
 741.599609375 734.5390625 741.599609375 734.5390625 901.120117188 673.830078125 c 1,25,-1
623.087890625 537.021484375 m 1,31,32
 607.834960938 535.79296875 607.834960938 535.79296875 592.346679688 535.16015625 c 128,-1,33
 576.859375 534.528320312 576.859375 534.528320312 561.15234375 534.528320312 c 0,34,35
 479.232421875 534.528320312 479.232421875 534.528320312 408.576171875 560.127929688 c 128,-1,36
 337.919921875 585.727539062 337.919921875 585.727539062 337.919921875 643.072265625 c 0,37,38
 337.919921875 706.44921875 337.919921875 706.44921875 429.06640625 734.344726562 c 1,39,-1
 623.087890625 537.021484375 l 1,31,32
EndSplineSet
Fore
SplineSet
0 -256 m 1,0,-1
 0 0 l 1,1,-1
 901 0 l 1,2,-1
 901 389 l 1,3,4
 719 301 719 301 532.5 301 c 128,-1,5
 346 301 346 301 218 392 c 128,-1,6
 90 483 90 483 90 646 c 128,-1,7
 90 809 90 809 221 899 c 128,-1,8
 352 989 352 989 514 989 c 0,9,10
 730 989 730 989 901 903 c 1,11,-1
 901 1161 l 1,12,-1
 -20 1161 l 1,13,-1
 -20 1419 l 1,14,-1
 1507 1419 l 1,15,-1
 1507 1161 l 1,16,-1
 1217 1161 l 1,17,-1
 1217 -256 l 1,18,-1
 0 -256 l 1,0,-1
901 674 m 1,19,20
 741 735 741 735 623 748 c 1,21,-1
 797 571 l 1,22,23
 851 589 851 589 901 613 c 1,24,-1
 901 674 l 1,19,20
623 537 m 1,25,26
 429 734 l 1,27,28
 338 706 338 706 338 643 c 0,29,30
 338 586 338 586 408.5 560.5 c 128,-1,31
 479 535 479 535 535.5 535 c 128,-1,32
 592 535 592 535 623 537 c 1,25,26
EndSplineSet
EndChar

StartChar: bhadeva
Encoding: 2349 2349 166
Width: 1757
VWidth: 0
Flags: W
HStem: 909 190<310 472> 1274 170<309 457>
VStem: 90 207<1110 1263> 471 205<1111 1261>
AnchorPoint: "DVAnchor3" 1303 1360 basechar 0
LayerCount: 2
Back
SplineSet
1775.61621094 1419.26367188 m 1,0,-1
 880.639648438 1419.26367188 l 1,1,-1
 880.639648438 1161.21582031 l 1,2,-1
 1171.45605469 1161.21582031 l 1,3,-1
 1171.45605469 817.15234375 l 1,4,-1
 694.272460938 817.15234375 l 1,5,-1
 673.791992188 813.62109375 l 1,6,-1
 673.791992188 817.15234375 l 1,7,-1
 671.744140625 817.15234375 l 1,8,-1
 675.83984375 833.536132812 l 1,9,-1
 675.83984375 1175.55175781 l 2,10,11
 675.83984375 1292.28808594 675.83984375 1292.28808594 596.9921875 1368.06445312 c 128,-1,12
 518.143554688 1443.83984375 518.143554688 1443.83984375 376.83203125 1443.83984375 c 0,13,14
 251.904296875 1443.83984375 251.904296875 1443.83984375 171.0078125 1366.015625 c 128,-1,15
 90.1123046875 1288.19238281 90.1123046875 1288.19238281 90.1123046875 1177.59960938 c 0,16,17
 90.1123046875 1064.95996094 90.1123046875 1064.95996094 167.935546875 987.135742188 c 128,-1,18
 245.759765625 909.311523438 245.759765625 909.311523438 360.448242188 909.311523438 c 0,19,20
 362.154296875 909.319335938 362.154296875 909.319335938 362.49609375 909.319335938 c 2,21,-1
 362.49609375 817.15234375 l 1,22,-1
 206.84765625 817.15234375 l 1,23,-1
 206.84765625 587.776367188 l 1,24,-1
 421.887695312 376.83203125 l 1,25,-1
 673.791992188 376.83203125 l 1,26,-1
 673.791992188 557.87890625 l 1,27,-1
 1171.45605469 559.055664062 l 1,28,-1
 1171.45605469 235.51953125 l 1,29,-1
 1013.75976562 235.51953125 l 1,30,-1
 1013.75976562 0 l 1,31,-1
 1171.45605469 0 l 1,32,-1
 1486.84765625 0 l 1,33,-1
 1644.54394531 0 l 1,34,-1
 1644.54394531 235.51953125 l 1,35,-1
 1486.84765625 235.51953125 l 1,36,-1
 1486.84765625 1161.21582031 l 1,37,-1
 1775.61621094 1161.21582031 l 1,38,-1
 1775.61621094 1419.26367188 l 1,0,-1
471.040039062 1185.79199219 m 0,39,40
 471.040039062 1153.02441406 471.040039062 1153.02441406 447.48828125 1126.40039062 c 128,-1,41
 423.935546875 1099.77636719 423.935546875 1099.77636719 382.975585938 1099.77636719 c 0,42,43
 339.967773438 1099.77636719 339.967773438 1099.77636719 318.463867188 1127.42382812 c 128,-1,44
 296.959960938 1155.07226562 296.959960938 1155.07226562 296.959960938 1185.79199219 c 0,45,46
 296.959960938 1222.65625 296.959960938 1222.65625 321.536132812 1248.25585938 c 128,-1,47
 346.112304688 1273.85644531 346.112304688 1273.85644531 382.975585938 1273.85644531 c 128,-1,48
 419.83984375 1273.85644531 419.83984375 1273.85644531 445.440429688 1249.28027344 c 128,-1,49
 471.040039062 1224.70410156 471.040039062 1224.70410156 471.040039062 1185.79199219 c 0,39,40
EndSplineSet
Fore
SplineSet
1776 1419 m 1,0,-1
 1776 1161 l 1,1,-1
 1487 1161 l 1,2,-1
 1487 236 l 1,3,-1
 1645 236 l 1,4,-1
 1645 0 l 1,5,-1
 1014 0 l 1,6,-1
 1014 236 l 1,7,-1
 1171 236 l 1,8,-1
 1171 559 l 1,9,-1
 674 558 l 1,10,-1
 674 377 l 1,11,-1
 422 377 l 1,12,-1
 207 588 l 1,13,-1
 207 817 l 1,14,-1
 362 817 l 1,15,-1
 362 909 l 2,16,-1
 360 909 l 0,17,18
 246 909 246 909 168 987 c 128,-1,19
 90 1065 90 1065 90 1176.5 c 128,-1,20
 90 1288 90 1288 171 1366 c 128,-1,21
 252 1444 252 1444 385 1444 c 128,-1,22
 518 1444 518 1444 597 1368.5 c 128,-1,23
 676 1293 676 1293 676 1176 c 2,24,-1
 676 834 l 1,25,-1
 672 817 l 1,26,-1
 674 817 l 1,27,-1
 674 814 l 1,28,-1
 694 817 l 1,29,-1
 1171 817 l 1,30,-1
 1171 1161 l 1,31,-1
 881 1161 l 1,32,-1
 881 1419 l 1,33,-1
 1776 1419 l 1,0,-1
445.5 1249.5 m 128,-1,35
 420 1274 420 1274 383 1274 c 128,-1,36
 346 1274 346 1274 321.5 1248.5 c 128,-1,37
 297 1223 297 1223 297 1189 c 128,-1,38
 297 1155 297 1155 318.5 1127.5 c 128,-1,39
 340 1100 340 1100 382 1100 c 128,-1,40
 424 1100 424 1100 447.5 1126.5 c 128,-1,41
 471 1153 471 1153 471 1189 c 128,-1,34
 471 1225 471 1225 445.5 1249.5 c 128,-1,35
EndSplineSet
Substitution2: "Single Substitution lookup 36 subtable" bhadeva_alt1
EndChar

StartChar: bhadeva_alt1
Encoding: 65553 -1 167
Width: 1757
VWidth: 0
Flags: W
LayerCount: 2
Back
SplineSet
1775.61621094 1419.26367188 m 1,0,-1
 880.639648438 1419.26367188 l 1,1,-1
 880.639648438 1161.21582031 l 1,2,-1
 1171.45605469 1161.21582031 l 1,3,-1
 1171.45605469 817.15234375 l 1,4,-1
 694.272460938 817.15234375 l 1,5,-1
 673.791992188 813.62109375 l 1,6,-1
 673.791992188 817.15234375 l 1,7,-1
 671.744140625 817.15234375 l 1,8,-1
 675.83984375 833.536132812 l 1,9,-1
 675.83984375 1175.55175781 l 2,10,11
 675.83984375 1292.28808594 675.83984375 1292.28808594 596.9921875 1368.06445312 c 128,-1,12
 518.143554688 1443.83984375 518.143554688 1443.83984375 376.83203125 1443.83984375 c 0,13,14
 251.904296875 1443.83984375 251.904296875 1443.83984375 171.0078125 1366.015625 c 128,-1,15
 90.1123046875 1288.19238281 90.1123046875 1288.19238281 90.1123046875 1177.59960938 c 0,16,17
 90.1123046875 1064.95996094 90.1123046875 1064.95996094 167.935546875 987.135742188 c 128,-1,18
 245.759765625 909.311523438 245.759765625 909.311523438 360.448242188 909.311523438 c 0,19,20
 362.154296875 909.319335938 362.154296875 909.319335938 362.49609375 909.319335938 c 2,21,-1
 362.49609375 817.15234375 l 1,22,-1
 206.84765625 817.15234375 l 1,23,-1
 206.84765625 587.776367188 l 1,24,-1
 421.887695312 376.83203125 l 1,25,-1
 673.791992188 376.83203125 l 1,26,-1
 673.791992188 557.87890625 l 1,27,-1
 1171.45605469 559.055664062 l 1,28,-1
 1171.45605469 0 l 1,29,-1
 1486.84765625 0 l 1,30,-1
 1486.84765625 1161.21582031 l 1,31,-1
 1775.61621094 1161.21582031 l 1,32,-1
 1775.61621094 1419.26367188 l 1,0,-1
471.040039062 1185.79199219 m 0,33,34
 471.040039062 1153.02441406 471.040039062 1153.02441406 447.48828125 1126.40039062 c 128,-1,35
 423.935546875 1099.77636719 423.935546875 1099.77636719 382.975585938 1099.77636719 c 0,36,37
 339.967773438 1099.77636719 339.967773438 1099.77636719 318.463867188 1127.42382812 c 128,-1,38
 296.959960938 1155.07226562 296.959960938 1155.07226562 296.959960938 1185.79199219 c 0,39,40
 296.959960938 1222.65625 296.959960938 1222.65625 321.536132812 1248.25585938 c 128,-1,41
 346.112304688 1273.85644531 346.112304688 1273.85644531 382.975585938 1273.85644531 c 128,-1,42
 419.83984375 1273.85644531 419.83984375 1273.85644531 445.440429688 1249.28027344 c 128,-1,43
 471.040039062 1224.70410156 471.040039062 1224.70410156 471.040039062 1185.79199219 c 0,33,34
EndSplineSet
Fore
SplineSet
1776 1419 m 1,0,-1
 1776 1161 l 1,1,-1
 1487 1161 l 1,2,-1
 1487 0 l 1,3,-1
 1171 0 l 1,4,-1
 1171 559 l 1,5,-1
 674 558 l 1,6,-1
 674 377 l 1,7,-1
 422 377 l 1,8,-1
 207 588 l 1,9,-1
 207 817 l 1,10,-1
 362 817 l 1,11,-1
 362 909 l 2,12,-1
 360 909 l 0,13,14
 246 909 246 909 168 987 c 128,-1,15
 90 1065 90 1065 90 1176.5 c 128,-1,16
 90 1288 90 1288 171 1366 c 128,-1,17
 252 1444 252 1444 385 1444 c 128,-1,18
 518 1444 518 1444 597 1368.5 c 128,-1,19
 676 1293 676 1293 676 1176 c 2,20,-1
 676 834 l 1,21,-1
 672 817 l 1,22,-1
 674 817 l 1,23,-1
 674 814 l 1,24,-1
 694 817 l 1,25,-1
 1171 817 l 1,26,-1
 1171 1161 l 1,27,-1
 881 1161 l 1,28,-1
 881 1419 l 1,29,-1
 1776 1419 l 1,0,-1
445.5 1249.5 m 128,-1,31
 420 1274 420 1274 383 1274 c 128,-1,32
 346 1274 346 1274 321.5 1248.5 c 128,-1,33
 297 1223 297 1223 297 1189 c 128,-1,34
 297 1155 297 1155 318.5 1127.5 c 128,-1,35
 340 1100 340 1100 382 1100 c 128,-1,36
 424 1100 424 1100 447.5 1126.5 c 128,-1,37
 471 1153 471 1153 471 1189 c 128,-1,30
 471 1225 471 1225 445.5 1249.5 c 128,-1,31
EndSplineSet
EndChar

StartChar: bhadeva_viramadeva
Encoding: 65554 -1 168
Width: 1171
VWidth: 0
Flags: W
LayerCount: 2
Back
SplineSet
421.887695312 376.83203125 m 1,0,-1
 673.791992188 376.83203125 l 1,1,-1
 673.791992188 557.87890625 l 1,2,-1
 1191.93554688 559.103515625 l 1,3,-1
 1191.93554688 817.15234375 l 1,4,-1
 694.272460938 817.15234375 l 1,5,-1
 673.791992188 813.62109375 l 1,6,-1
 673.791992188 817.15234375 l 1,7,-1
 671.744140625 817.15234375 l 1,8,-1
 675.83984375 833.536132812 l 1,9,-1
 675.83984375 1175.55175781 l 2,10,11
 675.83984375 1292.28808594 675.83984375 1292.28808594 596.9921875 1368.06445312 c 128,-1,12
 518.143554688 1443.83984375 518.143554688 1443.83984375 376.83203125 1443.83984375 c 0,13,14
 251.904296875 1443.83984375 251.904296875 1443.83984375 171.0078125 1366.015625 c 128,-1,15
 90.1123046875 1288.19238281 90.1123046875 1288.19238281 90.1123046875 1177.59960938 c 0,16,17
 90.1123046875 1064.95996094 90.1123046875 1064.95996094 167.935546875 987.135742188 c 128,-1,18
 245.759765625 909.311523438 245.759765625 909.311523438 360.448242188 909.311523438 c 0,19,20
 362.154296875 909.319335938 362.154296875 909.319335938 362.49609375 909.319335938 c 2,21,-1
 362.49609375 817.15234375 l 1,22,-1
 206.84765625 817.15234375 l 1,23,-1
 206.84765625 587.776367188 l 1,24,-1
 421.887695312 376.83203125 l 1,0,-1
471.040039062 1185.79199219 m 0,25,26
 471.040039062 1153.02441406 471.040039062 1153.02441406 447.48828125 1126.40039062 c 128,-1,27
 423.935546875 1099.77636719 423.935546875 1099.77636719 382.975585938 1099.77636719 c 0,28,29
 339.967773438 1099.77636719 339.967773438 1099.77636719 318.463867188 1127.42382812 c 128,-1,30
 296.959960938 1155.07226562 296.959960938 1155.07226562 296.959960938 1185.79199219 c 0,31,32
 296.959960938 1222.65625 296.959960938 1222.65625 321.536132812 1248.25585938 c 128,-1,33
 346.112304688 1273.85644531 346.112304688 1273.85644531 382.975585938 1273.85644531 c 128,-1,34
 419.83984375 1273.85644531 419.83984375 1273.85644531 445.440429688 1249.28027344 c 128,-1,35
 471.040039062 1224.70410156 471.040039062 1224.70410156 471.040039062 1185.79199219 c 0,25,26
EndSplineSet
Fore
SplineSet
422 377 m 1,0,-1
 207 588 l 1,1,-1
 207 817 l 1,2,-1
 362 817 l 1,3,-1
 362 909 l 2,4,-1
 360 909 l 0,5,6
 246 909 246 909 168 987 c 128,-1,7
 90 1065 90 1065 90 1176.5 c 128,-1,8
 90 1288 90 1288 171 1366 c 128,-1,9
 252 1444 252 1444 385 1444 c 128,-1,10
 518 1444 518 1444 597 1368.5 c 128,-1,11
 676 1293 676 1293 676 1176 c 2,12,-1
 676 834 l 1,13,-1
 672 817 l 1,14,-1
 674 817 l 1,15,-1
 674 814 l 1,16,-1
 694 817 l 1,17,-1
 1192 817 l 1,18,-1
 1192 559 l 1,19,-1
 674 558 l 1,20,-1
 674 377 l 1,21,-1
 422 377 l 1,0,-1
445.5 1249.5 m 128,-1,23
 420 1274 420 1274 383 1274 c 128,-1,24
 346 1274 346 1274 321.5 1248.5 c 128,-1,25
 297 1223 297 1223 297 1189 c 128,-1,26
 297 1155 297 1155 318.5 1127.5 c 128,-1,27
 340 1100 340 1100 382 1100 c 128,-1,28
 424 1100 424 1100 447.5 1126.5 c 128,-1,29
 471 1153 471 1153 471 1189 c 128,-1,22
 471 1225 471 1225 445.5 1249.5 c 128,-1,23
EndSplineSet
Ligature2: "HalfFormslookup10 subtable" bhadeva viramadeva
EndChar

StartChar: bhadeva_viramadeva_radeva
Encoding: 65555 -1 169
Width: 1845
VWidth: 0
Flags: W
LayerCount: 2
Back
SplineSet
423.935546875 376.83203125 m 1,0,-1
 675.83984375 376.83203125 l 1,1,-1
 675.83984375 557.87890625 l 1,2,-1
 1095.41601562 558.87109375 l 1,3,-1
 632.83203125 129.024414062 l 1,4,-1
 759.807617188 0 l 1,5,-1
 1261.56835938 478.313476562 l 1,6,-1
 1261.56835938 233.471679688 l 1,7,-1
 1103.87207031 233.471679688 l 1,8,-1
 1103.87207031 0 l 1,9,-1
 1261.56835938 0 l 1,10,-1
 1576.95996094 0 l 1,11,-1
 1734.65625 0 l 1,12,-1
 1734.65625 233.471679688 l 1,13,-1
 1576.95996094 233.471679688 l 1,14,-1
 1576.95996094 1161.21582031 l 1,15,-1
 1867.77636719 1161.21582031 l 1,16,-1
 1867.77636719 1419.26367188 l 1,17,-1
 970.751953125 1419.26367188 l 1,18,-1
 970.751953125 1161.21582031 l 1,19,-1
 1261.56835938 1161.21582031 l 1,20,-1
 1261.56835938 817.15234375 l 1,21,-1
 1193.984375 817.15234375 l 1,22,-1
 1101.82421875 817.15234375 l 1,23,-1
 696.3203125 817.15234375 l 1,24,-1
 675.83984375 813.62109375 l 1,25,-1
 675.83984375 817.15234375 l 1,26,-1
 673.791992188 817.15234375 l 1,27,-1
 677.887695312 833.536132812 l 1,28,-1
 677.887695312 1175.55175781 l 2,29,30
 677.887695312 1292.28808594 677.887695312 1292.28808594 599.040039062 1368.06445312 c 128,-1,31
 520.192382812 1443.83984375 520.192382812 1443.83984375 378.879882812 1443.83984375 c 0,32,33
 253.952148438 1443.83984375 253.952148438 1443.83984375 173.055664062 1366.015625 c 128,-1,34
 92.16015625 1288.19238281 92.16015625 1288.19238281 92.16015625 1177.59960938 c 0,35,36
 92.16015625 1064.95996094 92.16015625 1064.95996094 169.984375 987.135742188 c 128,-1,37
 247.807617188 909.311523438 247.807617188 909.311523438 362.49609375 909.311523438 c 0,38,39
 364.202148438 909.319335938 364.202148438 909.319335938 364.543945312 909.319335938 c 2,40,-1
 364.543945312 817.15234375 l 1,41,-1
 208.896484375 817.15234375 l 1,42,-1
 208.896484375 587.776367188 l 1,43,-1
 423.935546875 376.83203125 l 1,0,-1
473.087890625 1185.79199219 m 0,44,45
 473.087890625 1153.02441406 473.087890625 1153.02441406 449.536132812 1126.40039062 c 128,-1,46
 425.984375 1099.77636719 425.984375 1099.77636719 385.024414062 1099.77636719 c 0,47,48
 342.015625 1099.77636719 342.015625 1099.77636719 320.51171875 1127.42382812 c 128,-1,49
 299.0078125 1155.07226562 299.0078125 1155.07226562 299.0078125 1185.79199219 c 0,50,51
 299.0078125 1222.65625 299.0078125 1222.65625 323.583984375 1248.25585938 c 128,-1,52
 348.16015625 1273.85644531 348.16015625 1273.85644531 385.024414062 1273.85644531 c 128,-1,53
 421.887695312 1273.85644531 421.887695312 1273.85644531 447.48828125 1249.28027344 c 128,-1,54
 473.087890625 1224.70410156 473.087890625 1224.70410156 473.087890625 1185.79199219 c 0,44,45
EndSplineSet
Fore
SplineSet
424 377 m 1,0,-1
 209 588 l 1,1,-1
 209 817 l 1,2,-1
 365 817 l 1,3,-1
 365 909 l 2,4,5
 364 909 364 909 362 909 c 0,6,7
 248 909 248 909 170 987 c 128,-1,8
 92 1065 92 1065 92 1176.5 c 128,-1,9
 92 1288 92 1288 173 1366 c 128,-1,10
 254 1444 254 1444 387 1444 c 128,-1,11
 520 1444 520 1444 599 1368.5 c 128,-1,12
 678 1293 678 1293 678 1176 c 2,13,-1
 678 834 l 1,14,-1
 674 817 l 1,15,-1
 676 817 l 1,16,-1
 676 814 l 1,17,-1
 696 817 l 1,18,-1
 1262 817 l 1,19,-1
 1262 1161 l 1,20,-1
 971 1161 l 1,21,-1
 971 1419 l 1,22,-1
 1868 1419 l 1,23,-1
 1868 1161 l 1,24,-1
 1577 1161 l 1,25,-1
 1577 233 l 1,26,-1
 1735 233 l 1,27,-1
 1735 0 l 1,28,-1
 1104 0 l 1,29,-1
 1104 233 l 1,30,-1
 1262 233 l 1,31,-1
 1262 478 l 1,32,-1
 760 0 l 1,33,-1
 633 129 l 1,34,-1
 1095 559 l 1,35,-1
 676 558 l 1,36,-1
 676 377 l 1,37,-1
 424 377 l 1,0,-1
447.5 1249.5 m 128,-1,39
 422 1274 422 1274 385 1274 c 128,-1,40
 348 1274 348 1274 323.5 1248.5 c 128,-1,41
 299 1223 299 1223 299 1189 c 128,-1,42
 299 1155 299 1155 320.5 1127.5 c 128,-1,43
 342 1100 342 1100 384 1100 c 128,-1,44
 426 1100 426 1100 449.5 1126.5 c 128,-1,45
 473 1153 473 1153 473 1189 c 128,-1,38
 473 1225 473 1225 447.5 1249.5 c 128,-1,39
EndSplineSet
Ligature2: "VattuVariantslookup30 subtable" bhadeva viramadeva_radeva
EndChar

